999
FreeCAD v0.19 14555 (Git shallow)
  0
SECTION
  2
HEADER
  9
$ACADVER
  1
AC1014
  9
$ACADMAINTVER
 70
     9
  9
$DWGCODEPAGE
  3
ANSI_1252
  9
$TEXTSTYLE
  7
STANDARD
  9
$DIMSTYLE
  2
STANDARD
  9
$DIMTXSTY
  7
STANDARD
  9
$CMLSTYLE
  2
STANDARD
  9
$PEXTMAX
 10
50
 20
50
 30
50
  9
$PEXTMIN
 10
0
 20
0
 30
0
  9
$HANDSEED
  5
FFFF
  0
ENDSEC
  0
SECTION
  2
CLASSES
  0
CLASS
  1
ACDBDICTIONARYWDFLT
  2
AcDbDictionaryWithDefault
  3
ObjectDBX Classes
 90
        0
280
     0
281
     0
  0
CLASS
  1
XRECORD
  2
AcDbXrecord
  3
ObjectDBX Classes
 90
        0
280
     0
281
     0
  0
CLASS
  1
LWPOLYLINE
  2
AcDbPolyline
  3
ObjectDBX Classes
 90
        0
280
     0
281
     1
  0
ENDSEC
  0
SECTION
  2
TABLES
  0
TABLE
  2
VPORT
  5
20
330
0
100
AcDbSymbolTable
 70
     1
  0
VPORT
  5
21
330
20
100
AcDbSymbolTableRecord
100
AcDbViewportTableRecord
  2
*ACTIVE
 70
     0
  0
ENDTAB
  0
TABLE
  2
LTYPE
  5
22
330
0
100
AcDbSymbolTable
 70
     1
  0
LTYPE
  5
23
330
21
100
AcDbSymbolTableRecord
100
AcDbLinetypeTableRecord
  2
BYBLOCK
 70
     0
  3

 72
    65
 73
     0
 40
0.0
  0
LTYPE
  5
24
330
21
100
AcDbSymbolTableRecord
100
AcDbLinetypeTableRecord
  2
BYLAYER
 70
     0
  3

 72
    65
 73
     0
 40
0.0
  0
LTYPE
  5
25
330
21
100
AcDbSymbolTableRecord
100
AcDbLinetypeTableRecord
  2
CONTINUOUS
 70
     0
  3
Solid line
 72
    65
 73
     0
 40
0.0
  0
ENDTAB
  0
TABLE
  2
LAYER
  5
A0D
330
0
100
AcDbSymbolTable
 70
6
  0
LAYER
  5
A0E
330
A0D
100
AcDbSymbolTableRecord
100
AcDbLayerTableRecord
  2
0
 70
   0
 62
   7
  6
CONTINUOUS
  0
LAYER
  5
A0F
330
A0D
100
AcDbSymbolTableRecord
100
AcDbLayerTableRecord
  2
ProjItem
 70
    0
 62
    7
  6
CONTINUOUS
  0
LAYER
  5
A10
330
A0D
100
AcDbSymbolTableRecord
100
AcDbLayerTableRecord
  2
ProjItem001
 70
    0
 62
    7
  6
CONTINUOUS
  0
LAYER
  5
A11
330
A0D
100
AcDbSymbolTableRecord
100
AcDbLayerTableRecord
  2
ProjItem002
 70
    0
 62
    7
  6
CONTINUOUS
  0
LAYER
  5
A12
330
A0D
100
AcDbSymbolTableRecord
100
AcDbLayerTableRecord
  2
ProjItem003
 70
    0
 62
    7
  6
CONTINUOUS
  0
LAYER
  5
A13
330
A0D
100
AcDbSymbolTableRecord
100
AcDbLayerTableRecord
  2
ProjItem004
 70
    0
 62
    7
  6
CONTINUOUS
  0
ENDTAB
  0
TABLE
  2
STYLE
  5
70
330
0
100
AcDbSymbolTable
 70
     2
  0
STYLE
  5
71
330
70
100
AcDbSymbolTableRecord
100
AcDbTextStyleTableRecord
  2
STANDARD
 70
     0
 40
0.0
 41
1.0
 50
0.0
 71
     0
 42
2.5
  3
arial.ttf
  4

  0
STYLE
  5
72
330
70
100
AcDbSymbolTableRecord
100
AcDbTextStyleTableRecord
  2
ANNOTATIVE
 70
     0
 40
0.0
 41
1.0
 50
0.0
 71
     0
 42
2.5
  3
arial.ttf
  4

  0
ENDTAB
  0
TABLE
  2
VIEW
  5
73
330
0
100
AcDbSymbolTable
 70
     0
  0
ENDTAB
  0
TABLE
  2
UCS
  5
74
330
0
100
AcDbSymbolTable
 70
     0
  0
ENDTAB
  0
TABLE
  2
APPID
  5
75
330
0
100
AcDbSymbolTable
 70
     2
  0
APPID
  5
76
330
75
100
AcDbSymbolTableRecord
100
AcDbRegAppTableRecord
  2
ACAD
 70
     0
  0
APPID
  5
77
330
75
100
AcDbSymbolTableRecord
100
AcDbRegAppTableRecord
  2
ACADANNOTATIVE
 70
     0
  0
ENDTAB
  0
TABLE
  2
DIMSTYLE
  5
78
330
0
100
AcDbSymbolTable
 70
     2
  0
DIMSTYLE
105
79
330
78
100
AcDbSymbolTableRecord
100
AcDbDimStyleTableRecord
  2
STANDARD
 70
     0
  3

  4

  5

  6

  7

 40
0.0
 41
2.5
 42
0.625
 43
3.75
 44
1.25
 45
0.0
 46
0.0
 47
0.0
 48
0.0
140
2.5
141
2.5
142
0.0
143
0.03937007874016
144
1.0
145
0.0
146
1.0
147
0.625
 71
     0
 72
     0
 73
     0
 74
     0
 75
     0
 76
     0
 77
     1
 78
     8
170
     0
171
     3
172
     1
173
     0
174
     0
175
     0
176
     0
177
     0
178
     0
270
     2
271
     2
272
     2
273
     2
274
     3
340
71
275
     0
280
     0
281
     0
282
     0
283
     0
284
     8
285
     0
286
     0
287
     3
288
     0
  0
ENDTAB
  0
TABLE
  2
BLOCK_RECORD
  5
A01
330
0
100
AcDbSymbolTable
  70
5
  0
BLOCK_RECORD
  5
A02
330
A01
100
AcDbSymbolTableRecord
100
AcDbBlockTableRecord
  2
*MODEL_SPACE
  0
BLOCK_RECORD
  5
A03
330
A01
100
AcDbSymbolTableRecord
100
AcDbBlockTableRecord
  2
*PAPER_SPACE
  0
ENDTAB
  0
ENDSEC
  0
SECTION
  2
BLOCKS
  0
BLOCK
  5
A04
330
A02
100
AcDbEntity
  8
0
100
AcDbBlockBegin
  2
*MODEL_SPACE
 70
   0
 10
0
 20
0
 30
0
  3
*MODEL_SPACE
  1
 
  0
ENDBLK
  5
A05
330
A02
100
AcDbEntity
  8
0
100
AcDbBlockEnd
  0
BLOCK
  5
A06
330
A03
100
AcDbEntity
 67
1
  8
0
100
AcDbBlockBegin
  2
*PAPER_SPACE
 70
   0
 10
0
 20
0
 30
0
  3
*PAPER_SPACE
  1
 
  0
ENDBLK
  5
A07
330
A03
100
AcDbEntity
 67
    1
  8
0
100
AcDbBlockEnd
  0
ENDSEC
  0
SECTION
  2
ENTITIES
  0
SPLINE
  5
A08
330
A02
100
AcDbEntity
  8
ProjItem
100
AcDbSpline
210
0
220
0
230
1
 70
9
 71
3
 72
125
 73
121
 74
0
 40
0
 40
0
 40
0
 40
0
 40
0.0357143
 40
0.0357143
 40
0.0357143
 40
0.0714286
 40
0.0714286
 40
0.0714286
 40
0.107143
 40
0.107143
 40
0.107143
 40
0.142857
 40
0.142857
 40
0.142857
 40
0.178571
 40
0.178571
 40
0.178571
 40
0.214286
 40
0.214286
 40
0.214286
 40
0.25
 40
0.25
 40
0.25
 40
0.285714
 40
0.285714
 40
0.285714
 40
0.321429
 40
0.321429
 40
0.321429
 40
0.357143
 40
0.357143
 40
0.357143
 40
0.392857
 40
0.392857
 40
0.392857
 40
0.428571
 40
0.428571
 40
0.428571
 40
0.446429
 40
0.446429
 40
0.446429
 40
0.464286
 40
0.464286
 40
0.464286
 40
0.482143
 40
0.482143
 40
0.482143
 40
0.5
 40
0.5
 40
0.5
 40
0.517857
 40
0.517857
 40
0.517857
 40
0.535714
 40
0.535714
 40
0.535714
 40
0.553571
 40
0.553571
 40
0.553571
 40
0.571429
 40
0.571429
 40
0.571429
 40
0.607143
 40
0.607143
 40
0.607143
 40
0.642857
 40
0.642857
 40
0.642857
 40
0.678571
 40
0.678571
 40
0.678571
 40
0.714286
 40
0.714286
 40
0.714286
 40
0.732143
 40
0.732143
 40
0.732143
 40
0.75
 40
0.75
 40
0.75
 40
0.767857
 40
0.767857
 40
0.767857
 40
0.785714
 40
0.785714
 40
0.785714
 40
0.803571
 40
0.803571
 40
0.803571
 40
0.821429
 40
0.821429
 40
0.821429
 40
0.839286
 40
0.839286
 40
0.839286
 40
0.857143
 40
0.857143
 40
0.857143
 40
0.875
 40
0.875
 40
0.875
 40
0.892857
 40
0.892857
 40
0.892857
 40
0.910714
 40
0.910714
 40
0.910714
 40
0.928571
 40
0.928571
 40
0.928571
 40
0.946429
 40
0.946429
 40
0.946429
 40
0.964286
 40
0.964286
 40
0.964286
 40
0.982143
 40
0.982143
 40
0.982143
 40
1
 40
1
 40
1
 40
1
 10
107.27
 20
393.137
 30
0
 10
115.982
 20
389.458
 30
0
 10
124.439
 20
385.585
 30
0
 10
132.327
 20
381.461
 30
0
 10
140.226
 20
377.334
 30
0
 10
147.556
 20
372.956
 30
0
 10
154.325
 20
368.175
 30
0
 10
161.105
 20
363.39
 30
0
 10
167.324
 20
358.202
 30
0
 10
173.313
 20
352.357
 30
0
 10
179.312
 20
346.51
 30
0
 10
185.081
 20
340.006
 30
0
 10
191.272
 20
332.497
 30
0
 10
197.467
 20
324.992
 30
0
 10
204.121
 20
316.439
 30
0
 10
210.622
 20
307.033
 30
0
 10
217.122
 20
297.638
 30
0
 10
223.469
 20
287.391
 30
0
 10
229.024
 20
276.806
 30
0
 10
234.577
 20
266.234
 30
0
 10
239.336
 20
255.324
 30
0
 10
242.63
 20
244.917
 30
0
 10
245.923
 20
234.522
 30
0
 10
247.751
 20
224.629
 30
0
 10
247.41
 20
216.398
 30
0
 10
247.071
 20
208.177
 30
0
 10
244.544
 20
201.631
 30
0
 10
240.215
 20
196.301
 30
0
 10
235.892
 20
190.978
 30
0
 10
229.767
 20
186.872
 30
0
 10
222.382
 20
183.726
 30
0
 10
215.002
 20
180.586
 30
0
 10
206.363
 20
178.407
 30
0
 10
197.163
 20
177.133
 30
0
 10
187.969
 20
175.865
 30
0
 10
178.215
 20
175.503
 30
0
 10
168.757
 20
176.192
 30
0
 10
164.029
 20
176.539
 30
0
 10
159.381
 20
177.152
 30
0
 10
154.848
 20
177.959
 30
0
 10
150.315
 20
178.768
 30
0
 10
145.898
 20
179.771
 30
0
 10
141.62
 20
180.917
 30
0
 10
137.341
 20
182.064
 30
0
 10
133.202
 20
183.353
 30
0
 10
129.212
 20
184.753
 30
0
 10
125.222
 20
186.155
 30
0
 10
121.38
 20
187.661
 30
0
 10
117.686
 20
189.27
 30
0
 10
113.994
 20
190.877
 30
0
 10
110.441
 20
192.583
 30
0
 10
107.027
 20
194.388
 30
0
 10
103.61
 20
196.195
 30
0
 10
100.324
 20
198.104
 30
0
 10
97.1397
 20
200.141
 30
0
 10
93.9555
 20
202.178
 30
0
 10
90.8735
 20
204.342
 30
0
 10
87.852
 20
206.678
 30
0
 10
84.8301
 20
209.014
 30
0
 10
81.8688
 20
211.522
 30
0
 10
78.9132
 20
214.265
 30
0
 10
72.999
 20
219.755
 30
0
 10
67.1166
 20
226.168
 30
0
 10
61.5555
 20
232.988
 30
0
 10
55.9895
 20
239.816
 30
0
 10
50.745
 20
247.051
 30
0
 10
45.9732
 20
254.421
 30
0
 10
41.1966
 20
261.799
 30
0
 10
36.8928
 20
269.312
 30
0
 10
33.075
 20
276.931
 30
0
 10
29.2524
 20
284.559
 30
0
 10
25.9158
 20
292.294
 30
0
 10
22.9402
 20
300.352
 30
0
 10
21.4517
 20
304.382
 30
0
 10
20.0466
 20
308.505
 30
0
 10
18.682
 20
312.788
 30
0
 10
17.3186
 20
317.069
 30
0
 10
15.9957
 20
321.51
 30
0
 10
14.7047
 20
326.129
 30
0
 10
13.4149
 20
330.746
 30
0
 10
12.157
 20
335.539
 30
0
 10
10.9563
 20
340.474
 30
0
 10
9.75688
 20
345.407
 30
0
 10
8.61475
 20
350.482
 30
0
 10
7.58948
 20
355.61
 30
0
 10
6.56544
 20
360.736
 30
0
 10
5.65826
 20
365.916
 30
0
 10
4.96164
 20
371.01
 30
0
 10
4.26624
 20
376.102
 30
0
 10
3.78139
 20
381.107
 30
0
 10
3.63491
 20
385.836
 30
0
 10
3.48964
 20
390.562
 30
0
 10
3.68274
 20
395.01
 30
0
 10
4.37612
 20
398.937
 30
0
 10
5.07072
 20
402.863
 30
0
 10
6.2656
 20
406.266
 30
0
 10
8.15681
 20
408.853
 30
0
 10
10.0492
 20
411.438
 30
0
 10
12.6382
 20
413.204
 30
0
 10
15.7189
 20
414.352
 30
0
 10
18.8007
 20
415.499
 30
0
 10
22.3743
 20
416.028
 30
0
 10
26.2664
 20
416.111
 30
0
 10
30.1596
 20
416.192
 30
0
 10
34.3712
 20
415.828
 30
0
 10
38.7596
 20
415.158
 30
0
 10
43.1491
 20
414.488
 30
0
 10
47.7153
 20
413.513
 30
0
 10
52.348
 20
412.344
 30
0
 10
56.9818
 20
411.175
 30
0
 10
61.6822
 20
409.812
 30
0
 10
66.3705
 20
408.337
 30
0
 10
71.0598
 20
406.861
 30
0
 10
75.7371
 20
405.273
 30
0
 10
80.3551
 20
403.625
 30
0
 10
84.9742
 20
401.975
 30
0
 10
89.5341
 20
400.265
 30
0
 10
94.0192
 20
398.516
 30
0
 10
98.5028
 20
396.767
 30
0
 10
102.92
 20
394.974
 30
0
 10
107.27
 20
393.137
 30
0
  0
SPLINE
  5
A09
330
A02
100
AcDbEntity
  8
ProjItem001
100
AcDbSpline
210
0
220
0
230
1
 70
9
 71
3
 72
125
 73
121
 74
0
 40
0
 40
0
 40
0
 40
0
 40
0.0357143
 40
0.0357143
 40
0.0357143
 40
0.0714286
 40
0.0714286
 40
0.0714286
 40
0.107143
 40
0.107143
 40
0.107143
 40
0.142857
 40
0.142857
 40
0.142857
 40
0.178571
 40
0.178571
 40
0.178571
 40
0.214286
 40
0.214286
 40
0.214286
 40
0.25
 40
0.25
 40
0.25
 40
0.285714
 40
0.285714
 40
0.285714
 40
0.321429
 40
0.321429
 40
0.321429
 40
0.357143
 40
0.357143
 40
0.357143
 40
0.392857
 40
0.392857
 40
0.392857
 40
0.428571
 40
0.428571
 40
0.428571
 40
0.446429
 40
0.446429
 40
0.446429
 40
0.464286
 40
0.464286
 40
0.464286
 40
0.482143
 40
0.482143
 40
0.482143
 40
0.5
 40
0.5
 40
0.5
 40
0.517857
 40
0.517857
 40
0.517857
 40
0.535714
 40
0.535714
 40
0.535714
 40
0.553571
 40
0.553571
 40
0.553571
 40
0.571429
 40
0.571429
 40
0.571429
 40
0.607143
 40
0.607143
 40
0.607143
 40
0.642857
 40
0.642857
 40
0.642857
 40
0.678571
 40
0.678571
 40
0.678571
 40
0.714286
 40
0.714286
 40
0.714286
 40
0.732143
 40
0.732143
 40
0.732143
 40
0.75
 40
0.75
 40
0.75
 40
0.767857
 40
0.767857
 40
0.767857
 40
0.785714
 40
0.785714
 40
0.785714
 40
0.803571
 40
0.803571
 40
0.803571
 40
0.821429
 40
0.821429
 40
0.821429
 40
0.839286
 40
0.839286
 40
0.839286
 40
0.857143
 40
0.857143
 40
0.857143
 40
0.875
 40
0.875
 40
0.875
 40
0.892857
 40
0.892857
 40
0.892857
 40
0.910714
 40
0.910714
 40
0.910714
 40
0.928571
 40
0.928571
 40
0.928571
 40
0.946429
 40
0.946429
 40
0.946429
 40
0.964286
 40
0.964286
 40
0.964286
 40
0.982143
 40
0.982143
 40
0.982143
 40
1
 40
1
 40
1
 40
1
 10
406.176
 20
392.538
 30
0
 10
397.463
 20
388.86
 30
0
 10
389.006
 20
384.986
 30
0
 10
381.118
 20
380.862
 30
0
 10
373.219
 20
376.735
 30
0
 10
365.889
 20
372.358
 30
0
 10
359.12
 20
367.576
 30
0
 10
352.34
 20
362.792
 30
0
 10
346.121
 20
357.603
 30
0
 10
340.133
 20
351.759
 30
0
 10
334.133
 20
345.911
 30
0
 10
328.364
 20
339.408
 30
0
 10
322.174
 20
331.899
 30
0
 10
315.978
 20
324.394
 30
0
 10
309.324
 20
315.841
 30
0
 10
302.823
 20
306.434
 30
0
 10
296.323
 20
297.04
 30
0
 10
289.976
 20
286.792
 30
0
 10
284.422
 20
276.208
 30
0
 10
278.869
 20
265.635
 30
0
 10
274.109
 20
254.726
 30
0
 10
270.815
 20
244.319
 30
0
 10
267.522
 20
233.923
 30
0
 10
265.694
 20
224.03
 30
0
 10
266.035
 20
215.8
 30
0
 10
266.374
 20
207.578
 30
0
 10
268.901
 20
201.032
 30
0
 10
273.23
 20
195.702
 30
0
 10
277.553
 20
190.38
 30
0
 10
283.678
 20
186.273
 30
0
 10
291.064
 20
183.127
 30
0
 10
298.443
 20
179.988
 30
0
 10
307.083
 20
177.808
 30
0
 10
316.282
 20
176.534
 30
0
 10
325.476
 20
175.267
 30
0
 10
335.231
 20
174.904
 30
0
 10
344.688
 20
175.593
 30
0
 10
349.416
 20
175.94
 30
0
 10
354.065
 20
176.553
 30
0
 10
358.597
 20
177.361
 30
0
 10
363.13
 20
178.169
 30
0
 10
367.547
 20
179.172
 30
0
 10
371.826
 20
180.318
 30
0
 10
376.104
 20
181.465
 30
0
 10
380.244
 20
182.755
 30
0
 10
384.233
 20
184.154
 30
0
 10
388.223
 20
185.557
 30
0
 10
392.065
 20
187.062
 30
0
 10
395.759
 20
188.672
 30
0
 10
399.451
 20
190.278
 30
0
 10
403.004
 20
191.984
 30
0
 10
406.418
 20
193.789
 30
0
 10
409.835
 20
195.596
 30
0
 10
413.122
 20
197.506
 30
0
 10
416.305
 20
199.542
 30
0
 10
419.49
 20
201.579
 30
0
 10
422.572
 20
203.743
 30
0
 10
425.593
 20
206.079
 30
0
 10
428.615
 20
208.416
 30
0
 10
431.576
 20
210.923
 30
0
 10
434.532
 20
213.666
 30
0
 10
440.446
 20
219.157
 30
0
 10
446.329
 20
225.57
 30
0
 10
451.89
 20
232.389
 30
0
 10
457.456
 20
239.218
 30
0
 10
462.7
 20
246.453
 30
0
 10
467.472
 20
253.822
 30
0
 10
472.249
 20
261.2
 30
0
 10
476.552
 20
268.713
 30
0
 10
480.37
 20
276.332
 30
0
 10
484.193
 20
283.961
 30
0
 10
487.529
 20
291.696
 30
0
 10
490.505
 20
299.753
 30
0
 10
491.993
 20
303.784
 30
0
 10
493.399
 20
307.906
 30
0
 10
494.763
 20
312.189
 30
0
 10
496.127
 20
316.47
 30
0
 10
497.449
 20
320.912
 30
0
 10
498.74
 20
325.53
 30
0
 10
500.03
 20
330.147
 30
0
 10
501.288
 20
334.941
 30
0
 10
502.489
 20
339.876
 30
0
 10
503.688
 20
344.809
 30
0
 10
504.83
 20
349.883
 30
0
 10
505.856
 20
355.011
 30
0
 10
506.88
 20
360.137
 30
0
 10
507.787
 20
365.317
 30
0
 10
508.483
 20
370.411
 30
0
 10
509.179
 20
375.503
 30
0
 10
509.664
 20
380.509
 30
0
 10
509.81
 20
385.237
 30
0
 10
509.955
 20
389.963
 30
0
 10
509.762
 20
394.412
 30
0
 10
509.069
 20
398.339
 30
0
 10
508.374
 20
402.264
 30
0
 10
507.18
 20
405.668
 30
0
 10
505.288
 20
408.254
 30
0
 10
503.396
 20
410.84
 30
0
 10
500.807
 20
412.605
 30
0
 10
497.726
 20
413.753
 30
0
 10
494.644
 20
414.9
 30
0
 10
491.071
 20
415.429
 30
0
 10
487.179
 20
415.512
 30
0
 10
483.286
 20
415.594
 30
0
 10
479.074
 20
415.229
 30
0
 10
474.686
 20
414.56
 30
0
 10
470.296
 20
413.889
 30
0
 10
465.73
 20
412.914
 30
0
 10
461.097
 20
411.746
 30
0
 10
456.463
 20
410.576
 30
0
 10
451.763
 20
409.213
 30
0
 10
447.075
 20
407.738
 30
0
 10
442.385
 20
406.262
 30
0
 10
437.708
 20
404.675
 30
0
 10
433.09
 20
403.026
 30
0
 10
428.471
 20
401.377
 30
0
 10
423.911
 20
399.666
 30
0
 10
419.426
 20
397.917
 30
0
 10
414.942
 20
396.168
 30
0
 10
410.526
 20
394.375
 30
0
 10
406.176
 20
392.538
 30
0
  0
SPLINE
  5
A0A
330
A02
100
AcDbEntity
  8
ProjItem002
100
AcDbSpline
210
0
220
0
230
1
 70
9
 71
3
 72
38
 73
34
 74
0
 40
0
 40
0
 40
0
 40
0
 40
0.0909091
 40
0.0909091
 40
0.0909091
 40
0.181818
 40
0.181818
 40
0.181818
 40
0.272727
 40
0.272727
 40
0.272727
 40
0.363636
 40
0.363636
 40
0.363636
 40
0.454545
 40
0.454545
 40
0.454545
 40
0.545455
 40
0.545455
 40
0.545455
 40
0.636364
 40
0.636364
 40
0.636364
 40
0.727273
 40
0.727273
 40
0.727273
 40
0.818182
 40
0.818182
 40
0.818182
 40
0.909091
 40
0.909091
 40
0.909091
 40
1
 40
1
 40
1
 40
1
 10
184.55
 20
156.876
 30
0
 10
172.9
 20
147.578
 30
0
 10
164.973
 20
137.385
 30
0
 10
158.925
 20
126.23
 30
0
 10
152.877
 20
115.075
 30
0
 10
148.709
 20
102.958
 30
0
 10
146.09
 20
89.7219
 30
0
 10
143.471
 20
76.4856
 30
0
 10
142.401
 20
62.1302
 30
0
 10
142.807
 20
46.9469
 30
0
 10
143.213
 20
31.7637
 30
0
 10
145.094
 20
15.7525
 30
0
 10
153.446
 20
11.0101
 30
0
 10
161.799
 20
6.26782
 30
0
 10
176.622
 20
12.7943
 30
0
 10
190.121
 20
21.0122
 30
0
 10
203.62
 20
29.2302
 30
0
 10
215.794
 20
39.1395
 30
0
 10
227.473
 20
51.314
 30
0
 10
239.152
 20
63.4885
 30
0
 10
250.336
 20
77.9282
 30
0
 10
260.174
 20
93.2171
 30
0
 10
270.013
 20
108.506
 30
0
 10
278.507
 20
124.644
 30
0
 10
285.444
 20
139.438
 30
0
 10
292.38
 20
154.231
 30
0
 10
297.76
 20
167.68
 30
0
 10
287.751
 20
174.713
 30
0
 10
277.742
 20
181.747
 30
0
 10
252.345
 20
182.365
 30
0
 10
231.96
 20
178.472
 30
0
 10
211.575
 20
174.579
 30
0
 10
196.201
 20
166.175
 30
0
 10
184.55
 20
156.876
 30
0
  0
SPLINE
  5
A0B
330
A02
100
AcDbEntity
  8
ProjItem003
100
AcDbSpline
210
0
220
0
230
1
 70
9
 71
3
 72
38
 73
34
 74
0
 40
0
 40
0
 40
0
 40
0
 40
0.0909091
 40
0.0909091
 40
0.0909091
 40
0.181818
 40
0.181818
 40
0.181818
 40
0.272727
 40
0.272727
 40
0.272727
 40
0.363636
 40
0.363636
 40
0.363636
 40
0.454545
 40
0.454545
 40
0.454545
 40
0.545455
 40
0.545455
 40
0.545455
 40
0.636364
 40
0.636364
 40
0.636364
 40
0.727273
 40
0.727273
 40
0.727273
 40
0.818182
 40
0.818182
 40
0.818182
 40
0.909091
 40
0.909091
 40
0.909091
 40
1
 40
1
 40
1
 40
1
 10
530.538
 20
174.693
 30
0
 10
542.189
 20
165.394
 30
0
 10
550.116
 20
155.201
 30
0
 10
556.164
 20
144.047
 30
0
 10
562.211
 20
132.892
 30
0
 10
566.379
 20
120.774
 30
0
 10
568.998
 20
107.538
 30
0
 10
571.617
 20
94.3019
 30
0
 10
572.687
 20
79.9465
 30
0
 10
572.282
 20
64.7632
 30
0
 10
571.876
 20
49.5799
 30
0
 10
569.995
 20
33.5687
 30
0
 10
561.642
 20
28.8264
 30
0
 10
553.29
 20
24.0841
 30
0
 10
538.467
 20
30.6106
 30
0
 10
524.968
 20
38.8285
 30
0
 10
511.469
 20
47.0464
 30
0
 10
499.294
 20
56.9557
 30
0
 10
487.615
 20
69.1302
 30
0
 10
475.936
 20
81.3047
 30
0
 10
464.753
 20
95.7444
 30
0
 10
454.914
 20
111.033
 30
0
 10
445.075
 20
126.322
 30
0
 10
436.582
 20
142.461
 30
0
 10
429.645
 20
157.254
 30
0
 10
422.708
 20
172.048
 30
0
 10
417.329
 20
185.496
 30
0
 10
427.338
 20
192.53
 30
0
 10
437.346
 20
199.563
 30
0
 10
462.743
 20
200.182
 30
0
 10
483.129
 20
196.289
 30
0
 10
503.514
 20
192.396
 30
0
 10
518.888
 20
183.991
 30
0
 10
530.538
 20
174.693
 30
0
  0
SPLINE
  5
A0C
330
A02
100
AcDbEntity
  8
ProjItem004
100
AcDbSpline
210
0
220
0
230
1
 70
9
 71
3
 72
38
 73
34
 74
0
 40
0
 40
0
 40
0
 40
0
 40
0.0909091
 40
0.0909091
 40
0.0909091
 40
0.181818
 40
0.181818
 40
0.181818
 40
0.272727
 40
0.272727
 40
0.272727
 40
0.363636
 40
0.363636
 40
0.363636
 40
0.454545
 40
0.454545
 40
0.454545
 40
0.545455
 40
0.545455
 40
0.545455
 40
0.636364
 40
0.636364
 40
0.636364
 40
0.727273
 40
0.727273
 40
0.727273
 40
0.818182
 40
0.818182
 40
0.818182
 40
0.909091
 40
0.909091
 40
0.909091
 40
1
 40
1
 40
1
 40
1
 10
312.151
 20
144.835
 30
0
 10
310.484
 20
134.835
 30
0
 10
310.484
 20
118.168
 30
0
 10
307.151
 20
106.502
 30
0
 10
303.818
 20
94.8349
 30
0
 10
297.151
 20
88.1682
 30
0
 10
297.151
 20
79.8349
 30
0
 10
297.151
 20
71.5015
 30
0
 10
303.818
 20
61.5015
 30
0
 10
308.818
 20
49.8349
 30
0
 10
313.818
 20
38.1682
 30
0
 10
317.151
 20
24.8349
 30
0
 10
320.484
 20
24.8349
 30
0
 10
323.818
 20
24.8349
 30
0
 10
327.151
 20
38.1682
 30
0
 10
332.151
 20
49.8349
 30
0
 10
337.151
 20
61.5015
 30
0
 10
343.818
 20
71.5015
 30
0
 10
343.818
 20
79.8349
 30
0
 10
343.818
 20
88.1682
 30
0
 10
337.151
 20
94.8349
 30
0
 10
333.818
 20
106.502
 30
0
 10
330.484
 20
118.168
 30
0
 10
330.484
 20
134.835
 30
0
 10
328.818
 20
144.835
 30
0
 10
327.151
 20
154.835
 30
0
 10
323.818
 20
158.168
 30
0
 10
322.151
 20
159.835
 30
0
 10
320.484
 20
161.502
 30
0
 10
320.484
 20
161.502
 30
0
 10
318.818
 20
159.835
 30
0
 10
317.151
 20
158.168
 30
0
 10
313.818
 20
154.835
 30
0
 10
312.151
 20
144.835
 30
0
  0
ENDSEC
  0
SECTION
  2
OBJECTS
  0
DICTIONARY
  5
F000
330
0
100
AcDbDictionary
  3
ACAD_GROUP
350
F001
  0
DICTIONARY
  5
F001
330
F000
100
AcDbDictionary
  0
ENDSEC
  0
EOF