999
FreeCAD v0.19 14555 (Git shallow)
  0
SECTION
  2
HEADER
  9
$ACADVER
  1
AC1014
  9
$ACADMAINTVER
 70
     9
  9
$DWGCODEPAGE
  3
ANSI_1252
  9
$TEXTSTYLE
  7
STANDARD
  9
$DIMSTYLE
  2
STANDARD
  9
$DIMTXSTY
  7
STANDARD
  9
$CMLSTYLE
  2
STANDARD
  9
$PEXTMAX
 10
50
 20
50
 30
50
  9
$PEXTMIN
 10
0
 20
0
 30
0
  9
$HANDSEED
  5
FFFF
  0
ENDSEC
  0
SECTION
  2
CLASSES
  0
CLASS
  1
ACDBDICTIONARYWDFLT
  2
AcDbDictionaryWithDefault
  3
ObjectDBX Classes
 90
        0
280
     0
281
     0
  0
CLASS
  1
XRECORD
  2
AcDbXrecord
  3
ObjectDBX Classes
 90
        0
280
     0
281
     0
  0
CLASS
  1
LWPOLYLINE
  2
AcDbPolyline
  3
ObjectDBX Classes
 90
        0
280
     0
281
     1
  0
ENDSEC
  0
SECTION
  2
TABLES
  0
TABLE
  2
VPORT
  5
20
330
0
100
AcDbSymbolTable
 70
     1
  0
VPORT
  5
21
330
20
100
AcDbSymbolTableRecord
100
AcDbViewportTableRecord
  2
*ACTIVE
 70
     0
  0
ENDTAB
  0
TABLE
  2
LTYPE
  5
22
330
0
100
AcDbSymbolTable
 70
     1
  0
LTYPE
  5
23
330
21
100
AcDbSymbolTableRecord
100
AcDbLinetypeTableRecord
  2
BYBLOCK
 70
     0
  3

 72
    65
 73
     0
 40
0.0
  0
LTYPE
  5
24
330
21
100
AcDbSymbolTableRecord
100
AcDbLinetypeTableRecord
  2
BYLAYER
 70
     0
  3

 72
    65
 73
     0
 40
0.0
  0
LTYPE
  5
25
330
21
100
AcDbSymbolTableRecord
100
AcDbLinetypeTableRecord
  2
CONTINUOUS
 70
     0
  3
Solid line
 72
    65
 73
     0
 40
0.0
  0
ENDTAB
  0
TABLE
  2
LAYER
  5
AC2
330
0
100
AcDbSymbolTable
 70
4
  0
LAYER
  5
AC3
330
AC2
100
AcDbSymbolTableRecord
100
AcDbLayerTableRecord
  2
0
 70
   0
 62
   7
  6
CONTINUOUS
  0
LAYER
  5
AC4
330
AC2
100
AcDbSymbolTableRecord
100
AcDbLayerTableRecord
  2
ProjItem
 70
    0
 62
    7
  6
CONTINUOUS
  0
LAYER
  5
AC5
330
AC2
100
AcDbSymbolTableRecord
100
AcDbLayerTableRecord
  2
ProjItem001
 70
    0
 62
    7
  6
CONTINUOUS
  0
LAYER
  5
AC6
330
AC2
100
AcDbSymbolTableRecord
100
AcDbLayerTableRecord
  2
ProjItem002
 70
    0
 62
    7
  6
CONTINUOUS
  0
ENDTAB
  0
TABLE
  2
STYLE
  5
70
330
0
100
AcDbSymbolTable
 70
     2
  0
STYLE
  5
71
330
70
100
AcDbSymbolTableRecord
100
AcDbTextStyleTableRecord
  2
STANDARD
 70
     0
 40
0.0
 41
1.0
 50
0.0
 71
     0
 42
2.5
  3
arial.ttf
  4

  0
STYLE
  5
72
330
70
100
AcDbSymbolTableRecord
100
AcDbTextStyleTableRecord
  2
ANNOTATIVE
 70
     0
 40
0.0
 41
1.0
 50
0.0
 71
     0
 42
2.5
  3
arial.ttf
  4

  0
ENDTAB
  0
TABLE
  2
VIEW
  5
73
330
0
100
AcDbSymbolTable
 70
     0
  0
ENDTAB
  0
TABLE
  2
UCS
  5
74
330
0
100
AcDbSymbolTable
 70
     0
  0
ENDTAB
  0
TABLE
  2
APPID
  5
75
330
0
100
AcDbSymbolTable
 70
     2
  0
APPID
  5
76
330
75
100
AcDbSymbolTableRecord
100
AcDbRegAppTableRecord
  2
ACAD
 70
     0
  0
APPID
  5
77
330
75
100
AcDbSymbolTableRecord
100
AcDbRegAppTableRecord
  2
ACADANNOTATIVE
 70
     0
  0
ENDTAB
  0
TABLE
  2
DIMSTYLE
  5
78
330
0
100
AcDbSymbolTable
 70
     2
  0
DIMSTYLE
105
79
330
78
100
AcDbSymbolTableRecord
100
AcDbDimStyleTableRecord
  2
STANDARD
 70
     0
  3

  4

  5

  6

  7

 40
0.0
 41
2.5
 42
0.625
 43
3.75
 44
1.25
 45
0.0
 46
0.0
 47
0.0
 48
0.0
140
2.5
141
2.5
142
0.0
143
0.03937007874016
144
1.0
145
0.0
146
1.0
147
0.625
 71
     0
 72
     0
 73
     0
 74
     0
 75
     0
 76
     0
 77
     1
 78
     8
170
     0
171
     3
172
     1
173
     0
174
     0
175
     0
176
     0
177
     0
178
     0
270
     2
271
     2
272
     2
273
     2
274
     3
340
71
275
     0
280
     0
281
     0
282
     0
283
     0
284
     8
285
     0
286
     0
287
     3
288
     0
  0
ENDTAB
  0
TABLE
  2
BLOCK_RECORD
  5
A01
330
0
100
AcDbSymbolTable
  70
5
  0
BLOCK_RECORD
  5
A02
330
A01
100
AcDbSymbolTableRecord
100
AcDbBlockTableRecord
  2
*MODEL_SPACE
  0
BLOCK_RECORD
  5
A03
330
A01
100
AcDbSymbolTableRecord
100
AcDbBlockTableRecord
  2
*PAPER_SPACE
  0
ENDTAB
  0
ENDSEC
  0
SECTION
  2
BLOCKS
  0
BLOCK
  5
A04
330
A02
100
AcDbEntity
  8
0
100
AcDbBlockBegin
  2
*MODEL_SPACE
 70
   0
 10
0
 20
0
 30
0
  3
*MODEL_SPACE
  1
 
  0
ENDBLK
  5
A05
330
A02
100
AcDbEntity
  8
0
100
AcDbBlockEnd
  0
BLOCK
  5
A06
330
A03
100
AcDbEntity
 67
1
  8
0
100
AcDbBlockBegin
  2
*PAPER_SPACE
 70
   0
 10
0
 20
0
 30
0
  3
*PAPER_SPACE
  1
 
  0
ENDBLK
  5
A07
330
A03
100
AcDbEntity
 67
    1
  8
0
100
AcDbBlockEnd
  0
ENDSEC
  0
SECTION
  2
ENTITIES
  0
LINE
  5
A08
330
A02
100
AcDbEntity
  8
ProjItem
100
AcDbLine
 10
108.95
 20
266.534
 30
0
 11
108.95
 21
269.485
 31
0
  0
LINE
  5
A09
330
A02
100
AcDbEntity
  8
ProjItem
100
AcDbLine
 10
88.9501
 20
266.534
 30
0
 11
108.95
 21
266.534
 31
0
  0
LINE
  5
A0A
330
A02
100
AcDbEntity
  8
ProjItem
100
AcDbLine
 10
88.9501
 20
269.485
 30
0
 11
88.9501
 21
266.534
 31
0
  0
LINE
  5
A0B
330
A02
100
AcDbEntity
  8
ProjItem
100
AcDbLine
 10
88.9501
 20
269.485
 30
0
 11
88.9501
 21
266.534
 31
0
  0
LINE
  5
A0C
330
A02
100
AcDbEntity
  8
ProjItem
100
AcDbLine
 10
88.9501
 20
266.534
 30
0
 11
108.95
 21
266.534
 31
0
  0
LINE
  5
A0D
330
A02
100
AcDbEntity
  8
ProjItem
100
AcDbLine
 10
108.95
 20
266.534
 30
0
 11
108.95
 21
269.485
 31
0
  0
LINE
  5
A0E
330
A02
100
AcDbEntity
  8
ProjItem
100
AcDbLine
 10
136.45
 20
269.485
 30
0
 11
108.95
 21
269.485
 31
0
  0
LINE
  5
A0F
330
A02
100
AcDbEntity
  8
ProjItem
100
AcDbLine
 10
150.2
 20
245.67
 30
0
 11
136.45
 21
269.485
 31
0
  0
LINE
  5
A10
330
A02
100
AcDbEntity
  8
ProjItem
100
AcDbLine
 10
150.2
 20
245.67
 30
0
 11
147.644
 21
244.194
 31
0
  0
LINE
  5
A11
330
A02
100
AcDbEntity
  8
ProjItem
100
AcDbLine
 10
147.644
 20
244.194
 30
0
 11
157.644
 21
226.873
 31
0
  0
LINE
  5
A12
330
A02
100
AcDbEntity
  8
ProjItem
100
AcDbLine
 10
157.644
 20
226.873
 30
0
 11
160.2
 21
228.349
 31
0
  0
LINE
  5
A13
330
A02
100
AcDbEntity
  8
ProjItem
100
AcDbLine
 10
173.95
 20
204.534
 30
0
 11
160.2
 21
228.349
 31
0
  0
LINE
  5
A14
330
A02
100
AcDbEntity
  8
ProjItem
100
AcDbLine
 10
160.2
 20
180.718
 30
0
 11
173.95
 21
204.534
 31
0
  0
LINE
  5
A15
330
A02
100
AcDbEntity
  8
ProjItem
100
AcDbLine
 10
160.2
 20
180.718
 30
0
 11
157.644
 21
182.194
 31
0
  0
LINE
  5
A16
330
A02
100
AcDbEntity
  8
ProjItem
100
AcDbLine
 10
157.644
 20
182.194
 30
0
 11
147.644
 21
164.873
 31
0
  0
LINE
  5
A17
330
A02
100
AcDbEntity
  8
ProjItem
100
AcDbLine
 10
147.644
 20
164.873
 30
0
 11
150.2
 21
163.397
 31
0
  0
LINE
  5
A18
330
A02
100
AcDbEntity
  8
ProjItem
100
AcDbLine
 10
136.45
 20
139.582
 30
0
 11
150.2
 21
163.397
 31
0
  0
LINE
  5
A19
330
A02
100
AcDbEntity
  8
ProjItem
100
AcDbLine
 10
108.95
 20
139.582
 30
0
 11
136.45
 21
139.582
 31
0
  0
LINE
  5
A1A
330
A02
100
AcDbEntity
  8
ProjItem
100
AcDbLine
 10
108.95
 20
139.582
 30
0
 11
108.95
 21
142.534
 31
0
  0
LINE
  5
A1B
330
A02
100
AcDbEntity
  8
ProjItem
100
AcDbLine
 10
108.95
 20
142.534
 30
0
 11
88.9501
 21
142.534
 31
0
  0
LINE
  5
A1C
330
A02
100
AcDbEntity
  8
ProjItem
100
AcDbLine
 10
88.9501
 20
142.534
 30
0
 11
88.9501
 21
139.582
 31
0
  0
LINE
  5
A1D
330
A02
100
AcDbEntity
  8
ProjItem
100
AcDbLine
 10
61.4501
 20
139.582
 30
0
 11
88.9501
 21
139.582
 31
0
  0
LINE
  5
A1E
330
A02
100
AcDbEntity
  8
ProjItem
100
AcDbLine
 10
47.7001
 20
163.397
 30
0
 11
61.4501
 21
139.582
 31
0
  0
LINE
  5
A1F
330
A02
100
AcDbEntity
  8
ProjItem
100
AcDbLine
 10
47.7001
 20
163.397
 30
0
 11
50.2565
 21
164.873
 31
0
  0
LINE
  5
A20
330
A02
100
AcDbEntity
  8
ProjItem
100
AcDbLine
 10
50.2565
 20
164.873
 30
0
 11
40.2565
 21
182.194
 31
0
  0
LINE
  5
A21
330
A02
100
AcDbEntity
  8
ProjItem
100
AcDbLine
 10
40.2565
 20
182.194
 30
0
 11
37.7001
 21
180.718
 31
0
  0
LINE
  5
A22
330
A02
100
AcDbEntity
  8
ProjItem
100
AcDbLine
 10
23.9501
 20
204.534
 30
0
 11
37.7001
 21
180.718
 31
0
  0
LINE
  5
A23
330
A02
100
AcDbEntity
  8
ProjItem
100
AcDbLine
 10
37.7001
 20
228.349
 30
0
 11
23.9501
 21
204.534
 31
0
  0
LINE
  5
A24
330
A02
100
AcDbEntity
  8
ProjItem
100
AcDbLine
 10
37.7001
 20
228.349
 30
0
 11
40.2565
 21
226.873
 31
0
  0
LINE
  5
A25
330
A02
100
AcDbEntity
  8
ProjItem
100
AcDbLine
 10
40.2565
 20
226.873
 30
0
 11
50.2565
 21
244.194
 31
0
  0
LINE
  5
A26
330
A02
100
AcDbEntity
  8
ProjItem
100
AcDbLine
 10
50.2565
 20
244.194
 30
0
 11
47.7001
 21
245.67
 31
0
  0
LINE
  5
A27
330
A02
100
AcDbEntity
  8
ProjItem
100
AcDbLine
 10
61.4501
 20
269.485
 30
0
 11
47.7001
 21
245.67
 31
0
  0
LINE
  5
A28
330
A02
100
AcDbEntity
  8
ProjItem
100
AcDbLine
 10
88.9501
 20
269.485
 30
0
 11
61.4501
 21
269.485
 31
0
  0
LINE
  5
A29
330
A02
100
AcDbEntity
  8
ProjItem001
100
AcDbLine
 10
61.4061
 20
134.775
 30
0
 11
88.8061
 21
134.775
 31
0
  0
LINE
  5
A2A
330
A02
100
AcDbEntity
  8
ProjItem001
100
AcDbLine
 10
88.8061
 20
134.775
 30
0
 11
88.8061
 21
137.775
 31
0
  0
LINE
  5
A2B
330
A02
100
AcDbEntity
  8
ProjItem001
100
AcDbLine
 10
88.8061
 20
137.775
 30
0
 11
109.006
 21
137.775
 31
0
  0
LINE
  5
A2C
330
A02
100
AcDbEntity
  8
ProjItem001
100
AcDbLine
 10
109.006
 20
137.775
 30
0
 11
109.006
 21
134.775
 31
0
  0
LINE
  5
A2D
330
A02
100
AcDbEntity
  8
ProjItem001
100
AcDbLine
 10
109.006
 20
134.775
 30
0
 11
136.406
 21
134.775
 31
0
  0
LINE
  5
A2E
330
A02
100
AcDbEntity
  8
ProjItem001
100
AcDbLine
 10
136.406
 20
134.775
 30
0
 11
136.406
 21
129.875
 31
0
  0
LINE
  5
A2F
330
A02
100
AcDbEntity
  8
ProjItem001
100
AcDbLine
 10
136.406
 20
129.875
 30
0
 11
139.406
 21
129.875
 31
0
  0
LINE
  5
A30
330
A02
100
AcDbEntity
  8
ProjItem001
100
AcDbLine
 10
139.406
 20
129.875
 30
0
 11
139.406
 21
124.675
 31
0
  0
LINE
  5
A31
330
A02
100
AcDbEntity
  8
ProjItem001
100
AcDbLine
 10
139.406
 20
124.675
 30
0
 11
136.406
 21
124.675
 31
0
  0
LINE
  5
A32
330
A02
100
AcDbEntity
  8
ProjItem001
100
AcDbLine
 10
136.406
 20
124.675
 30
0
 11
136.406
 21
119.775
 31
0
  0
LINE
  5
A33
330
A02
100
AcDbEntity
  8
ProjItem001
100
AcDbLine
 10
136.406
 20
119.775
 30
0
 11
109.006
 21
119.775
 31
0
  0
LINE
  5
A34
330
A02
100
AcDbEntity
  8
ProjItem001
100
AcDbLine
 10
109.006
 20
119.775
 30
0
 11
109.006
 21
116.775
 31
0
  0
LINE
  5
A35
330
A02
100
AcDbEntity
  8
ProjItem001
100
AcDbLine
 10
109.006
 20
116.775
 30
0
 11
88.8061
 21
116.775
 31
0
  0
LINE
  5
A36
330
A02
100
AcDbEntity
  8
ProjItem001
100
AcDbLine
 10
88.8061
 20
116.775
 30
0
 11
88.8061
 21
119.775
 31
0
  0
LINE
  5
A37
330
A02
100
AcDbEntity
  8
ProjItem001
100
AcDbLine
 10
88.8061
 20
119.775
 30
0
 11
61.4061
 21
119.775
 31
0
  0
LINE
  5
A38
330
A02
100
AcDbEntity
  8
ProjItem001
100
AcDbLine
 10
61.4061
 20
119.775
 30
0
 11
61.4061
 21
124.775
 31
0
  0
LINE
  5
A39
330
A02
100
AcDbEntity
  8
ProjItem001
100
AcDbLine
 10
61.4061
 20
124.775
 30
0
 11
64.4061
 21
124.775
 31
0
  0
LINE
  5
A3A
330
A02
100
AcDbEntity
  8
ProjItem001
100
AcDbLine
 10
64.4061
 20
124.775
 30
0
 11
64.4061
 21
129.775
 31
0
  0
LINE
  5
A3B
330
A02
100
AcDbEntity
  8
ProjItem001
100
AcDbLine
 10
64.4061
 20
129.775
 30
0
 11
61.4061
 21
129.775
 31
0
  0
LINE
  5
A3C
330
A02
100
AcDbEntity
  8
ProjItem001
100
AcDbLine
 10
61.4061
 20
129.775
 30
0
 11
61.4061
 21
134.775
 31
0
  0
LINE
  5
A3D
330
A02
100
AcDbEntity
  8
ProjItem001
100
AcDbLine
 10
140.778
 20
137.299
 30
0
 11
154.478
 21
161.028
 31
0
  0
LINE
  5
A3E
330
A02
100
AcDbEntity
  8
ProjItem001
100
AcDbLine
 10
154.478
 20
161.028
 30
0
 11
151.88
 21
162.528
 31
0
  0
LINE
  5
A3F
330
A02
100
AcDbEntity
  8
ProjItem001
100
AcDbLine
 10
151.88
 20
162.528
 30
0
 11
161.98
 21
180.021
 31
0
  0
LINE
  5
A40
330
A02
100
AcDbEntity
  8
ProjItem001
100
AcDbLine
 10
161.98
 20
180.021
 30
0
 11
164.578
 21
178.521
 31
0
  0
LINE
  5
A41
330
A02
100
AcDbEntity
  8
ProjItem001
100
AcDbLine
 10
164.578
 20
178.521
 30
0
 11
178.278
 21
202.25
 31
0
  0
LINE
  5
A42
330
A02
100
AcDbEntity
  8
ProjItem001
100
AcDbLine
 10
178.278
 20
202.25
 30
0
 11
182.521
 21
199.8
 31
0
  0
LINE
  5
A43
330
A02
100
AcDbEntity
  8
ProjItem001
100
AcDbLine
 10
182.521
 20
199.8
 30
0
 11
184.021
 21
202.399
 31
0
  0
LINE
  5
A44
330
A02
100
AcDbEntity
  8
ProjItem001
100
AcDbLine
 10
184.021
 20
202.399
 30
0
 11
188.525
 21
199.799
 31
0
  0
LINE
  5
A45
330
A02
100
AcDbEntity
  8
ProjItem001
100
AcDbLine
 10
188.525
 20
199.799
 30
0
 11
187.025
 21
197.2
 31
0
  0
LINE
  5
A46
330
A02
100
AcDbEntity
  8
ProjItem001
100
AcDbLine
 10
187.025
 20
197.2
 30
0
 11
191.268
 21
194.75
 31
0
  0
LINE
  5
A47
330
A02
100
AcDbEntity
  8
ProjItem001
100
AcDbLine
 10
191.268
 20
194.75
 30
0
 11
177.568
 21
171.021
 31
0
  0
LINE
  5
A48
330
A02
100
AcDbEntity
  8
ProjItem001
100
AcDbLine
 10
177.568
 20
171.021
 30
0
 11
180.166
 21
169.521
 31
0
  0
LINE
  5
A49
330
A02
100
AcDbEntity
  8
ProjItem001
100
AcDbLine
 10
180.166
 20
169.521
 30
0
 11
170.066
 21
152.028
 31
0
  0
LINE
  5
A4A
330
A02
100
AcDbEntity
  8
ProjItem001
100
AcDbLine
 10
170.066
 20
152.028
 30
0
 11
167.468
 21
153.528
 31
0
  0
LINE
  5
A4B
330
A02
100
AcDbEntity
  8
ProjItem001
100
AcDbLine
 10
167.468
 20
153.528
 30
0
 11
153.768
 21
129.799
 31
0
  0
LINE
  5
A4C
330
A02
100
AcDbEntity
  8
ProjItem001
100
AcDbLine
 10
153.768
 20
129.799
 30
0
 11
149.438
 21
132.299
 31
0
  0
LINE
  5
A4D
330
A02
100
AcDbEntity
  8
ProjItem001
100
AcDbLine
 10
149.438
 20
132.299
 30
0
 11
150.938
 21
134.897
 31
0
  0
LINE
  5
A4E
330
A02
100
AcDbEntity
  8
ProjItem001
100
AcDbLine
 10
150.938
 20
134.897
 30
0
 11
146.608
 21
137.397
 31
0
  0
LINE
  5
A4F
330
A02
100
AcDbEntity
  8
ProjItem001
100
AcDbLine
 10
146.608
 20
137.397
 30
0
 11
145.108
 21
134.799
 31
0
  0
LINE
  5
A50
330
A02
100
AcDbEntity
  8
ProjItem001
100
AcDbLine
 10
145.108
 20
134.799
 30
0
 11
140.778
 21
137.299
 31
0
  0
LINE
  5
A51
330
A02
100
AcDbEntity
  8
ProjItem001
100
AcDbLine
 10
178.278
 20
207.299
 30
0
 11
164.578
 21
231.028
 31
0
  0
LINE
  5
A52
330
A02
100
AcDbEntity
  8
ProjItem001
100
AcDbLine
 10
164.578
 20
231.028
 30
0
 11
161.98
 21
229.528
 31
0
  0
LINE
  5
A53
330
A02
100
AcDbEntity
  8
ProjItem001
100
AcDbLine
 10
161.98
 20
229.528
 30
0
 11
151.88
 21
247.021
 31
0
  0
LINE
  5
A54
330
A02
100
AcDbEntity
  8
ProjItem001
100
AcDbLine
 10
151.88
 20
247.021
 30
0
 11
154.478
 21
248.521
 31
0
  0
LINE
  5
A55
330
A02
100
AcDbEntity
  8
ProjItem001
100
AcDbLine
 10
154.478
 20
248.521
 30
0
 11
140.778
 21
272.25
 31
0
  0
LINE
  5
A56
330
A02
100
AcDbEntity
  8
ProjItem001
100
AcDbLine
 10
140.778
 20
272.25
 30
0
 11
145.021
 21
274.7
 31
0
  0
LINE
  5
A57
330
A02
100
AcDbEntity
  8
ProjItem001
100
AcDbLine
 10
145.021
 20
274.7
 30
0
 11
143.521
 21
277.299
 31
0
  0
LINE
  5
A58
330
A02
100
AcDbEntity
  8
ProjItem001
100
AcDbLine
 10
143.521
 20
277.299
 30
0
 11
148.025
 21
279.899
 31
0
  0
LINE
  5
A59
330
A02
100
AcDbEntity
  8
ProjItem001
100
AcDbLine
 10
148.025
 20
279.899
 30
0
 11
149.525
 21
277.3
 31
0
  0
LINE
  5
A5A
330
A02
100
AcDbEntity
  8
ProjItem001
100
AcDbLine
 10
149.525
 20
277.3
 30
0
 11
153.768
 21
279.75
 31
0
  0
LINE
  5
A5B
330
A02
100
AcDbEntity
  8
ProjItem001
100
AcDbLine
 10
153.768
 20
279.75
 30
0
 11
167.468
 21
256.021
 31
0
  0
LINE
  5
A5C
330
A02
100
AcDbEntity
  8
ProjItem001
100
AcDbLine
 10
167.468
 20
256.021
 30
0
 11
170.066
 21
257.521
 31
0
  0
LINE
  5
A5D
330
A02
100
AcDbEntity
  8
ProjItem001
100
AcDbLine
 10
170.066
 20
257.521
 30
0
 11
180.166
 21
240.028
 31
0
  0
LINE
  5
A5E
330
A02
100
AcDbEntity
  8
ProjItem001
100
AcDbLine
 10
180.166
 20
240.028
 30
0
 11
177.568
 21
238.528
 31
0
  0
LINE
  5
A5F
330
A02
100
AcDbEntity
  8
ProjItem001
100
AcDbLine
 10
177.568
 20
238.528
 30
0
 11
191.268
 21
214.799
 31
0
  0
LINE
  5
A60
330
A02
100
AcDbEntity
  8
ProjItem001
100
AcDbLine
 10
191.268
 20
214.799
 30
0
 11
186.938
 21
212.299
 31
0
  0
LINE
  5
A61
330
A02
100
AcDbEntity
  8
ProjItem001
100
AcDbLine
 10
186.938
 20
212.299
 30
0
 11
185.438
 21
214.897
 31
0
  0
LINE
  5
A62
330
A02
100
AcDbEntity
  8
ProjItem001
100
AcDbLine
 10
185.438
 20
214.897
 30
0
 11
181.108
 21
212.397
 31
0
  0
LINE
  5
A63
330
A02
100
AcDbEntity
  8
ProjItem001
100
AcDbLine
 10
181.108
 20
212.397
 30
0
 11
182.608
 21
209.799
 31
0
  0
LINE
  5
A64
330
A02
100
AcDbEntity
  8
ProjItem001
100
AcDbLine
 10
182.608
 20
209.799
 30
0
 11
178.278
 21
207.299
 31
0
  0
LINE
  5
A65
330
A02
100
AcDbEntity
  8
ProjItem001
100
AcDbLine
 10
136.406
 20
274.775
 30
0
 11
109.006
 21
274.775
 31
0
  0
LINE
  5
A66
330
A02
100
AcDbEntity
  8
ProjItem001
100
AcDbLine
 10
109.006
 20
274.775
 30
0
 11
109.006
 21
271.775
 31
0
  0
LINE
  5
A67
330
A02
100
AcDbEntity
  8
ProjItem001
100
AcDbLine
 10
109.006
 20
271.775
 30
0
 11
88.8061
 21
271.775
 31
0
  0
LINE
  5
A68
330
A02
100
AcDbEntity
  8
ProjItem001
100
AcDbLine
 10
88.8061
 20
271.775
 30
0
 11
88.8061
 21
274.775
 31
0
  0
LINE
  5
A69
330
A02
100
AcDbEntity
  8
ProjItem001
100
AcDbLine
 10
88.8061
 20
274.775
 30
0
 11
61.4061
 21
274.775
 31
0
  0
LINE
  5
A6A
330
A02
100
AcDbEntity
  8
ProjItem001
100
AcDbLine
 10
61.4061
 20
274.775
 30
0
 11
61.4061
 21
279.675
 31
0
  0
LINE
  5
A6B
330
A02
100
AcDbEntity
  8
ProjItem001
100
AcDbLine
 10
61.4061
 20
279.675
 30
0
 11
58.4061
 21
279.675
 31
0
  0
LINE
  5
A6C
330
A02
100
AcDbEntity
  8
ProjItem001
100
AcDbLine
 10
58.4061
 20
279.675
 30
0
 11
58.4061
 21
284.875
 31
0
  0
LINE
  5
A6D
330
A02
100
AcDbEntity
  8
ProjItem001
100
AcDbLine
 10
58.4061
 20
284.875
 30
0
 11
61.4061
 21
284.875
 31
0
  0
LINE
  5
A6E
330
A02
100
AcDbEntity
  8
ProjItem001
100
AcDbLine
 10
61.4061
 20
284.875
 30
0
 11
61.4061
 21
289.775
 31
0
  0
LINE
  5
A6F
330
A02
100
AcDbEntity
  8
ProjItem001
100
AcDbLine
 10
61.4061
 20
289.775
 30
0
 11
88.8061
 21
289.775
 31
0
  0
LINE
  5
A70
330
A02
100
AcDbEntity
  8
ProjItem001
100
AcDbLine
 10
88.8061
 20
289.775
 30
0
 11
88.8061
 21
292.775
 31
0
  0
LINE
  5
A71
330
A02
100
AcDbEntity
  8
ProjItem001
100
AcDbLine
 10
88.8061
 20
292.775
 30
0
 11
109.006
 21
292.775
 31
0
  0
LINE
  5
A72
330
A02
100
AcDbEntity
  8
ProjItem001
100
AcDbLine
 10
109.006
 20
292.775
 30
0
 11
109.006
 21
289.775
 31
0
  0
LINE
  5
A73
330
A02
100
AcDbEntity
  8
ProjItem001
100
AcDbLine
 10
109.006
 20
289.775
 30
0
 11
136.406
 21
289.775
 31
0
  0
LINE
  5
A74
330
A02
100
AcDbEntity
  8
ProjItem001
100
AcDbLine
 10
136.406
 20
289.775
 30
0
 11
136.406
 21
284.775
 31
0
  0
LINE
  5
A75
330
A02
100
AcDbEntity
  8
ProjItem001
100
AcDbLine
 10
136.406
 20
284.775
 30
0
 11
133.406
 21
284.775
 31
0
  0
LINE
  5
A76
330
A02
100
AcDbEntity
  8
ProjItem001
100
AcDbLine
 10
133.406
 20
284.775
 30
0
 11
133.406
 21
279.775
 31
0
  0
LINE
  5
A77
330
A02
100
AcDbEntity
  8
ProjItem001
100
AcDbLine
 10
133.406
 20
279.775
 30
0
 11
136.406
 21
279.775
 31
0
  0
LINE
  5
A78
330
A02
100
AcDbEntity
  8
ProjItem001
100
AcDbLine
 10
136.406
 20
279.775
 30
0
 11
136.406
 21
274.775
 31
0
  0
LINE
  5
A79
330
A02
100
AcDbEntity
  8
ProjItem001
100
AcDbLine
 10
57.0344
 20
272.25
 30
0
 11
43.3344
 21
248.521
 31
0
  0
LINE
  5
A7A
330
A02
100
AcDbEntity
  8
ProjItem001
100
AcDbLine
 10
43.3344
 20
248.521
 30
0
 11
45.9324
 21
247.021
 31
0
  0
LINE
  5
A7B
330
A02
100
AcDbEntity
  8
ProjItem001
100
AcDbLine
 10
45.9324
 20
247.021
 30
0
 11
35.8324
 21
229.528
 31
0
  0
LINE
  5
A7C
330
A02
100
AcDbEntity
  8
ProjItem001
100
AcDbLine
 10
35.8324
 20
229.528
 30
0
 11
33.2344
 21
231.028
 31
0
  0
LINE
  5
A7D
330
A02
100
AcDbEntity
  8
ProjItem001
100
AcDbLine
 10
33.2344
 20
231.028
 30
0
 11
19.5344
 21
207.299
 31
0
  0
LINE
  5
A7E
330
A02
100
AcDbEntity
  8
ProjItem001
100
AcDbLine
 10
19.5344
 20
207.299
 30
0
 11
15.2908
 21
209.749
 31
0
  0
LINE
  5
A7F
330
A02
100
AcDbEntity
  8
ProjItem001
100
AcDbLine
 10
15.2908
 20
209.749
 30
0
 11
13.7908
 21
207.151
 31
0
  0
LINE
  5
A80
330
A02
100
AcDbEntity
  8
ProjItem001
100
AcDbLine
 10
13.7908
 20
207.151
 30
0
 11
9.28751
 21
209.751
 31
0
  0
LINE
  5
A81
330
A02
100
AcDbEntity
  8
ProjItem001
100
AcDbLine
 10
9.28751
 20
209.751
 30
0
 11
10.7875
 21
212.349
 31
0
  0
LINE
  5
A82
330
A02
100
AcDbEntity
  8
ProjItem001
100
AcDbLine
 10
10.7875
 20
212.349
 30
0
 11
6.54398
 21
214.799
 31
0
  0
LINE
  5
A83
330
A02
100
AcDbEntity
  8
ProjItem001
100
AcDbLine
 10
6.54398
 20
214.799
 30
0
 11
20.244
 21
238.528
 31
0
  0
LINE
  5
A84
330
A02
100
AcDbEntity
  8
ProjItem001
100
AcDbLine
 10
20.244
 20
238.528
 30
0
 11
17.6459
 21
240.028
 31
0
  0
LINE
  5
A85
330
A02
100
AcDbEntity
  8
ProjItem001
100
AcDbLine
 10
17.6459
 20
240.028
 30
0
 11
27.7459
 21
257.521
 31
0
  0
LINE
  5
A86
330
A02
100
AcDbEntity
  8
ProjItem001
100
AcDbLine
 10
27.7459
 20
257.521
 30
0
 11
30.344
 21
256.021
 31
0
  0
LINE
  5
A87
330
A02
100
AcDbEntity
  8
ProjItem001
100
AcDbLine
 10
30.344
 20
256.021
 30
0
 11
44.044
 21
279.75
 31
0
  0
LINE
  5
A88
330
A02
100
AcDbEntity
  8
ProjItem001
100
AcDbLine
 10
44.044
 20
279.75
 30
0
 11
48.3741
 21
277.25
 31
0
  0
LINE
  5
A89
330
A02
100
AcDbEntity
  8
ProjItem001
100
AcDbLine
 10
48.3741
 20
277.25
 30
0
 11
46.8741
 21
274.652
 31
0
  0
LINE
  5
A8A
330
A02
100
AcDbEntity
  8
ProjItem001
100
AcDbLine
 10
46.8741
 20
274.652
 30
0
 11
51.2042
 21
272.152
 31
0
  0
LINE
  5
A8B
330
A02
100
AcDbEntity
  8
ProjItem001
100
AcDbLine
 10
51.2042
 20
272.152
 30
0
 11
52.7042
 21
274.75
 31
0
  0
LINE
  5
A8C
330
A02
100
AcDbEntity
  8
ProjItem001
100
AcDbLine
 10
52.7042
 20
274.75
 30
0
 11
57.0344
 21
272.25
 31
0
  0
LINE
  5
A8D
330
A02
100
AcDbEntity
  8
ProjItem001
100
AcDbLine
 10
19.5344
 20
202.25
 30
0
 11
33.2344
 21
178.521
 31
0
  0
LINE
  5
A8E
330
A02
100
AcDbEntity
  8
ProjItem001
100
AcDbLine
 10
33.2344
 20
178.521
 30
0
 11
35.8324
 21
180.021
 31
0
  0
LINE
  5
A8F
330
A02
100
AcDbEntity
  8
ProjItem001
100
AcDbLine
 10
35.8324
 20
180.021
 30
0
 11
45.9324
 21
162.528
 31
0
  0
LINE
  5
A90
330
A02
100
AcDbEntity
  8
ProjItem001
100
AcDbLine
 10
45.9324
 20
162.528
 30
0
 11
43.3344
 21
161.028
 31
0
  0
LINE
  5
A91
330
A02
100
AcDbEntity
  8
ProjItem001
100
AcDbLine
 10
43.3344
 20
161.028
 30
0
 11
57.0344
 21
137.299
 31
0
  0
LINE
  5
A92
330
A02
100
AcDbEntity
  8
ProjItem001
100
AcDbLine
 10
57.0344
 20
137.299
 30
0
 11
52.7908
 21
134.849
 31
0
  0
LINE
  5
A93
330
A02
100
AcDbEntity
  8
ProjItem001
100
AcDbLine
 10
52.7908
 20
134.849
 30
0
 11
54.2908
 21
132.251
 31
0
  0
LINE
  5
A94
330
A02
100
AcDbEntity
  8
ProjItem001
100
AcDbLine
 10
54.2908
 20
132.251
 30
0
 11
49.7875
 21
129.651
 31
0
  0
LINE
  5
A95
330
A02
100
AcDbEntity
  8
ProjItem001
100
AcDbLine
 10
49.7875
 20
129.651
 30
0
 11
48.2875
 21
132.249
 31
0
  0
LINE
  5
A96
330
A02
100
AcDbEntity
  8
ProjItem001
100
AcDbLine
 10
48.2875
 20
132.249
 30
0
 11
44.044
 21
129.799
 31
0
  0
LINE
  5
A97
330
A02
100
AcDbEntity
  8
ProjItem001
100
AcDbLine
 10
44.044
 20
129.799
 30
0
 11
30.344
 21
153.528
 31
0
  0
LINE
  5
A98
330
A02
100
AcDbEntity
  8
ProjItem001
100
AcDbLine
 10
30.344
 20
153.528
 30
0
 11
27.7459
 21
152.028
 31
0
  0
LINE
  5
A99
330
A02
100
AcDbEntity
  8
ProjItem001
100
AcDbLine
 10
27.7459
 20
152.028
 30
0
 11
17.6459
 21
169.521
 31
0
  0
LINE
  5
A9A
330
A02
100
AcDbEntity
  8
ProjItem001
100
AcDbLine
 10
17.6459
 20
169.521
 30
0
 11
20.244
 21
171.021
 31
0
  0
LINE
  5
A9B
330
A02
100
AcDbEntity
  8
ProjItem001
100
AcDbLine
 10
20.244
 20
171.021
 30
0
 11
6.54398
 21
194.75
 31
0
  0
LINE
  5
A9C
330
A02
100
AcDbEntity
  8
ProjItem001
100
AcDbLine
 10
6.54398
 20
194.75
 30
0
 11
10.8741
 21
197.25
 31
0
  0
LINE
  5
A9D
330
A02
100
AcDbEntity
  8
ProjItem001
100
AcDbLine
 10
10.8741
 20
197.25
 30
0
 11
12.3741
 21
194.652
 31
0
  0
LINE
  5
A9E
330
A02
100
AcDbEntity
  8
ProjItem001
100
AcDbLine
 10
12.3741
 20
194.652
 30
0
 11
16.7042
 21
197.152
 31
0
  0
LINE
  5
A9F
330
A02
100
AcDbEntity
  8
ProjItem001
100
AcDbLine
 10
16.7042
 20
197.152
 30
0
 11
15.2042
 21
199.75
 31
0
  0
LINE
  5
AA0
330
A02
100
AcDbEntity
  8
ProjItem001
100
AcDbLine
 10
15.2042
 20
199.75
 30
0
 11
19.5344
 21
202.25
 31
0
  0
LINE
  5
AA1
330
A02
100
AcDbEntity
  8
ProjItem002
100
AcDbLine
 10
287.707
 20
270.096
 30
0
 11
287.707
 21
273.048
 31
0
  0
LINE
  5
AA2
330
A02
100
AcDbEntity
  8
ProjItem002
100
AcDbLine
 10
267.707
 20
270.096
 30
0
 11
287.707
 21
270.096
 31
0
  0
LINE
  5
AA3
330
A02
100
AcDbEntity
  8
ProjItem002
100
AcDbLine
 10
267.707
 20
273.048
 30
0
 11
267.707
 21
270.096
 31
0
  0
LINE
  5
AA4
330
A02
100
AcDbEntity
  8
ProjItem002
100
AcDbLine
 10
267.707
 20
273.048
 30
0
 11
267.707
 21
270.096
 31
0
  0
LINE
  5
AA5
330
A02
100
AcDbEntity
  8
ProjItem002
100
AcDbLine
 10
267.707
 20
270.096
 30
0
 11
287.707
 21
270.096
 31
0
  0
LINE
  5
AA6
330
A02
100
AcDbEntity
  8
ProjItem002
100
AcDbLine
 10
287.707
 20
270.096
 30
0
 11
287.707
 21
273.048
 31
0
  0
LINE
  5
AA7
330
A02
100
AcDbEntity
  8
ProjItem002
100
AcDbLine
 10
315.207
 20
273.048
 30
0
 11
287.707
 21
273.048
 31
0
  0
LINE
  5
AA8
330
A02
100
AcDbEntity
  8
ProjItem002
100
AcDbLine
 10
328.957
 20
249.233
 30
0
 11
315.207
 21
273.048
 31
0
  0
LINE
  5
AA9
330
A02
100
AcDbEntity
  8
ProjItem002
100
AcDbLine
 10
328.957
 20
249.233
 30
0
 11
326.401
 21
247.757
 31
0
  0
LINE
  5
AAA
330
A02
100
AcDbEntity
  8
ProjItem002
100
AcDbLine
 10
326.401
 20
247.757
 30
0
 11
336.401
 21
230.436
 31
0
  0
LINE
  5
AAB
330
A02
100
AcDbEntity
  8
ProjItem002
100
AcDbLine
 10
336.401
 20
230.436
 30
0
 11
338.957
 21
231.912
 31
0
  0
LINE
  5
AAC
330
A02
100
AcDbEntity
  8
ProjItem002
100
AcDbLine
 10
352.707
 20
208.096
 30
0
 11
338.957
 21
231.912
 31
0
  0
LINE
  5
AAD
330
A02
100
AcDbEntity
  8
ProjItem002
100
AcDbLine
 10
338.957
 20
184.281
 30
0
 11
352.707
 21
208.096
 31
0
  0
LINE
  5
AAE
330
A02
100
AcDbEntity
  8
ProjItem002
100
AcDbLine
 10
338.957
 20
184.281
 30
0
 11
336.401
 21
185.757
 31
0
  0
LINE
  5
AAF
330
A02
100
AcDbEntity
  8
ProjItem002
100
AcDbLine
 10
336.401
 20
185.757
 30
0
 11
326.401
 21
168.436
 31
0
  0
LINE
  5
AB0
330
A02
100
AcDbEntity
  8
ProjItem002
100
AcDbLine
 10
326.401
 20
168.436
 30
0
 11
328.957
 21
166.96
 31
0
  0
LINE
  5
AB1
330
A02
100
AcDbEntity
  8
ProjItem002
100
AcDbLine
 10
315.207
 20
143.144
 30
0
 11
328.957
 21
166.96
 31
0
  0
LINE
  5
AB2
330
A02
100
AcDbEntity
  8
ProjItem002
100
AcDbLine
 10
287.707
 20
143.144
 30
0
 11
315.207
 21
143.144
 31
0
  0
LINE
  5
AB3
330
A02
100
AcDbEntity
  8
ProjItem002
100
AcDbLine
 10
287.707
 20
143.144
 30
0
 11
287.707
 21
146.096
 31
0
  0
LINE
  5
AB4
330
A02
100
AcDbEntity
  8
ProjItem002
100
AcDbLine
 10
287.707
 20
146.096
 30
0
 11
267.707
 21
146.096
 31
0
  0
LINE
  5
AB5
330
A02
100
AcDbEntity
  8
ProjItem002
100
AcDbLine
 10
267.707
 20
146.096
 30
0
 11
267.707
 21
143.144
 31
0
  0
LINE
  5
AB6
330
A02
100
AcDbEntity
  8
ProjItem002
100
AcDbLine
 10
240.207
 20
143.144
 30
0
 11
267.707
 21
143.144
 31
0
  0
LINE
  5
AB7
330
A02
100
AcDbEntity
  8
ProjItem002
100
AcDbLine
 10
226.457
 20
166.96
 30
0
 11
240.207
 21
143.144
 31
0
  0
LINE
  5
AB8
330
A02
100
AcDbEntity
  8
ProjItem002
100
AcDbLine
 10
226.457
 20
166.96
 30
0
 11
229.013
 21
168.436
 31
0
  0
LINE
  5
AB9
330
A02
100
AcDbEntity
  8
ProjItem002
100
AcDbLine
 10
229.013
 20
168.436
 30
0
 11
219.013
 21
185.757
 31
0
  0
LINE
  5
ABA
330
A02
100
AcDbEntity
  8
ProjItem002
100
AcDbLine
 10
219.013
 20
185.757
 30
0
 11
216.457
 21
184.281
 31
0
  0
LINE
  5
ABB
330
A02
100
AcDbEntity
  8
ProjItem002
100
AcDbLine
 10
202.707
 20
208.096
 30
0
 11
216.457
 21
184.281
 31
0
  0
LINE
  5
ABC
330
A02
100
AcDbEntity
  8
ProjItem002
100
AcDbLine
 10
216.457
 20
231.912
 30
0
 11
202.707
 21
208.096
 31
0
  0
LINE
  5
ABD
330
A02
100
AcDbEntity
  8
ProjItem002
100
AcDbLine
 10
216.457
 20
231.912
 30
0
 11
219.013
 21
230.436
 31
0
  0
LINE
  5
ABE
330
A02
100
AcDbEntity
  8
ProjItem002
100
AcDbLine
 10
219.013
 20
230.436
 30
0
 11
229.013
 21
247.757
 31
0
  0
LINE
  5
ABF
330
A02
100
AcDbEntity
  8
ProjItem002
100
AcDbLine
 10
229.013
 20
247.757
 30
0
 11
226.457
 21
249.233
 31
0
  0
LINE
  5
AC0
330
A02
100
AcDbEntity
  8
ProjItem002
100
AcDbLine
 10
240.207
 20
273.048
 30
0
 11
226.457
 21
249.233
 31
0
  0
LINE
  5
AC1
330
A02
100
AcDbEntity
  8
ProjItem002
100
AcDbLine
 10
267.707
 20
273.048
 30
0
 11
240.207
 21
273.048
 31
0
  0
ENDSEC
  0
SECTION
  2
OBJECTS
  0
DICTIONARY
  5
F000
330
0
100
AcDbDictionary
  3
ACAD_GROUP
350
F001
  0
DICTIONARY
  5
F001
330
F000
100
AcDbDictionary
  0
ENDSEC
  0
EOF