999
FreeCAD v0.19 24366 (Git)
  0
SECTION
  2
HEADER
  9
$ACADVER
  1
AC1014
  9
$ACADMAINTVER
 70
     9
  9
$DWGCODEPAGE
  3
ANSI_1252
  9
$TEXTSTYLE
  7
STANDARD
  9
$DIMSTYLE
  2
STANDARD
  9
$DIMTXSTY
  7
STANDARD
  9
$CMLSTYLE
  2
STANDARD
  9
$PEXTMAX
 10
50
 20
50
 30
50
  9
$PEXTMIN
 10
0
 20
0
 30
0
  9
$HANDSEED
  5
FFFF
  0
ENDSEC
  0
SECTION
  2
CLASSES
  0
CLASS
  1
ACDBDICTIONARYWDFLT
  2
AcDbDictionaryWithDefault
  3
ObjectDBX Classes
 90
        0
280
     0
281
     0
  0
CLASS
  1
XRECORD
  2
AcDbXrecord
  3
ObjectDBX Classes
 90
        0
280
     0
281
     0
  0
CLASS
  1
LWPOLYLINE
  2
AcDbPolyline
  3
ObjectDBX Classes
 90
        0
280
     0
281
     1
  0
ENDSEC
  0
SECTION
  2
TABLES
  0
TABLE
  2
VPORT
  5
20
330
0
100
AcDbSymbolTable
 70
     1
  0
VPORT
  5
21
330
20
100
AcDbSymbolTableRecord
100
AcDbViewportTableRecord
  2
*ACTIVE
 70
     0
  0
ENDTAB
  0
TABLE
  2
LTYPE
  5
22
330
0
100
AcDbSymbolTable
 70
     1
  0
LTYPE
  5
23
330
21
100
AcDbSymbolTableRecord
100
AcDbLinetypeTableRecord
  2
BYBLOCK
 70
     0
  3

 72
    65
 73
     0
 40
0.0
  0
LTYPE
  5
24
330
21
100
AcDbSymbolTableRecord
100
AcDbLinetypeTableRecord
  2
BYLAYER
 70
     0
  3

 72
    65
 73
     0
 40
0.0
  0
LTYPE
  5
25
330
21
100
AcDbSymbolTableRecord
100
AcDbLinetypeTableRecord
  2
CONTINUOUS
 70
     0
  3
Solid line
 72
    65
 73
     0
 40
0.0
  0
ENDTAB
  0
TABLE
  2
LAYER
  5
A86
330
0
100
AcDbSymbolTable
 70
5
  0
LAYER
  5
A87
330
A86
100
AcDbSymbolTableRecord
100
AcDbLayerTableRecord
  2
0
 70
   0
 62
   7
  6
CONTINUOUS
  0
LAYER
  5
A88
330
A86
100
AcDbSymbolTableRecord
100
AcDbLayerTableRecord
  2
View007
 70
    0
 62
    7
  6
CONTINUOUS
  0
LAYER
  5
A89
330
A86
100
AcDbSymbolTableRecord
100
AcDbLayerTableRecord
  2
View008
 70
    0
 62
    7
  6
CONTINUOUS
  0
LAYER
  5
A8A
330
A86
100
AcDbSymbolTableRecord
100
AcDbLayerTableRecord
  2
ProjItem
 70
    0
 62
    7
  6
CONTINUOUS
  0
LAYER
  5
A8B
330
A86
100
AcDbSymbolTableRecord
100
AcDbLayerTableRecord
  2
ProjItem001
 70
    0
 62
    7
  6
CONTINUOUS
  0
ENDTAB
  0
TABLE
  2
STYLE
  5
70
330
0
100
AcDbSymbolTable
 70
     2
  0
STYLE
  5
71
330
70
100
AcDbSymbolTableRecord
100
AcDbTextStyleTableRecord
  2
STANDARD
 70
     0
 40
0.0
 41
1.0
 50
0.0
 71
     0
 42
2.5
  3
arial.ttf
  4

  0
STYLE
  5
72
330
70
100
AcDbSymbolTableRecord
100
AcDbTextStyleTableRecord
  2
ANNOTATIVE
 70
     0
 40
0.0
 41
1.0
 50
0.0
 71
     0
 42
2.5
  3
arial.ttf
  4

  0
ENDTAB
  0
TABLE
  2
VIEW
  5
73
330
0
100
AcDbSymbolTable
 70
     0
  0
ENDTAB
  0
TABLE
  2
UCS
  5
74
330
0
100
AcDbSymbolTable
 70
     0
  0
ENDTAB
  0
TABLE
  2
APPID
  5
75
330
0
100
AcDbSymbolTable
 70
     2
  0
APPID
  5
76
330
75
100
AcDbSymbolTableRecord
100
AcDbRegAppTableRecord
  2
ACAD
 70
     0
  0
APPID
  5
77
330
75
100
AcDbSymbolTableRecord
100
AcDbRegAppTableRecord
  2
ACADANNOTATIVE
 70
     0
  0
ENDTAB
  0
TABLE
  2
DIMSTYLE
  5
78
330
0
100
AcDbSymbolTable
 70
     2
  0
DIMSTYLE
105
79
330
78
100
AcDbSymbolTableRecord
100
AcDbDimStyleTableRecord
  2
STANDARD
 70
     0
  3

  4

  5

  6

  7

 40
0.0
 41
2.5
 42
0.625
 43
3.75
 44
1.25
 45
0.0
 46
0.0
 47
0.0
 48
0.0
140
2.5
141
2.5
142
0.0
143
0.03937007874016
144
1.0
145
0.0
146
1.0
147
0.625
 71
     0
 72
     0
 73
     0
 74
     0
 75
     0
 76
     0
 77
     1
 78
     8
170
     0
171
     3
172
     1
173
     0
174
     0
175
     0
176
     0
177
     0
178
     0
270
     2
271
     2
272
     2
273
     2
274
     3
340
71
275
     0
280
     0
281
     0
282
     0
283
     0
284
     8
285
     0
286
     0
287
     3
288
     0
  0
ENDTAB
  0
TABLE
  2
BLOCK_RECORD
  5
A01
330
0
100
AcDbSymbolTable
  70
5
  0
BLOCK_RECORD
  5
A02
330
A01
100
AcDbSymbolTableRecord
100
AcDbBlockTableRecord
  2
*MODEL_SPACE
  0
BLOCK_RECORD
  5
A03
330
A01
100
AcDbSymbolTableRecord
100
AcDbBlockTableRecord
  2
*PAPER_SPACE
  0
ENDTAB
  0
ENDSEC
  0
SECTION
  2
BLOCKS
  0
BLOCK
  5
A04
330
A02
100
AcDbEntity
  8
0
100
AcDbBlockBegin
  2
*MODEL_SPACE
 70
   0
 10
0
 20
0
 30
0
  3
*MODEL_SPACE
  1
 
  0
ENDBLK
  5
A05
330
A02
100
AcDbEntity
  8
0
100
AcDbBlockEnd
  0
BLOCK
  5
A06
330
A03
100
AcDbEntity
 67
1
  8
0
100
AcDbBlockBegin
  2
*PAPER_SPACE
 70
   0
 10
0
 20
0
 30
0
  3
*PAPER_SPACE
  1
 
  0
ENDBLK
  5
A07
330
A03
100
AcDbEntity
 67
    1
  8
0
100
AcDbBlockEnd
  0
ENDSEC
  0
SECTION
  2
ENTITIES
  0
ELLIPSE
  5
A08
330
A02
100
AcDbEntity
  8
View007
100
AcDbEllipse
 10
43.3976
 20
147.911
 30
0
 11
-12.5007
 21
7.65445e-16
 31
0
 40
0.706144
 41
3.13123
 42
0.0103601
  0
LINE
  5
A09
330
A02
100
AcDbEntity
  8
View007
100
AcDbLine
 10
30.8976
 20
147.819
 30
0
 11
30.8976
 21
143.053
 31
0
  0
LINE
  5
A0A
330
A02
100
AcDbEntity
  8
View007
100
AcDbLine
 10
30.8976
 20
143.053
 30
0
 11
32.8976
 21
143.053
 31
0
  0
LINE
  5
A0B
330
A02
100
AcDbEntity
  8
View007
100
AcDbLine
 10
32.8976
 20
143.053
 30
0
 11
32.8976
 21
135.053
 31
0
  0
LINE
  5
A0C
330
A02
100
AcDbEntity
  8
View007
100
AcDbLine
 10
32.8976
 20
135.053
 30
0
 11
30.8976
 21
135.053
 31
0
  0
LINE
  5
A0D
330
A02
100
AcDbEntity
  8
View007
100
AcDbLine
 10
30.8976
 20
135.053
 30
0
 11
30.8976
 21
120.063
 31
0
  0
LINE
  5
A0E
330
A02
100
AcDbEntity
  8
View007
100
AcDbLine
 10
30.8976
 20
120.063
 30
0
 11
32.8976
 21
120.063
 31
0
  0
LINE
  5
A0F
330
A02
100
AcDbEntity
  8
View007
100
AcDbLine
 10
32.8976
 20
120.063
 30
0
 11
32.8976
 21
112.063
 31
0
  0
LINE
  5
A10
330
A02
100
AcDbEntity
  8
View007
100
AcDbLine
 10
32.8976
 20
112.063
 30
0
 11
30.8976
 21
112.063
 31
0
  0
LINE
  5
A11
330
A02
100
AcDbEntity
  8
View007
100
AcDbLine
 10
30.8976
 20
112.063
 30
0
 11
30.8976
 21
97.0737
 31
0
  0
LINE
  5
A12
330
A02
100
AcDbEntity
  8
View007
100
AcDbLine
 10
30.8976
 20
97.0737
 30
0
 11
32.8976
 21
97.0737
 31
0
  0
LINE
  5
A13
330
A02
100
AcDbEntity
  8
View007
100
AcDbLine
 10
32.8976
 20
97.0737
 30
0
 11
32.8976
 21
89.0737
 31
0
  0
LINE
  5
A14
330
A02
100
AcDbEntity
  8
View007
100
AcDbLine
 10
32.8976
 20
89.0737
 30
0
 11
30.8976
 21
89.0737
 31
0
  0
LINE
  5
A15
330
A02
100
AcDbEntity
  8
View007
100
AcDbLine
 10
30.8976
 20
89.0737
 30
0
 11
30.8976
 21
87.8193
 31
0
  0
ARC
  5
A16
330
A02
100
AcDbEntity
  8
View007
100
AcDbCircle
 10
62.9801
 20
92.154
 30
0
 40
32.374
100
AcDbArc
 50
-172.305
 51
-127.22
  0
ARC
  5
A17
330
A02
100
AcDbEntity
  8
View007
100
AcDbCircle
 10
23.8151
 20
92.154
 30
0
 40
32.374
100
AcDbArc
 50
-52.7795
 51
-7.69473
  0
LINE
  5
A18
330
A02
100
AcDbEntity
  8
View007
100
AcDbLine
 10
55.8976
 20
89.0737
 30
0
 11
55.8976
 21
87.8193
 31
0
  0
LINE
  5
A19
330
A02
100
AcDbEntity
  8
View007
100
AcDbLine
 10
55.8976
 20
89.0737
 30
0
 11
53.8976
 21
89.0737
 31
0
  0
LINE
  5
A1A
330
A02
100
AcDbEntity
  8
View007
100
AcDbLine
 10
53.8976
 20
89.0737
 30
0
 11
53.8976
 21
97.0737
 31
0
  0
LINE
  5
A1B
330
A02
100
AcDbEntity
  8
View007
100
AcDbLine
 10
53.8976
 20
97.0737
 30
0
 11
55.8976
 21
97.0737
 31
0
  0
LINE
  5
A1C
330
A02
100
AcDbEntity
  8
View007
100
AcDbLine
 10
55.8976
 20
112.063
 30
0
 11
55.8976
 21
97.0737
 31
0
  0
LINE
  5
A1D
330
A02
100
AcDbEntity
  8
View007
100
AcDbLine
 10
55.8976
 20
112.063
 30
0
 11
53.8976
 21
112.063
 31
0
  0
LINE
  5
A1E
330
A02
100
AcDbEntity
  8
View007
100
AcDbLine
 10
53.8976
 20
112.063
 30
0
 11
53.8976
 21
120.063
 31
0
  0
LINE
  5
A1F
330
A02
100
AcDbEntity
  8
View007
100
AcDbLine
 10
53.8976
 20
120.063
 30
0
 11
55.8976
 21
120.063
 31
0
  0
LINE
  5
A20
330
A02
100
AcDbEntity
  8
View007
100
AcDbLine
 10
55.8976
 20
135.053
 30
0
 11
55.8976
 21
120.063
 31
0
  0
LINE
  5
A21
330
A02
100
AcDbEntity
  8
View007
100
AcDbLine
 10
55.8976
 20
135.053
 30
0
 11
53.8976
 21
135.053
 31
0
  0
LINE
  5
A22
330
A02
100
AcDbEntity
  8
View007
100
AcDbLine
 10
53.8976
 20
135.053
 30
0
 11
53.8976
 21
143.053
 31
0
  0
LINE
  5
A23
330
A02
100
AcDbEntity
  8
View007
100
AcDbLine
 10
53.8976
 20
143.053
 30
0
 11
55.8976
 21
143.053
 31
0
  0
LINE
  5
A24
330
A02
100
AcDbEntity
  8
View007
100
AcDbLine
 10
55.8976
 20
147.819
 30
0
 11
55.8976
 21
143.053
 31
0
  0
ELLIPSE
  5
A25
330
A02
100
AcDbEntity
  8
View008
100
AcDbEllipse
 10
102.648
 20
149.52
 30
0
 11
-17.5009
 21
1.07162e-15
 31
0
 40
0.504393
 41
3.13123
 42
0.0103606
  0
LINE
  5
A26
330
A02
100
AcDbEntity
  8
View008
100
AcDbLine
 10
85.1483
 20
149.429
 30
0
 11
85.1483
 21
89.4286
 31
0
  0
ARC
  5
A27
330
A02
100
AcDbEntity
  8
View008
100
AcDbCircle
 10
122.225
 20
93.7621
 30
0
 40
37.3288
100
AcDbArc
 50
-173.334
 51
-121.63
  0
ARC
  5
A28
330
A02
100
AcDbEntity
  8
View008
100
AcDbCircle
 10
83.0719
 20
93.7621
 30
0
 40
37.3288
100
AcDbArc
 50
-58.37
 51
-6.66641
  0
LINE
  5
A29
330
A02
100
AcDbEntity
  8
View008
100
AcDbLine
 10
120.148
 20
149.429
 30
0
 11
120.148
 21
89.4286
 31
0
  0
LINE
  5
A2A
330
A02
100
AcDbEntity
  8
View008
100
AcDbLine
 10
113.151
 20
121.674
 30
0
 11
115.151
 21
121.674
 31
0
  0
LINE
  5
A2B
330
A02
100
AcDbEntity
  8
View008
100
AcDbLine
 10
115.151
 20
121.674
 30
0
 11
115.151
 21
113.674
 31
0
  0
LINE
  5
A2C
330
A02
100
AcDbEntity
  8
View008
100
AcDbLine
 10
115.151
 20
113.674
 30
0
 11
113.151
 21
113.674
 31
0
  0
LINE
  5
A2D
330
A02
100
AcDbEntity
  8
View008
100
AcDbLine
 10
113.151
 20
113.674
 30
0
 11
113.151
 21
121.674
 31
0
  0
LINE
  5
A2E
330
A02
100
AcDbEntity
  8
View008
100
AcDbLine
 10
113.151
 20
144.663
 30
0
 11
115.151
 21
144.663
 31
0
  0
LINE
  5
A2F
330
A02
100
AcDbEntity
  8
View008
100
AcDbLine
 10
115.151
 20
144.663
 30
0
 11
115.151
 21
136.663
 31
0
  0
LINE
  5
A30
330
A02
100
AcDbEntity
  8
View008
100
AcDbLine
 10
115.151
 20
136.663
 30
0
 11
113.151
 21
136.663
 31
0
  0
LINE
  5
A31
330
A02
100
AcDbEntity
  8
View008
100
AcDbLine
 10
113.151
 20
136.663
 30
0
 11
113.151
 21
144.663
 31
0
  0
LINE
  5
A32
330
A02
100
AcDbEntity
  8
View008
100
AcDbLine
 10
90.1515
 20
121.674
 30
0
 11
92.1515
 21
121.674
 31
0
  0
LINE
  5
A33
330
A02
100
AcDbEntity
  8
View008
100
AcDbLine
 10
92.1515
 20
121.674
 30
0
 11
92.1515
 21
113.674
 31
0
  0
LINE
  5
A34
330
A02
100
AcDbEntity
  8
View008
100
AcDbLine
 10
92.1515
 20
113.674
 30
0
 11
90.1515
 21
113.674
 31
0
  0
LINE
  5
A35
330
A02
100
AcDbEntity
  8
View008
100
AcDbLine
 10
90.1515
 20
113.674
 30
0
 11
90.1515
 21
121.674
 31
0
  0
LINE
  5
A36
330
A02
100
AcDbEntity
  8
View008
100
AcDbLine
 10
90.1515
 20
144.663
 30
0
 11
92.1515
 21
144.663
 31
0
  0
LINE
  5
A37
330
A02
100
AcDbEntity
  8
View008
100
AcDbLine
 10
92.1515
 20
144.663
 30
0
 11
92.1515
 21
136.663
 31
0
  0
LINE
  5
A38
330
A02
100
AcDbEntity
  8
View008
100
AcDbLine
 10
92.1515
 20
136.663
 30
0
 11
90.1515
 21
136.663
 31
0
  0
LINE
  5
A39
330
A02
100
AcDbEntity
  8
View008
100
AcDbLine
 10
90.1515
 20
136.663
 30
0
 11
90.1515
 21
144.663
 31
0
  0
LINE
  5
A3A
330
A02
100
AcDbEntity
  8
View008
100
AcDbLine
 10
113.151
 20
98.684
 30
0
 11
115.151
 21
98.684
 31
0
  0
LINE
  5
A3B
330
A02
100
AcDbEntity
  8
View008
100
AcDbLine
 10
115.151
 20
98.684
 30
0
 11
115.151
 21
90.684
 31
0
  0
LINE
  5
A3C
330
A02
100
AcDbEntity
  8
View008
100
AcDbLine
 10
115.151
 20
90.684
 30
0
 11
113.151
 21
90.684
 31
0
  0
LINE
  5
A3D
330
A02
100
AcDbEntity
  8
View008
100
AcDbLine
 10
113.151
 20
90.684
 30
0
 11
113.151
 21
98.684
 31
0
  0
LINE
  5
A3E
330
A02
100
AcDbEntity
  8
View008
100
AcDbLine
 10
90.1515
 20
98.684
 30
0
 11
92.1515
 21
98.684
 31
0
  0
LINE
  5
A3F
330
A02
100
AcDbEntity
  8
View008
100
AcDbLine
 10
92.1515
 20
98.684
 30
0
 11
92.1515
 21
90.684
 31
0
  0
LINE
  5
A40
330
A02
100
AcDbEntity
  8
View008
100
AcDbLine
 10
92.1515
 20
90.684
 30
0
 11
90.1515
 21
90.684
 31
0
  0
LINE
  5
A41
330
A02
100
AcDbEntity
  8
View008
100
AcDbLine
 10
90.1515
 20
90.684
 30
0
 11
90.1515
 21
98.684
 31
0
  0
LINE
  5
A42
330
A02
100
AcDbEntity
  8
ProjItem
100
AcDbLine
 10
146.218
 20
140.845
 30
0
 11
151.477
 21
140.845
 31
0
  0
ARC
  5
A43
330
A02
100
AcDbEntity
  8
ProjItem
100
AcDbCircle
 10
151.477
 20
138.822
 30
0
 40
2.02289
100
AcDbArc
 50
0
 51
90
  0
LINE
  5
A44
330
A02
100
AcDbEntity
  8
ProjItem
100
AcDbLine
 10
153.5
 20
138.822
 30
0
 11
153.5
 21
130.255
 31
0
  0
LINE
  5
A45
330
A02
100
AcDbEntity
  8
ProjItem
100
AcDbLine
 10
153.5
 20
130.255
 30
0
 11
155.5
 21
130.255
 31
0
  0
LINE
  5
A46
330
A02
100
AcDbEntity
  8
ProjItem
100
AcDbLine
 10
155.5
 20
130.255
 30
0
 11
155.5
 21
122.155
 31
0
  0
LINE
  5
A47
330
A02
100
AcDbEntity
  8
ProjItem
100
AcDbLine
 10
155.5
 20
122.155
 30
0
 11
153.5
 21
122.155
 31
0
  0
LINE
  5
A48
330
A02
100
AcDbEntity
  8
ProjItem
100
AcDbLine
 10
153.5
 20
122.155
 30
0
 11
153.5
 21
107.255
 31
0
  0
LINE
  5
A49
330
A02
100
AcDbEntity
  8
ProjItem
100
AcDbLine
 10
153.5
 20
107.255
 30
0
 11
155.5
 21
107.255
 31
0
  0
LINE
  5
A4A
330
A02
100
AcDbEntity
  8
ProjItem
100
AcDbLine
 10
155.5
 20
107.255
 30
0
 11
155.5
 21
99.1549
 31
0
  0
LINE
  5
A4B
330
A02
100
AcDbEntity
  8
ProjItem
100
AcDbLine
 10
155.5
 20
99.1549
 30
0
 11
153.5
 21
99.1549
 31
0
  0
LINE
  5
A4C
330
A02
100
AcDbEntity
  8
ProjItem
100
AcDbLine
 10
153.5
 20
99.1549
 30
0
 11
153.5
 21
84.2549
 31
0
  0
LINE
  5
A4D
330
A02
100
AcDbEntity
  8
ProjItem
100
AcDbLine
 10
153.5
 20
84.2549
 30
0
 11
155.5
 21
84.2549
 31
0
  0
LINE
  5
A4E
330
A02
100
AcDbEntity
  8
ProjItem
100
AcDbLine
 10
155.5
 20
84.2549
 30
0
 11
155.5
 21
76.1549
 31
0
  0
LINE
  5
A4F
330
A02
100
AcDbEntity
  8
ProjItem
100
AcDbLine
 10
155.5
 20
76.1549
 30
0
 11
153.5
 21
76.1549
 31
0
  0
LINE
  5
A50
330
A02
100
AcDbEntity
  8
ProjItem
100
AcDbLine
 10
153.5
 20
76.1549
 30
0
 11
153.5
 21
69.1549
 31
0
  0
LINE
  5
A51
330
A02
100
AcDbEntity
  8
ProjItem
100
AcDbLine
 10
153.5
 20
69.1549
 30
0
 11
143.5
 21
69.1549
 31
0
  0
LINE
  5
A52
330
A02
100
AcDbEntity
  8
ProjItem
100
AcDbLine
 10
143.5
 20
69.1549
 30
0
 11
143.5
 21
76.1549
 31
0
  0
LINE
  5
A53
330
A02
100
AcDbEntity
  8
ProjItem
100
AcDbLine
 10
143.5
 20
76.1549
 30
0
 11
141.5
 21
76.1549
 31
0
  0
LINE
  5
A54
330
A02
100
AcDbEntity
  8
ProjItem
100
AcDbLine
 10
141.5
 20
76.1549
 30
0
 11
141.5
 21
84.2549
 31
0
  0
LINE
  5
A55
330
A02
100
AcDbEntity
  8
ProjItem
100
AcDbLine
 10
141.5
 20
84.2549
 30
0
 11
143.5
 21
84.2549
 31
0
  0
LINE
  5
A56
330
A02
100
AcDbEntity
  8
ProjItem
100
AcDbLine
 10
143.5
 20
84.2549
 30
0
 11
143.5
 21
99.1549
 31
0
  0
LINE
  5
A57
330
A02
100
AcDbEntity
  8
ProjItem
100
AcDbLine
 10
143.5
 20
99.1549
 30
0
 11
141.5
 21
99.1549
 31
0
  0
LINE
  5
A58
330
A02
100
AcDbEntity
  8
ProjItem
100
AcDbLine
 10
141.5
 20
99.1549
 30
0
 11
141.5
 21
107.255
 31
0
  0
LINE
  5
A59
330
A02
100
AcDbEntity
  8
ProjItem
100
AcDbLine
 10
141.5
 20
107.255
 30
0
 11
143.5
 21
107.255
 31
0
  0
LINE
  5
A5A
330
A02
100
AcDbEntity
  8
ProjItem
100
AcDbLine
 10
143.5
 20
107.255
 30
0
 11
143.5
 21
122.155
 31
0
  0
LINE
  5
A5B
330
A02
100
AcDbEntity
  8
ProjItem
100
AcDbLine
 10
143.5
 20
122.155
 30
0
 11
141.5
 21
122.155
 31
0
  0
LINE
  5
A5C
330
A02
100
AcDbEntity
  8
ProjItem
100
AcDbLine
 10
141.5
 20
122.155
 30
0
 11
141.5
 21
130.255
 31
0
  0
LINE
  5
A5D
330
A02
100
AcDbEntity
  8
ProjItem
100
AcDbLine
 10
141.5
 20
130.255
 30
0
 11
143.5
 21
130.255
 31
0
  0
LINE
  5
A5E
330
A02
100
AcDbEntity
  8
ProjItem
100
AcDbLine
 10
143.5
 20
130.255
 30
0
 11
143.5
 21
138.128
 31
0
  0
ARC
  5
A5F
330
A02
100
AcDbEntity
  8
ProjItem
100
AcDbCircle
 10
146.218
 20
138.128
 30
0
 40
2.71757
100
AcDbArc
 50
90
 51
180
  0
LINE
  5
A60
330
A02
100
AcDbEntity
  8
ProjItem
100
AcDbLine
 10
149.303
 20
91.6409
 30
0
 11
149.303
 21
107.641
 31
0
  0
LINE
  5
A61
330
A02
100
AcDbEntity
  8
ProjItem
100
AcDbLine
 10
149.303
 20
107.641
 30
0
 11
145.303
 21
107.641
 31
0
  0
LINE
  5
A62
330
A02
100
AcDbEntity
  8
ProjItem
100
AcDbLine
 10
145.303
 20
107.641
 30
0
 11
145.303
 21
91.6409
 31
0
  0
LINE
  5
A63
330
A02
100
AcDbEntity
  8
ProjItem
100
AcDbLine
 10
145.303
 20
91.6409
 30
0
 11
149.303
 21
91.6409
 31
0
  0
LINE
  5
A64
330
A02
100
AcDbEntity
  8
ProjItem001
100
AcDbLine
 10
186.66
 20
140.845
 30
0
 11
191.92
 21
140.845
 31
0
  0
ARC
  5
A65
330
A02
100
AcDbEntity
  8
ProjItem001
100
AcDbCircle
 10
191.92
 20
138.822
 30
0
 40
2.02289
100
AcDbArc
 50
0
 51
90
  0
LINE
  5
A66
330
A02
100
AcDbEntity
  8
ProjItem001
100
AcDbLine
 10
193.943
 20
138.822
 30
0
 11
193.943
 21
130.255
 31
0
  0
LINE
  5
A67
330
A02
100
AcDbEntity
  8
ProjItem001
100
AcDbLine
 10
193.943
 20
130.255
 30
0
 11
195.943
 21
130.255
 31
0
  0
LINE
  5
A68
330
A02
100
AcDbEntity
  8
ProjItem001
100
AcDbLine
 10
195.943
 20
130.255
 30
0
 11
195.943
 21
122.155
 31
0
  0
LINE
  5
A69
330
A02
100
AcDbEntity
  8
ProjItem001
100
AcDbLine
 10
195.943
 20
122.155
 30
0
 11
193.943
 21
122.155
 31
0
  0
LINE
  5
A6A
330
A02
100
AcDbEntity
  8
ProjItem001
100
AcDbLine
 10
193.943
 20
122.155
 30
0
 11
193.943
 21
107.255
 31
0
  0
LINE
  5
A6B
330
A02
100
AcDbEntity
  8
ProjItem001
100
AcDbLine
 10
193.943
 20
107.255
 30
0
 11
195.943
 21
107.255
 31
0
  0
LINE
  5
A6C
330
A02
100
AcDbEntity
  8
ProjItem001
100
AcDbLine
 10
195.943
 20
107.255
 30
0
 11
195.943
 21
99.1549
 31
0
  0
LINE
  5
A6D
330
A02
100
AcDbEntity
  8
ProjItem001
100
AcDbLine
 10
195.943
 20
99.1549
 30
0
 11
193.943
 21
99.1549
 31
0
  0
LINE
  5
A6E
330
A02
100
AcDbEntity
  8
ProjItem001
100
AcDbLine
 10
193.943
 20
99.1549
 30
0
 11
193.943
 21
84.2549
 31
0
  0
LINE
  5
A6F
330
A02
100
AcDbEntity
  8
ProjItem001
100
AcDbLine
 10
193.943
 20
84.2549
 30
0
 11
195.943
 21
84.2549
 31
0
  0
LINE
  5
A70
330
A02
100
AcDbEntity
  8
ProjItem001
100
AcDbLine
 10
195.943
 20
84.2549
 30
0
 11
195.943
 21
76.1549
 31
0
  0
LINE
  5
A71
330
A02
100
AcDbEntity
  8
ProjItem001
100
AcDbLine
 10
195.943
 20
76.1549
 30
0
 11
193.943
 21
76.1549
 31
0
  0
LINE
  5
A72
330
A02
100
AcDbEntity
  8
ProjItem001
100
AcDbLine
 10
193.943
 20
76.1549
 30
0
 11
193.943
 21
69.1549
 31
0
  0
LINE
  5
A73
330
A02
100
AcDbEntity
  8
ProjItem001
100
AcDbLine
 10
193.943
 20
69.1549
 30
0
 11
183.943
 21
69.1549
 31
0
  0
LINE
  5
A74
330
A02
100
AcDbEntity
  8
ProjItem001
100
AcDbLine
 10
183.943
 20
69.1549
 30
0
 11
183.943
 21
76.1549
 31
0
  0
LINE
  5
A75
330
A02
100
AcDbEntity
  8
ProjItem001
100
AcDbLine
 10
183.943
 20
76.1549
 30
0
 11
181.943
 21
76.1549
 31
0
  0
LINE
  5
A76
330
A02
100
AcDbEntity
  8
ProjItem001
100
AcDbLine
 10
181.943
 20
76.1549
 30
0
 11
181.943
 21
84.2549
 31
0
  0
LINE
  5
A77
330
A02
100
AcDbEntity
  8
ProjItem001
100
AcDbLine
 10
181.943
 20
84.2549
 30
0
 11
183.943
 21
84.2549
 31
0
  0
LINE
  5
A78
330
A02
100
AcDbEntity
  8
ProjItem001
100
AcDbLine
 10
183.943
 20
84.2549
 30
0
 11
183.943
 21
99.1549
 31
0
  0
LINE
  5
A79
330
A02
100
AcDbEntity
  8
ProjItem001
100
AcDbLine
 10
183.943
 20
99.1549
 30
0
 11
181.943
 21
99.1549
 31
0
  0
LINE
  5
A7A
330
A02
100
AcDbEntity
  8
ProjItem001
100
AcDbLine
 10
181.943
 20
99.1549
 30
0
 11
181.943
 21
107.255
 31
0
  0
LINE
  5
A7B
330
A02
100
AcDbEntity
  8
ProjItem001
100
AcDbLine
 10
181.943
 20
107.255
 30
0
 11
183.943
 21
107.255
 31
0
  0
LINE
  5
A7C
330
A02
100
AcDbEntity
  8
ProjItem001
100
AcDbLine
 10
183.943
 20
107.255
 30
0
 11
183.943
 21
122.155
 31
0
  0
LINE
  5
A7D
330
A02
100
AcDbEntity
  8
ProjItem001
100
AcDbLine
 10
183.943
 20
122.155
 30
0
 11
181.943
 21
122.155
 31
0
  0
LINE
  5
A7E
330
A02
100
AcDbEntity
  8
ProjItem001
100
AcDbLine
 10
181.943
 20
122.155
 30
0
 11
181.943
 21
130.255
 31
0
  0
LINE
  5
A7F
330
A02
100
AcDbEntity
  8
ProjItem001
100
AcDbLine
 10
181.943
 20
130.255
 30
0
 11
183.943
 21
130.255
 31
0
  0
LINE
  5
A80
330
A02
100
AcDbEntity
  8
ProjItem001
100
AcDbLine
 10
183.943
 20
130.255
 30
0
 11
183.943
 21
138.128
 31
0
  0
ARC
  5
A81
330
A02
100
AcDbEntity
  8
ProjItem001
100
AcDbCircle
 10
186.66
 20
138.128
 30
0
 40
2.71757
100
AcDbArc
 50
90
 51
180
  0
LINE
  5
A82
330
A02
100
AcDbEntity
  8
ProjItem001
100
AcDbLine
 10
189.745
 20
91.6409
 30
0
 11
189.745
 21
107.641
 31
0
  0
LINE
  5
A83
330
A02
100
AcDbEntity
  8
ProjItem001
100
AcDbLine
 10
189.745
 20
107.641
 30
0
 11
185.745
 21
107.641
 31
0
  0
LINE
  5
A84
330
A02
100
AcDbEntity
  8
ProjItem001
100
AcDbLine
 10
185.745
 20
107.641
 30
0
 11
185.745
 21
91.6409
 31
0
  0
LINE
  5
A85
330
A02
100
AcDbEntity
  8
ProjItem001
100
AcDbLine
 10
185.745
 20
91.6409
 30
0
 11
189.745
 21
91.6409
 31
0
  0
ENDSEC
  0
SECTION
  2
OBJECTS
  0
DICTIONARY
  5
F000
330
0
100
AcDbDictionary
  3
ACAD_GROUP
350
F001
  0
DICTIONARY
  5
F001
330
F000
100
AcDbDictionary
  0
ENDSEC
  0
EOF