999
FreeCAD v0.19 24366 (Git)
  0
SECTION
  2
HEADER
  9
$ACADVER
  1
AC1014
  9
$ACADMAINTVER
 70
     9
  9
$DWGCODEPAGE
  3
ANSI_1252
  9
$TEXTSTYLE
  7
STANDARD
  9
$DIMSTYLE
  2
STANDARD
  9
$DIMTXSTY
  7
STANDARD
  9
$CMLSTYLE
  2
STANDARD
  9
$PEXTMAX
 10
50
 20
50
 30
50
  9
$PEXTMIN
 10
0
 20
0
 30
0
  9
$HANDSEED
  5
FFFF
  0
ENDSEC
  0
SECTION
  2
CLASSES
  0
CLASS
  1
ACDBDICTIONARYWDFLT
  2
AcDbDictionaryWithDefault
  3
ObjectDBX Classes
 90
        0
280
     0
281
     0
  0
CLASS
  1
XRECORD
  2
AcDbXrecord
  3
ObjectDBX Classes
 90
        0
280
     0
281
     0
  0
CLASS
  1
LWPOLYLINE
  2
AcDbPolyline
  3
ObjectDBX Classes
 90
        0
280
     0
281
     1
  0
ENDSEC
  0
SECTION
  2
TABLES
  0
TABLE
  2
VPORT
  5
20
330
0
100
AcDbSymbolTable
 70
     1
  0
VPORT
  5
21
330
20
100
AcDbSymbolTableRecord
100
AcDbViewportTableRecord
  2
*ACTIVE
 70
     0
  0
ENDTAB
  0
TABLE
  2
LTYPE
  5
22
330
0
100
AcDbSymbolTable
 70
     1
  0
LTYPE
  5
23
330
21
100
AcDbSymbolTableRecord
100
AcDbLinetypeTableRecord
  2
BYBLOCK
 70
     0
  3

 72
    65
 73
     0
 40
0.0
  0
LTYPE
  5
24
330
21
100
AcDbSymbolTableRecord
100
AcDbLinetypeTableRecord
  2
BYLAYER
 70
     0
  3

 72
    65
 73
     0
 40
0.0
  0
LTYPE
  5
25
330
21
100
AcDbSymbolTableRecord
100
AcDbLinetypeTableRecord
  2
CONTINUOUS
 70
     0
  3
Solid line
 72
    65
 73
     0
 40
0.0
  0
ENDTAB
  0
TABLE
  2
LAYER
  5
AB8
330
0
100
AcDbSymbolTable
 70
3
  0
LAYER
  5
AB9
330
AB8
100
AcDbSymbolTableRecord
100
AcDbLayerTableRecord
  2
0
 70
   0
 62
   7
  6
CONTINUOUS
  0
LAYER
  5
ABA
330
AB8
100
AcDbSymbolTableRecord
100
AcDbLayerTableRecord
  2
View001
 70
    0
 62
    7
  6
CONTINUOUS
  0
LAYER
  5
ABB
330
AB8
100
AcDbSymbolTableRecord
100
AcDbLayerTableRecord
  2
View003
 70
    0
 62
    7
  6
CONTINUOUS
  0
ENDTAB
  0
TABLE
  2
STYLE
  5
70
330
0
100
AcDbSymbolTable
 70
     2
  0
STYLE
  5
71
330
70
100
AcDbSymbolTableRecord
100
AcDbTextStyleTableRecord
  2
STANDARD
 70
     0
 40
0.0
 41
1.0
 50
0.0
 71
     0
 42
2.5
  3
arial.ttf
  4

  0
STYLE
  5
72
330
70
100
AcDbSymbolTableRecord
100
AcDbTextStyleTableRecord
  2
ANNOTATIVE
 70
     0
 40
0.0
 41
1.0
 50
0.0
 71
     0
 42
2.5
  3
arial.ttf
  4

  0
ENDTAB
  0
TABLE
  2
VIEW
  5
73
330
0
100
AcDbSymbolTable
 70
     0
  0
ENDTAB
  0
TABLE
  2
UCS
  5
74
330
0
100
AcDbSymbolTable
 70
     0
  0
ENDTAB
  0
TABLE
  2
APPID
  5
75
330
0
100
AcDbSymbolTable
 70
     2
  0
APPID
  5
76
330
75
100
AcDbSymbolTableRecord
100
AcDbRegAppTableRecord
  2
ACAD
 70
     0
  0
APPID
  5
77
330
75
100
AcDbSymbolTableRecord
100
AcDbRegAppTableRecord
  2
ACADANNOTATIVE
 70
     0
  0
ENDTAB
  0
TABLE
  2
DIMSTYLE
  5
78
330
0
100
AcDbSymbolTable
 70
     2
  0
DIMSTYLE
105
79
330
78
100
AcDbSymbolTableRecord
100
AcDbDimStyleTableRecord
  2
STANDARD
 70
     0
  3

  4

  5

  6

  7

 40
0.0
 41
2.5
 42
0.625
 43
3.75
 44
1.25
 45
0.0
 46
0.0
 47
0.0
 48
0.0
140
2.5
141
2.5
142
0.0
143
0.03937007874016
144
1.0
145
0.0
146
1.0
147
0.625
 71
     0
 72
     0
 73
     0
 74
     0
 75
     0
 76
     0
 77
     1
 78
     8
170
     0
171
     3
172
     1
173
     0
174
     0
175
     0
176
     0
177
     0
178
     0
270
     2
271
     2
272
     2
273
     2
274
     3
340
71
275
     0
280
     0
281
     0
282
     0
283
     0
284
     8
285
     0
286
     0
287
     3
288
     0
  0
ENDTAB
  0
TABLE
  2
BLOCK_RECORD
  5
A01
330
0
100
AcDbSymbolTable
  70
5
  0
BLOCK_RECORD
  5
A02
330
A01
100
AcDbSymbolTableRecord
100
AcDbBlockTableRecord
  2
*MODEL_SPACE
  0
BLOCK_RECORD
  5
A03
330
A01
100
AcDbSymbolTableRecord
100
AcDbBlockTableRecord
  2
*PAPER_SPACE
  0
ENDTAB
  0
ENDSEC
  0
SECTION
  2
BLOCKS
  0
BLOCK
  5
A04
330
A02
100
AcDbEntity
  8
0
100
AcDbBlockBegin
  2
*MODEL_SPACE
 70
   0
 10
0
 20
0
 30
0
  3
*MODEL_SPACE
  1
 
  0
ENDBLK
  5
A05
330
A02
100
AcDbEntity
  8
0
100
AcDbBlockEnd
  0
BLOCK
  5
A06
330
A03
100
AcDbEntity
 67
1
  8
0
100
AcDbBlockBegin
  2
*PAPER_SPACE
 70
   0
 10
0
 20
0
 30
0
  3
*PAPER_SPACE
  1
 
  0
ENDBLK
  5
A07
330
A03
100
AcDbEntity
 67
    1
  8
0
100
AcDbBlockEnd
  0
ENDSEC
  0
SECTION
  2
ENTITIES
  0
SPLINE
  5
A08
330
A02
100
AcDbEntity
  8
View001
100
AcDbSpline
210
0
220
0
230
1
 70
8
 71
1
 72
4
 73
2
 74
0
 40
0
 40
0
 40
3.88865e-06
 40
3.88865e-06
 10
16.5997
 20
287.198
 30
0
 10
16.5997
 20
287.198
 30
0
  0
SPLINE
  5
A09
330
A02
100
AcDbEntity
  8
View001
100
AcDbSpline
210
0
220
0
230
1
 70
8
 71
3
 72
8
 73
4
 74
0
 40
0
 40
0
 40
0
 40
0
 40
1
 40
1
 40
1
 40
1
 10
16.5997
 20
287.198
 30
0
 10
16.1879
 20
287.173
 30
0
 10
15.739
 20
287.168
 30
0
 10
15.3792
 20
286.951
 30
0
  0
SPLINE
  5
A0A
330
A02
100
AcDbEntity
  8
View001
100
AcDbSpline
210
0
220
0
230
1
 70
8
 71
3
 72
8
 73
4
 74
0
 40
0
 40
0
 40
0
 40
0
 40
1
 40
1
 40
1
 40
1
 10
15.3792
 20
286.951
 30
0
 10
14.2484
 20
285.839
 30
0
 10
13.0417
 20
284.731
 30
0
 10
12.3576
 20
283.271
 30
0
  0
SPLINE
  5
A0B
330
A02
100
AcDbEntity
  8
View001
100
AcDbSpline
210
0
220
0
230
1
 70
8
 71
3
 72
8
 73
4
 74
0
 40
0
 40
0
 40
0
 40
0
 40
1
 40
1
 40
1
 40
1
 10
12.3576
 20
283.271
 30
0
 10
11.2274
 20
281.046
 30
0
 10
10.8791
 20
278.516
 30
0
 10
10.8538
 20
276.045
 30
0
  0
SPLINE
  5
A0C
330
A02
100
AcDbEntity
  8
View001
100
AcDbSpline
210
0
220
0
230
1
 70
8
 71
3
 72
8
 73
4
 74
0
 40
0
 40
0
 40
0
 40
0
 40
1
 40
1
 40
1
 40
1
 10
10.8538
 20
276.045
 30
0
 10
10.7902
 20
273.169
 30
0
 10
11.5464
 20
270.354
 30
0
 10
12.4375
 20
267.644
 30
0
  0
SPLINE
  5
A0D
330
A02
100
AcDbEntity
  8
View001
100
AcDbSpline
210
0
220
0
230
1
 70
8
 71
3
 72
8
 73
4
 74
0
 40
0
 40
0
 40
0
 40
0
 40
1
 40
1
 40
1
 40
1
 10
12.4375
 20
267.644
 30
0
 10
13.4295
 20
264.688
 30
0
 10
14.6168
 20
261.802
 30
0
 10
15.6474
 20
258.86
 30
0
  0
SPLINE
  5
A0E
330
A02
100
AcDbEntity
  8
View001
100
AcDbSpline
210
0
220
0
230
1
 70
8
 71
3
 72
8
 73
4
 74
0
 40
0
 40
0
 40
0
 40
0
 40
1
 40
1
 40
1
 40
1
 10
15.6474
 20
258.86
 30
0
 10
17.4271
 20
253.999
 30
0
 10
19.8994
 20
249.41
 30
0
 10
22.812
 20
245.137
 30
0
  0
SPLINE
  5
A0F
330
A02
100
AcDbEntity
  8
View001
100
AcDbSpline
210
0
220
0
230
1
 70
8
 71
3
 72
8
 73
4
 74
0
 40
0
 40
0
 40
0
 40
0
 40
1
 40
1
 40
1
 40
1
 10
22.812
 20
245.137
 30
0
 10
24.5311
 20
242.607
 30
0
 10
26.3444
 20
240.139
 30
0
 10
28.2682
 20
237.76
 30
0
  0
SPLINE
  5
A10
330
A02
100
AcDbEntity
  8
View001
100
AcDbSpline
210
0
220
0
230
1
 70
8
 71
3
 72
8
 73
4
 74
0
 40
0
 40
0
 40
0
 40
0
 40
1
 40
1
 40
1
 40
1
 10
28.2682
 20
237.76
 30
0
 10
29.685
 20
236.007
 30
0
 10
31.1718
 20
234.313
 30
0
 10
32.6665
 20
232.627
 30
0
  0
SPLINE
  5
A11
330
A02
100
AcDbEntity
  8
View001
100
AcDbSpline
210
0
220
0
230
1
 70
8
 71
3
 72
8
 73
4
 74
0
 40
0
 40
0
 40
0
 40
0
 40
1
 40
1
 40
1
 40
1
 10
32.6665
 20
232.627
 30
0
 10
32.8397
 20
232.42
 30
0
 10
33.0206
 20
232.214
 30
0
 10
33.173
 20
232.026
 30
0
  0
SPLINE
  5
A12
330
A02
100
AcDbEntity
  8
View001
100
AcDbSpline
210
0
220
0
230
1
 70
8
 71
3
 72
8
 73
4
 74
0
 40
0
 40
0
 40
0
 40
0
 40
1
 40
1
 40
1
 40
1
 10
33.173
 20
232.026
 30
0
 10
33.3329
 20
231.832
 30
0
 10
33.4571
 20
231.674
 30
0
 10
33.6142
 20
231.465
 30
0
  0
SPLINE
  5
A13
330
A02
100
AcDbEntity
  8
View001
100
AcDbSpline
210
0
220
0
230
1
 70
8
 71
3
 72
8
 73
4
 74
0
 40
0
 40
0
 40
0
 40
0
 40
1
 40
1
 40
1
 40
1
 10
33.6142
 20
231.465
 30
0
 10
34.1083
 20
230.801
 30
0
 10
34.5237
 20
230.042
 30
0
 10
34.5891
 20
229.202
 30
0
  0
SPLINE
  5
A14
330
A02
100
AcDbEntity
  8
View001
100
AcDbSpline
210
0
220
0
230
1
 70
8
 71
3
 72
8
 73
4
 74
0
 40
0
 40
0
 40
0
 40
0
 40
1
 40
1
 40
1
 40
1
 10
34.5891
 20
229.202
 30
0
 10
34.6189
 20
228.972
 30
0
 10
34.6307
 20
228.716
 30
0
 10
34.641
 20
228.537
 30
0
  0
SPLINE
  5
A15
330
A02
100
AcDbEntity
  8
View001
100
AcDbSpline
210
0
220
0
230
1
 70
8
 71
3
 72
8
 73
4
 74
0
 40
0
 40
0
 40
0
 40
0
 40
1
 40
1
 40
1
 40
1
 10
34.641
 20
228.537
 30
0
 10
34.6888
 20
227.226
 30
0
 10
34.6953
 20
225.907
 30
0
 10
34.8079
 20
224.596
 30
0
  0
SPLINE
  5
A16
330
A02
100
AcDbEntity
  8
View001
100
AcDbSpline
210
0
220
0
230
1
 70
8
 71
3
 72
8
 73
4
 74
0
 40
0
 40
0
 40
0
 40
0
 40
1
 40
1
 40
1
 40
1
 10
34.8079
 20
224.596
 30
0
 10
36.2218
 20
221.377
 30
0
 10
37.5823
 20
218.131
 30
0
 10
39.1462
 20
214.98
 30
0
  0
SPLINE
  5
A17
330
A02
100
AcDbEntity
  8
View001
100
AcDbSpline
210
0
220
0
230
1
 70
8
 71
3
 72
8
 73
4
 74
0
 40
0
 40
0
 40
0
 40
0
 40
1
 40
1
 40
1
 40
1
 10
39.1462
 20
214.98
 30
0
 10
39.2681
 20
214.717
 30
0
 10
39.3704
 20
214.484
 30
0
 10
39.4872
 20
214.204
 30
0
  0
SPLINE
  5
A18
330
A02
100
AcDbEntity
  8
View001
100
AcDbSpline
210
0
220
0
230
1
 70
8
 71
3
 72
8
 73
4
 74
0
 40
0
 40
0
 40
0
 40
0
 40
1
 40
1
 40
1
 40
1
 10
39.4872
 20
214.204
 30
0
 10
39.7424
 20
213.595
 30
0
 10
39.9754
 20
212.961
 30
0
 10
40.176
 20
212.356
 30
0
  0
SPLINE
  5
A19
330
A02
100
AcDbEntity
  8
View001
100
AcDbSpline
210
0
220
0
230
1
 70
8
 71
3
 72
8
 73
4
 74
0
 40
0
 40
0
 40
0
 40
0
 40
1
 40
1
 40
1
 40
1
 10
40.176
 20
212.356
 30
0
 10
40.5876
 20
211.123
 30
0
 10
40.9114
 20
209.897
 30
0
 10
41.212
 20
208.633
 30
0
  0
SPLINE
  5
A1A
330
A02
100
AcDbEntity
  8
View001
100
AcDbSpline
210
0
220
0
230
1
 70
8
 71
2
 72
6
 73
3
 74
0
 40
0
 40
0
 40
0
 40
1
 40
1
 40
1
 10
41.212
 20
208.633
 30
0
 10
41.3478
 20
208.086
 30
0
 10
41.4588
 20
207.5
 30
0
  0
SPLINE
  5
A1B
330
A02
100
AcDbEntity
  8
View001
100
AcDbSpline
210
0
220
0
230
1
 70
8
 71
2
 72
6
 73
3
 74
0
 40
0
 40
0
 40
0
 40
1
 40
1
 40
1
 10
41.4588
 20
207.5
 30
0
 10
41.5377
 20
207.083
 30
0
 10
41.5943
 20
206.7
 30
0
  0
SPLINE
  5
A1C
330
A02
100
AcDbEntity
  8
View001
100
AcDbSpline
210
0
220
0
230
1
 70
8
 71
3
 72
8
 73
4
 74
0
 40
0
 40
0
 40
0
 40
0
 40
1
 40
1
 40
1
 40
1
 10
41.5943
 20
206.7
 30
0
 10
41.7038
 20
205.996
 30
0
 10
41.7813
 20
205.32
 30
0
 10
41.8637
 20
204.607
 30
0
  0
SPLINE
  5
A1D
330
A02
100
AcDbEntity
  8
View001
100
AcDbSpline
210
0
220
0
230
1
 70
8
 71
3
 72
8
 73
4
 74
0
 40
0
 40
0
 40
0
 40
0
 40
1
 40
1
 40
1
 40
1
 10
41.8637
 20
204.607
 30
0
 10
42.0496
 20
202.904
 30
0
 10
42.4202
 20
201.229
 30
0
 10
42.7749
 20
199.555
 30
0
  0
SPLINE
  5
A1E
330
A02
100
AcDbEntity
  8
View001
100
AcDbSpline
210
0
220
0
230
1
 70
8
 71
3
 72
8
 73
4
 74
0
 40
0
 40
0
 40
0
 40
0
 40
1
 40
1
 40
1
 40
1
 10
42.7749
 20
199.555
 30
0
 10
43.021
 20
198.482
 30
0
 10
43.4433
 20
197.44
 30
0
 10
44.1092
 20
196.557
 30
0
  0
SPLINE
  5
A1F
330
A02
100
AcDbEntity
  8
View001
100
AcDbSpline
210
0
220
0
230
1
 70
8
 71
3
 72
8
 73
4
 74
0
 40
0
 40
0
 40
0
 40
0
 40
1
 40
1
 40
1
 40
1
 10
44.1092
 20
196.557
 30
0
 10
44.8676
 20
195.516
 30
0
 10
45.8501
 20
194.667
 30
0
 10
46.8629
 20
193.883
 30
0
  0
SPLINE
  5
A20
330
A02
100
AcDbEntity
  8
View001
100
AcDbSpline
210
0
220
0
230
1
 70
8
 71
3
 72
8
 73
4
 74
0
 40
0
 40
0
 40
0
 40
0
 40
1
 40
1
 40
1
 40
1
 10
46.8629
 20
193.883
 30
0
 10
46.807
 20
191.573
 30
0
 10
46.9988
 20
189.264
 30
0
 10
47.2963
 20
186.975
 30
0
  0
SPLINE
  5
A21
330
A02
100
AcDbEntity
  8
View001
100
AcDbSpline
210
0
220
0
230
1
 70
8
 71
3
 72
8
 73
4
 74
0
 40
0
 40
0
 40
0
 40
0
 40
1
 40
1
 40
1
 40
1
 10
47.2963
 20
186.975
 30
0
 10
47.5424
 20
185.296
 30
0
 10
47.8847
 20
183.62
 30
0
 10
48.478
 20
182.026
 30
0
  0
SPLINE
  5
A22
330
A02
100
AcDbEntity
  8
View001
100
AcDbSpline
210
0
220
0
230
1
 70
8
 71
3
 72
8
 73
4
 74
0
 40
0
 40
0
 40
0
 40
0
 40
1
 40
1
 40
1
 40
1
 10
48.478
 20
182.026
 30
0
 10
48.9074
 20
180.903
 30
0
 10
49.5472
 20
179.87
 30
0
 10
50.3227
 20
178.953
 30
0
  0
SPLINE
  5
A23
330
A02
100
AcDbEntity
  8
View001
100
AcDbSpline
210
0
220
0
230
1
 70
8
 71
2
 72
6
 73
3
 74
0
 40
0
 40
0
 40
0
 40
1
 40
1
 40
1
 10
50.3227
 20
178.953
 30
0
 10
51.4454
 20
177.588
 30
0
 10
52.6515
 20
176.296
 30
0
  0
SPLINE
  5
A24
330
A02
100
AcDbEntity
  8
View001
100
AcDbSpline
210
0
220
0
230
1
 70
8
 71
3
 72
8
 73
4
 74
0
 40
0
 40
0
 40
0
 40
0
 40
1
 40
1
 40
1
 40
1
 10
52.6515
 20
176.296
 30
0
 10
53.9713
 20
174.954
 30
0
 10
55.4492
 20
173.78
 30
0
 10
56.9734
 20
172.681
 30
0
  0
SPLINE
  5
A25
330
A02
100
AcDbEntity
  8
View001
100
AcDbSpline
210
0
220
0
230
1
 70
8
 71
3
 72
8
 73
4
 74
0
 40
0
 40
0
 40
0
 40
0
 40
1
 40
1
 40
1
 40
1
 10
56.9734
 20
172.681
 30
0
 10
56.3003
 20
171.705
 30
0
 10
55.6284
 20
170.724
 30
0
 10
55.0578
 20
169.683
 30
0
  0
SPLINE
  5
A26
330
A02
100
AcDbEntity
  8
View001
100
AcDbSpline
210
0
220
0
230
1
 70
8
 71
3
 72
8
 73
4
 74
0
 40
0
 40
0
 40
0
 40
0
 40
1
 40
1
 40
1
 40
1
 10
55.0578
 20
169.683
 30
0
 10
54.2369
 20
168.106
 30
0
 10
53.8215
 20
166.349
 30
0
 10
53.6525
 20
164.586
 30
0
  0
SPLINE
  5
A27
330
A02
100
AcDbEntity
  8
View001
100
AcDbSpline
210
0
220
0
230
1
 70
8
 71
3
 72
8
 73
4
 74
0
 40
0
 40
0
 40
0
 40
0
 40
1
 40
1
 40
1
 40
1
 10
53.6525
 20
164.586
 30
0
 10
53.3143
 20
161.878
 30
0
 10
53.1855
 20
159.15
 30
0
 10
53.0141
 20
156.428
 30
0
  0
SPLINE
  5
A28
330
A02
100
AcDbEntity
  8
View001
100
AcDbSpline
210
0
220
0
230
1
 70
8
 71
3
 72
8
 73
4
 74
0
 40
0
 40
0
 40
0
 40
0
 40
1
 40
1
 40
1
 40
1
 10
53.0141
 20
156.428
 30
0
 10
52.8906
 20
154.792
 30
0
 10
52.7811
 20
153.166
 30
0
 10
52.5567
 20
151.527
 30
0
  0
SPLINE
  5
A29
330
A02
100
AcDbEntity
  8
View001
100
AcDbSpline
210
0
220
0
230
1
 70
8
 71
3
 72
8
 73
4
 74
0
 40
0
 40
0
 40
0
 40
0
 40
1
 40
1
 40
1
 40
1
 10
52.5567
 20
151.527
 30
0
 10
52.4332
 20
150.754
 30
0
 10
52.369
 20
149.947
 30
0
 10
51.9935
 20
149.243
 30
0
  0
SPLINE
  5
A2A
330
A02
100
AcDbEntity
  8
View001
100
AcDbSpline
210
0
220
0
230
1
 70
8
 71
3
 72
8
 73
4
 74
0
 40
0
 40
0
 40
0
 40
0
 40
1
 40
1
 40
1
 40
1
 10
51.9935
 20
149.243
 30
0
 10
51.6513
 20
148.511
 30
0
 10
51.3032
 20
147.704
 30
0
 10
51.4714
 20
146.879
 30
0
  0
SPLINE
  5
A2B
330
A02
100
AcDbEntity
  8
View001
100
AcDbSpline
210
0
220
0
230
1
 70
8
 71
3
 72
8
 73
4
 74
0
 40
0
 40
0
 40
0
 40
0
 40
1
 40
1
 40
1
 40
1
 10
51.4714
 20
146.879
 30
0
 10
51.5694
 20
146.408
 30
0
 10
51.9662
 20
146.079
 30
0
 10
52.0829
 20
145.615
 30
0
  0
SPLINE
  5
A2C
330
A02
100
AcDbEntity
  8
View001
100
AcDbSpline
210
0
220
0
230
1
 70
8
 71
3
 72
8
 73
4
 74
0
 40
0
 40
0
 40
0
 40
0
 40
1
 40
1
 40
1
 40
1
 10
52.0829
 20
145.615
 30
0
 10
52.4239
 20
144.619
 30
0
 10
52.5584
 20
143.569
 30
0
 10
52.7595
 20
142.54
 30
0
  0
SPLINE
  5
A2D
330
A02
100
AcDbEntity
  8
View001
100
AcDbSpline
210
0
220
0
230
1
 70
8
 71
3
 72
8
 73
4
 74
0
 40
0
 40
0
 40
0
 40
0
 40
1
 40
1
 40
1
 40
1
 10
52.7595
 20
142.54
 30
0
 10
52.9356
 20
141.495
 30
0
 10
53.0618
 20
140.372
 30
0
 10
53.3154
 20
139.31
 30
0
  0
SPLINE
  5
A2E
330
A02
100
AcDbEntity
  8
View001
100
AcDbSpline
210
0
220
0
230
1
 70
8
 71
3
 72
8
 73
4
 74
0
 40
0
 40
0
 40
0
 40
0
 40
1
 40
1
 40
1
 40
1
 10
53.3154
 20
139.31
 30
0
 10
53.6157
 20
138.17
 30
0
 10
54.0578
 20
137.045
 30
0
 10
54.7611
 20
136.09
 30
0
  0
SPLINE
  5
A2F
330
A02
100
AcDbEntity
  8
View001
100
AcDbSpline
210
0
220
0
230
1
 70
8
 71
2
 72
6
 73
3
 74
0
 40
0
 40
0
 40
0
 40
1
 40
1
 40
1
 10
54.7611
 20
136.09
 30
0
 10
54.9688
 20
135.834
 30
0
 10
55.2015
 20
135.6
 30
0
  0
SPLINE
  5
A30
330
A02
100
AcDbEntity
  8
View001
100
AcDbSpline
210
0
220
0
230
1
 70
8
 71
3
 72
8
 73
4
 74
0
 40
0
 40
0
 40
0
 40
0
 40
1
 40
1
 40
1
 40
1
 10
55.2015
 20
135.6
 30
0
 10
54.4438
 20
133.647
 30
0
 10
53.9611
 20
131.544
 30
0
 10
54.1066
 20
129.439
 30
0
  0
SPLINE
  5
A31
330
A02
100
AcDbEntity
  8
View001
100
AcDbSpline
210
0
220
0
230
1
 70
8
 71
3
 72
8
 73
4
 74
0
 40
0
 40
0
 40
0
 40
0
 40
1
 40
1
 40
1
 40
1
 10
54.1066
 20
129.439
 30
0
 10
54.208
 20
128.501
 30
0
 10
54.5253
 20
127.605
 30
0
 10
54.8278
 20
126.717
 30
0
  0
SPLINE
  5
A32
330
A02
100
AcDbEntity
  8
View001
100
AcDbSpline
210
0
220
0
230
1
 70
8
 71
3
 72
8
 73
4
 74
0
 40
0
 40
0
 40
0
 40
0
 40
1
 40
1
 40
1
 40
1
 10
54.8278
 20
126.717
 30
0
 10
55.5602
 20
124.697
 30
0
 10
56.7146
 20
122.798
 30
0
 10
58.342
 20
121.374
 30
0
  0
SPLINE
  5
A33
330
A02
100
AcDbEntity
  8
View001
100
AcDbSpline
210
0
220
0
230
1
 70
8
 71
2
 72
6
 73
3
 74
0
 40
0
 40
0
 40
0
 40
1
 40
1
 40
1
 10
58.342
 20
121.374
 30
0
 10
59.1979
 20
120.613
 30
0
 10
60.1691
 20
120.007
 30
0
  0
SPLINE
  5
A34
330
A02
100
AcDbEntity
  8
View001
100
AcDbSpline
210
0
220
0
230
1
 70
8
 71
3
 72
8
 73
4
 74
0
 40
0
 40
0
 40
0
 40
0
 40
1
 40
1
 40
1
 40
1
 10
60.1691
 20
120.007
 30
0
 10
60.5956
 20
117.75
 30
0
 10
61.2495
 20
115.482
 30
0
 10
62.5537
 20
113.564
 30
0
  0
SPLINE
  5
A35
330
A02
100
AcDbEntity
  8
View001
100
AcDbSpline
210
0
220
0
230
1
 70
8
 71
3
 72
8
 73
4
 74
0
 40
0
 40
0
 40
0
 40
0
 40
1
 40
1
 40
1
 40
1
 10
62.5537
 20
113.564
 30
0
 10
63.7686
 20
111.703
 30
0
 10
65.1649
 20
109.895
 30
0
 10
67.0311
 20
108.644
 30
0
  0
SPLINE
  5
A36
330
A02
100
AcDbEntity
  8
View001
100
AcDbSpline
210
0
220
0
230
1
 70
8
 71
3
 72
8
 73
4
 74
0
 40
0
 40
0
 40
0
 40
0
 40
1
 40
1
 40
1
 40
1
 10
67.0311
 20
108.644
 30
0
 10
68.0414
 20
107.948
 30
0
 10
69.1801
 20
107.475
 30
0
 10
70.311
 20
107.015
 30
0
  0
SPLINE
  5
A37
330
A02
100
AcDbEntity
  8
View001
100
AcDbSpline
210
0
220
0
230
1
 70
8
 71
3
 72
8
 73
4
 74
0
 40
0
 40
0
 40
0
 40
0
 40
1
 40
1
 40
1
 40
1
 10
70.311
 20
107.015
 30
0
 10
71.4216
 20
106.49
 30
0
 10
72.5172
 20
105.905
 30
0
 10
73.4786
 20
105.134
 30
0
  0
SPLINE
  5
A38
330
A02
100
AcDbEntity
  8
View001
100
AcDbSpline
210
0
220
0
230
1
 70
8
 71
3
 72
8
 73
4
 74
0
 40
0
 40
0
 40
0
 40
0
 40
1
 40
1
 40
1
 40
1
 10
73.4786
 20
105.134
 30
0
 10
74.5121
 20
104.241
 30
0
 10
75.3417
 20
103.075
 30
0
 10
76.4239
 20
102.273
 30
0
  0
SPLINE
  5
A39
330
A02
100
AcDbEntity
  8
View001
100
AcDbSpline
210
0
220
0
230
1
 70
8
 71
3
 72
8
 73
4
 74
0
 40
0
 40
0
 40
0
 40
0
 40
1
 40
1
 40
1
 40
1
 10
76.4239
 20
102.273
 30
0
 10
77.487
 20
101.385
 30
0
 10
78.8872
 20
101.078
 30
0
 10
80.2287
 20
100.915
 30
0
  0
SPLINE
  5
A3A
330
A02
100
AcDbEntity
  8
View001
100
AcDbSpline
210
0
220
0
230
1
 70
8
 71
3
 72
8
 73
4
 74
0
 40
0
 40
0
 40
0
 40
0
 40
1
 40
1
 40
1
 40
1
 10
80.2287
 20
100.915
 30
0
 10
81.1143
 20
100.791
 30
0
 10
82.0512
 20
100.716
 30
0
 10
82.8325
 20
100.241
 30
0
  0
SPLINE
  5
A3B
330
A02
100
AcDbEntity
  8
View001
100
AcDbSpline
210
0
220
0
230
1
 70
8
 71
3
 72
8
 73
4
 74
0
 40
0
 40
0
 40
0
 40
0
 40
1
 40
1
 40
1
 40
1
 10
82.8325
 20
100.241
 30
0
 10
83.7153
 20
99.5353
 30
0
 10
84.4402
 20
98.6396
 30
0
 10
85.3955
 20
98.0203
 30
0
  0
SPLINE
  5
A3C
330
A02
100
AcDbEntity
  8
View001
100
AcDbSpline
210
0
220
0
230
1
 70
8
 71
3
 72
8
 73
4
 74
0
 40
0
 40
0
 40
0
 40
0
 40
1
 40
1
 40
1
 40
1
 10
85.3955
 20
98.0203
 30
0
 10
86.3466
 20
97.3518
 30
0
 10
87.5051
 20
97.0209
 30
0
 10
88.6617
 20
96.9996
 30
0
  0
SPLINE
  5
A3D
330
A02
100
AcDbEntity
  8
View001
100
AcDbSpline
210
0
220
0
230
1
 70
8
 71
3
 72
8
 73
4
 74
0
 40
0
 40
0
 40
0
 40
0
 40
1
 40
1
 40
1
 40
1
 10
88.6617
 20
96.9996
 30
0
 10
89.6395
 20
96.9461
 30
0
 10
90.6472
 20
97.1844
 30
0
 10
91.5984
 20
96.8632
 30
0
  0
SPLINE
  5
A3E
330
A02
100
AcDbEntity
  8
View001
100
AcDbSpline
210
0
220
0
230
1
 70
8
 71
3
 72
8
 73
4
 74
0
 40
0
 40
0
 40
0
 40
0
 40
1
 40
1
 40
1
 40
1
 10
91.5984
 20
96.8632
 30
0
 10
94.0831
 20
95.8685
 30
0
 10
96.4422
 20
94.5931
 30
0
 10
98.863
 20
93.4571
 30
0
  0
SPLINE
  5
A3F
330
A02
100
AcDbEntity
  8
View001
100
AcDbSpline
210
0
220
0
230
1
 70
8
 71
3
 72
8
 73
4
 74
0
 40
0
 40
0
 40
0
 40
0
 40
1
 40
1
 40
1
 40
1
 10
98.863
 20
93.4571
 30
0
 10
99.8109
 20
92.995
 30
0
 10
100.791
 20
92.5733
 30
0
 10
101.834
 20
92.3832
 30
0
  0
SPLINE
  5
A40
330
A02
100
AcDbEntity
  8
View001
100
AcDbSpline
210
0
220
0
230
1
 70
8
 71
3
 72
8
 73
4
 74
0
 40
0
 40
0
 40
0
 40
0
 40
1
 40
1
 40
1
 40
1
 10
101.834
 20
92.3832
 30
0
 10
102.702
 20
92.2131
 30
0
 10
103.613
 20
92.2703
 30
0
 10
104.442
 20
92.5861
 30
0
  0
SPLINE
  5
A41
330
A02
100
AcDbEntity
  8
View001
100
AcDbSpline
210
0
220
0
230
1
 70
8
 71
3
 72
8
 73
4
 74
0
 40
0
 40
0
 40
0
 40
0
 40
1
 40
1
 40
1
 40
1
 10
104.442
 20
92.5861
 30
0
 10
105.147
 20
92.8286
 30
0
 10
105.847
 20
93.1267
 30
0
 10
106.6
 20
93.1718
 30
0
  0
SPLINE
  5
A42
330
A02
100
AcDbEntity
  8
View001
100
AcDbSpline
210
0
220
0
230
1
 70
8
 71
3
 72
8
 73
4
 74
0
 40
0
 40
0
 40
0
 40
0
 40
1
 40
1
 40
1
 40
1
 10
106.6
 20
93.1718
 30
0
 10
107.757
 20
93.2841
 30
0
 10
108.919
 20
93.1562
 30
0
 10
110.071
 20
93.0468
 30
0
  0
SPLINE
  5
A43
330
A02
100
AcDbEntity
  8
View001
100
AcDbSpline
210
0
220
0
230
1
 70
8
 71
3
 72
8
 73
4
 74
0
 40
0
 40
0
 40
0
 40
0
 40
1
 40
1
 40
1
 40
1
 10
110.071
 20
93.0468
 30
0
 10
111.651
 20
92.8455
 30
0
 10
113.166
 20
92.3715
 30
0
 10
114.751
 20
92.1675
 30
0
  0
SPLINE
  5
A44
330
A02
100
AcDbEntity
  8
View001
100
AcDbSpline
210
0
220
0
230
1
 70
8
 71
3
 72
8
 73
4
 74
0
 40
0
 40
0
 40
0
 40
0
 40
1
 40
1
 40
1
 40
1
 10
114.751
 20
92.1675
 30
0
 10
116.441
 20
91.9693
 30
0
 10
118.221
 20
91.9433
 30
0
 10
119.82
 20
92.6072
 30
0
  0
SPLINE
  5
A45
330
A02
100
AcDbEntity
  8
View001
100
AcDbSpline
210
0
220
0
230
1
 70
8
 71
3
 72
8
 73
4
 74
0
 40
0
 40
0
 40
0
 40
0
 40
1
 40
1
 40
1
 40
1
 10
119.82
 20
92.6072
 30
0
 10
121.188
 20
93.167
 30
0
 10
122.306
 20
94.1567
 30
0
 10
123.433
 20
95.0852
 30
0
  0
SPLINE
  5
A46
330
A02
100
AcDbEntity
  8
View001
100
AcDbSpline
210
0
220
0
230
1
 70
8
 71
3
 72
8
 73
4
 74
0
 40
0
 40
0
 40
0
 40
0
 40
1
 40
1
 40
1
 40
1
 10
123.433
 20
95.0852
 30
0
 10
124.233
 20
95.7466
 30
0
 10
125.128
 20
96.4157
 30
0
 10
126.199
 20
96.5049
 30
0
  0
SPLINE
  5
A47
330
A02
100
AcDbEntity
  8
View001
100
AcDbSpline
210
0
220
0
230
1
 70
8
 71
3
 72
8
 73
4
 74
0
 40
0
 40
0
 40
0
 40
0
 40
1
 40
1
 40
1
 40
1
 10
126.199
 20
96.5049
 30
0
 10
127.262
 20
96.6162
 30
0
 10
128.395
 20
96.6635
 30
0
 10
129.393
 20
97.1309
 30
0
  0
SPLINE
  5
A48
330
A02
100
AcDbEntity
  8
View001
100
AcDbSpline
210
0
220
0
230
1
 70
8
 71
3
 72
8
 73
4
 74
0
 40
0
 40
0
 40
0
 40
0
 40
1
 40
1
 40
1
 40
1
 10
129.393
 20
97.1309
 30
0
 10
131.293
 20
97.934
 30
0
 10
132.804
 20
99.4286
 30
0
 10
134.035
 20
101.05
 30
0
  0
SPLINE
  5
A49
330
A02
100
AcDbEntity
  8
View001
100
AcDbSpline
210
0
220
0
230
1
 70
8
 71
3
 72
8
 73
4
 74
0
 40
0
 40
0
 40
0
 40
0
 40
1
 40
1
 40
1
 40
1
 10
134.035
 20
101.05
 30
0
 10
136.064
 20
103.7
 30
0
 10
137.683
 20
106.627
 30
0
 10
139.34
 20
109.514
 30
0
  0
SPLINE
  5
A4A
330
A02
100
AcDbEntity
  8
View001
100
AcDbSpline
210
0
220
0
230
1
 70
8
 71
3
 72
8
 73
4
 74
0
 40
0
 40
0
 40
0
 40
0
 40
1
 40
1
 40
1
 40
1
 10
139.34
 20
109.514
 30
0
 10
141.62
 20
113.563
 30
0
 10
143.781
 20
117.683
 30
0
 10
145.721
 20
121.906
 30
0
  0
SPLINE
  5
A4B
330
A02
100
AcDbEntity
  8
View001
100
AcDbSpline
210
0
220
0
230
1
 70
8
 71
3
 72
8
 73
4
 74
0
 40
0
 40
0
 40
0
 40
0
 40
1
 40
1
 40
1
 40
1
 10
145.721
 20
121.906
 30
0
 10
147.54
 20
126.037
 30
0
 10
149.14
 20
130.26
 30
0
 10
150.764
 20
134.47
 30
0
  0
SPLINE
  5
A4C
330
A02
100
AcDbEntity
  8
View001
100
AcDbSpline
210
0
220
0
230
1
 70
8
 71
3
 72
8
 73
4
 74
0
 40
0
 40
0
 40
0
 40
0
 40
1
 40
1
 40
1
 40
1
 10
150.764
 20
134.47
 30
0
 10
152.472
 20
138.942
 30
0
 10
154.117
 20
143.437
 30
0
 10
155.775
 20
147.928
 30
0
  0
SPLINE
  5
A4D
330
A02
100
AcDbEntity
  8
View001
100
AcDbSpline
210
0
220
0
230
1
 70
8
 71
2
 72
6
 73
3
 74
0
 40
0
 40
0
 40
0
 40
1
 40
1
 40
1
 10
155.775
 20
147.928
 30
0
 10
156.138
 20
148.874
 30
0
 10
156.565
 20
149.793
 30
0
  0
SPLINE
  5
A4E
330
A02
100
AcDbEntity
  8
View001
100
AcDbSpline
210
0
220
0
230
1
 70
8
 71
3
 72
8
 73
4
 74
0
 40
0
 40
0
 40
0
 40
0
 40
1
 40
1
 40
1
 40
1
 10
156.565
 20
149.793
 30
0
 10
156.638
 20
149.947
 30
0
 10
156.747
 20
150.179
 30
0
 10
156.841
 20
150.361
 30
0
  0
SPLINE
  5
A4F
330
A02
100
AcDbEntity
  8
View001
100
AcDbSpline
210
0
220
0
230
1
 70
8
 71
3
 72
8
 73
4
 74
0
 40
0
 40
0
 40
0
 40
0
 40
1
 40
1
 40
1
 40
1
 10
156.841
 20
150.361
 30
0
 10
157.599
 20
151.895
 30
0
 10
158.568
 20
153.328
 30
0
 10
159.758
 20
154.559
 30
0
  0
SPLINE
  5
A50
330
A02
100
AcDbEntity
  8
View001
100
AcDbSpline
210
0
220
0
230
1
 70
8
 71
3
 72
8
 73
4
 74
0
 40
0
 40
0
 40
0
 40
0
 40
1
 40
1
 40
1
 40
1
 10
159.758
 20
154.559
 30
0
 10
160.516
 20
155.372
 30
0
 10
161.301
 20
156.224
 30
0
 10
161.674
 20
157.29
 30
0
  0
SPLINE
  5
A51
330
A02
100
AcDbEntity
  8
View001
100
AcDbSpline
210
0
220
0
230
1
 70
8
 71
3
 72
8
 73
4
 74
0
 40
0
 40
0
 40
0
 40
0
 40
1
 40
1
 40
1
 40
1
 10
161.674
 20
157.29
 30
0
 10
161.711
 20
158.389
 30
0
 10
161.681
 20
159.489
 30
0
 10
161.695
 20
160.588
 30
0
  0
SPLINE
  5
A52
330
A02
100
AcDbEntity
  8
View001
100
AcDbSpline
210
0
220
0
230
1
 70
8
 71
3
 72
8
 73
4
 74
0
 40
0
 40
0
 40
0
 40
0
 40
1
 40
1
 40
1
 40
1
 10
161.695
 20
160.588
 30
0
 10
161.711
 20
170.495
 30
0
 10
161.814
 20
180.401
 30
0
 10
161.81
 20
190.308
 30
0
  0
SPLINE
  5
A53
330
A02
100
AcDbEntity
  8
View001
100
AcDbSpline
210
0
220
0
230
1
 70
8
 71
2
 72
6
 73
3
 74
0
 40
0
 40
0
 40
0
 40
1
 40
1
 40
1
 10
161.81
 20
190.308
 30
0
 10
161.803
 20
192.629
 30
0
 10
161.789
 20
194.95
 30
0
  0
SPLINE
  5
A54
330
A02
100
AcDbEntity
  8
View001
100
AcDbSpline
210
0
220
0
230
1
 70
8
 71
3
 72
8
 73
4
 74
0
 40
0
 40
0
 40
0
 40
0
 40
1
 40
1
 40
1
 40
1
 10
161.789
 20
194.95
 30
0
 10
154.544
 20
204.575
 30
0
 10
146.894
 20
213.9
 30
0
 10
138.778
 20
222.806
 30
0
  0
SPLINE
  5
A55
330
A02
100
AcDbEntity
  8
View001
100
AcDbSpline
210
0
220
0
230
1
 70
8
 71
3
 72
8
 73
4
 74
0
 40
0
 40
0
 40
0
 40
0
 40
1
 40
1
 40
1
 40
1
 10
138.778
 20
222.806
 30
0
 10
134.898
 20
227.058
 30
0
 10
130.884
 20
231.19
 30
0
 10
126.693
 20
235.137
 30
0
  0
SPLINE
  5
A56
330
A02
100
AcDbEntity
  8
View001
100
AcDbSpline
210
0
220
0
230
1
 70
8
 71
3
 72
8
 73
4
 74
0
 40
0
 40
0
 40
0
 40
0
 40
1
 40
1
 40
1
 40
1
 10
126.693
 20
235.137
 30
0
 10
116.591
 20
244.717
 30
0
 10
105.807
 20
253.603
 30
0
 10
94.2845
 20
261.429
 30
0
  0
SPLINE
  5
A57
330
A02
100
AcDbEntity
  8
View001
100
AcDbSpline
210
0
220
0
230
1
 70
8
 71
3
 72
8
 73
4
 74
0
 40
0
 40
0
 40
0
 40
0
 40
1
 40
1
 40
1
 40
1
 10
94.2845
 20
261.429
 30
0
 10
92.0195
 20
262.972
 30
0
 10
89.7111
 20
264.45
 30
0
 10
87.3796
 20
265.89
 30
0
  0
SPLINE
  5
A58
330
A02
100
AcDbEntity
  8
View001
100
AcDbSpline
210
0
220
0
230
1
 70
8
 71
2
 72
6
 73
3
 74
0
 40
0
 40
0
 40
0
 40
1
 40
1
 40
1
 10
87.3796
 20
265.89
 30
0
 10
82.1615
 20
269.148
 30
0
 10
76.7724
 20
272.114
 30
0
  0
SPLINE
  5
A59
330
A02
100
AcDbEntity
  8
View001
100
AcDbSpline
210
0
220
0
230
1
 70
8
 71
3
 72
8
 73
4
 74
0
 40
0
 40
0
 40
0
 40
0
 40
1
 40
1
 40
1
 40
1
 10
76.7724
 20
272.114
 30
0
 10
71.5497
 20
274.977
 30
0
 10
66.1849
 20
277.603
 30
0
 10
60.6125
 20
279.716
 30
0
  0
SPLINE
  5
A5A
330
A02
100
AcDbEntity
  8
View001
100
AcDbSpline
210
0
220
0
230
1
 70
8
 71
3
 72
8
 73
4
 74
0
 40
0
 40
0
 40
0
 40
0
 40
1
 40
1
 40
1
 40
1
 10
60.6125
 20
279.716
 30
0
 10
57.5543
 20
280.855
 30
0
 10
54.4416
 20
281.84
 30
0
 10
51.3081
 20
282.748
 30
0
  0
SPLINE
  5
A5B
330
A02
100
AcDbEntity
  8
View001
100
AcDbSpline
210
0
220
0
230
1
 70
8
 71
3
 72
8
 73
4
 74
0
 40
0
 40
0
 40
0
 40
0
 40
1
 40
1
 40
1
 40
1
 10
51.3081
 20
282.748
 30
0
 10
46.8933
 20
284.015
 30
0
 10
42.3928
 20
285.002
 30
0
 10
37.8336
 20
285.575
 30
0
  0
SPLINE
  5
A5C
330
A02
100
AcDbEntity
  8
View001
100
AcDbSpline
210
0
220
0
230
1
 70
8
 71
3
 72
8
 73
4
 74
0
 40
0
 40
0
 40
0
 40
0
 40
1
 40
1
 40
1
 40
1
 10
37.8336
 20
285.575
 30
0
 10
34.8126
 20
285.965
 30
0
 10
31.7802
 20
286.258
 30
0
 10
28.7476
 20
286.541
 30
0
  0
SPLINE
  5
A5D
330
A02
100
AcDbEntity
  8
View001
100
AcDbSpline
210
0
220
0
230
1
 70
8
 71
1
 72
4
 73
2
 74
0
 40
0.999997
 40
0.999997
 40
0.999998
 40
0.999998
 10
16.5997
 20
287.198
 30
0
 10
16.5997
 20
287.198
 30
0
  0
SPLINE
  5
A5E
330
A02
100
AcDbEntity
  8
View001
100
AcDbSpline
210
0
220
0
230
1
 70
8
 71
3
 72
8
 73
4
 74
0
 40
0
 40
0
 40
0
 40
0
 40
1
 40
1
 40
1
 40
1
 10
28.7476
 20
286.541
 30
0
 10
24.7074
 20
286.903
 30
0
 10
20.6571
 20
287.164
 30
0
 10
16.5997
 20
287.198
 30
0
  0
SPLINE
  5
A5F
330
A02
100
AcDbEntity
  8
View001
100
AcDbSpline
210
0
220
0
230
1
 70
8
 71
1
 72
4
 73
2
 74
0
 40
0
 40
0
 40
4e-05
 40
4e-05
 10
16.5997
 20
287.198
 30
0
 10
16.5997
 20
287.198
 30
0
  0
SPLINE
  5
A60
330
A02
100
AcDbEntity
  8
View003
100
AcDbSpline
210
0
220
0
230
1
 70
8
 71
1
 72
4
 73
2
 74
0
 40
0
 40
0
 40
3.88865e-06
 40
3.88865e-06
 10
319.157
 20
289.43
 30
0
 10
319.157
 20
289.43
 30
0
  0
SPLINE
  5
A61
330
A02
100
AcDbEntity
  8
View003
100
AcDbSpline
210
0
220
0
230
1
 70
8
 71
3
 72
8
 73
4
 74
0
 40
0
 40
0
 40
0
 40
0
 40
1
 40
1
 40
1
 40
1
 10
319.157
 20
289.43
 30
0
 10
319.569
 20
289.405
 30
0
 10
320.018
 20
289.4
 30
0
 10
320.378
 20
289.183
 30
0
  0
SPLINE
  5
A62
330
A02
100
AcDbEntity
  8
View003
100
AcDbSpline
210
0
220
0
230
1
 70
8
 71
3
 72
8
 73
4
 74
0
 40
0
 40
0
 40
0
 40
0
 40
1
 40
1
 40
1
 40
1
 10
320.378
 20
289.183
 30
0
 10
321.509
 20
288.071
 30
0
 10
322.715
 20
286.964
 30
0
 10
323.399
 20
285.503
 30
0
  0
SPLINE
  5
A63
330
A02
100
AcDbEntity
  8
View003
100
AcDbSpline
210
0
220
0
230
1
 70
8
 71
3
 72
8
 73
4
 74
0
 40
0
 40
0
 40
0
 40
0
 40
1
 40
1
 40
1
 40
1
 10
323.399
 20
285.503
 30
0
 10
324.53
 20
283.278
 30
0
 10
324.878
 20
280.748
 30
0
 10
324.903
 20
278.277
 30
0
  0
SPLINE
  5
A64
330
A02
100
AcDbEntity
  8
View003
100
AcDbSpline
210
0
220
0
230
1
 70
8
 71
3
 72
8
 73
4
 74
0
 40
0
 40
0
 40
0
 40
0
 40
1
 40
1
 40
1
 40
1
 10
324.903
 20
278.277
 30
0
 10
324.967
 20
275.401
 30
0
 10
324.211
 20
272.586
 30
0
 10
323.319
 20
269.876
 30
0
  0
SPLINE
  5
A65
330
A02
100
AcDbEntity
  8
View003
100
AcDbSpline
210
0
220
0
230
1
 70
8
 71
3
 72
8
 73
4
 74
0
 40
0
 40
0
 40
0
 40
0
 40
1
 40
1
 40
1
 40
1
 10
323.319
 20
269.876
 30
0
 10
322.327
 20
266.92
 30
0
 10
321.14
 20
264.034
 30
0
 10
320.11
 20
261.092
 30
0
  0
SPLINE
  5
A66
330
A02
100
AcDbEntity
  8
View003
100
AcDbSpline
210
0
220
0
230
1
 70
8
 71
3
 72
8
 73
4
 74
0
 40
0
 40
0
 40
0
 40
0
 40
1
 40
1
 40
1
 40
1
 10
320.11
 20
261.092
 30
0
 10
318.33
 20
256.231
 30
0
 10
315.858
 20
251.642
 30
0
 10
312.945
 20
247.37
 30
0
  0
SPLINE
  5
A67
330
A02
100
AcDbEntity
  8
View003
100
AcDbSpline
210
0
220
0
230
1
 70
8
 71
3
 72
8
 73
4
 74
0
 40
0
 40
0
 40
0
 40
0
 40
1
 40
1
 40
1
 40
1
 10
312.945
 20
247.37
 30
0
 10
311.226
 20
244.839
 30
0
 10
309.413
 20
242.371
 30
0
 10
307.489
 20
239.992
 30
0
  0
SPLINE
  5
A68
330
A02
100
AcDbEntity
  8
View003
100
AcDbSpline
210
0
220
0
230
1
 70
8
 71
3
 72
8
 73
4
 74
0
 40
0
 40
0
 40
0
 40
0
 40
1
 40
1
 40
1
 40
1
 10
307.489
 20
239.992
 30
0
 10
306.072
 20
238.239
 30
0
 10
304.585
 20
236.545
 30
0
 10
303.091
 20
234.859
 30
0
  0
SPLINE
  5
A69
330
A02
100
AcDbEntity
  8
View003
100
AcDbSpline
210
0
220
0
230
1
 70
8
 71
3
 72
8
 73
4
 74
0
 40
0
 40
0
 40
0
 40
0
 40
1
 40
1
 40
1
 40
1
 10
303.091
 20
234.859
 30
0
 10
302.917
 20
234.652
 30
0
 10
302.736
 20
234.446
 30
0
 10
302.584
 20
234.258
 30
0
  0
SPLINE
  5
A6A
330
A02
100
AcDbEntity
  8
View003
100
AcDbSpline
210
0
220
0
230
1
 70
8
 71
3
 72
8
 73
4
 74
0
 40
0
 40
0
 40
0
 40
0
 40
1
 40
1
 40
1
 40
1
 10
302.584
 20
234.258
 30
0
 10
302.424
 20
234.065
 30
0
 10
302.3
 20
233.907
 30
0
 10
302.143
 20
233.697
 30
0
  0
SPLINE
  5
A6B
330
A02
100
AcDbEntity
  8
View003
100
AcDbSpline
210
0
220
0
230
1
 70
8
 71
3
 72
8
 73
4
 74
0
 40
0
 40
0
 40
0
 40
0
 40
1
 40
1
 40
1
 40
1
 10
302.143
 20
233.697
 30
0
 10
301.649
 20
233.033
 30
0
 10
301.233
 20
232.274
 30
0
 10
301.168
 20
231.434
 30
0
  0
SPLINE
  5
A6C
330
A02
100
AcDbEntity
  8
View003
100
AcDbSpline
210
0
220
0
230
1
 70
8
 71
3
 72
8
 73
4
 74
0
 40
0
 40
0
 40
0
 40
0
 40
1
 40
1
 40
1
 40
1
 10
301.168
 20
231.434
 30
0
 10
301.138
 20
231.204
 30
0
 10
301.126
 20
230.948
 30
0
 10
301.116
 20
230.769
 30
0
  0
SPLINE
  5
A6D
330
A02
100
AcDbEntity
  8
View003
100
AcDbSpline
210
0
220
0
230
1
 70
8
 71
3
 72
8
 73
4
 74
0
 40
0
 40
0
 40
0
 40
0
 40
1
 40
1
 40
1
 40
1
 10
301.116
 20
230.769
 30
0
 10
301.068
 20
229.458
 30
0
 10
301.062
 20
228.139
 30
0
 10
300.949
 20
226.828
 30
0
  0
SPLINE
  5
A6E
330
A02
100
AcDbEntity
  8
View003
100
AcDbSpline
210
0
220
0
230
1
 70
8
 71
3
 72
8
 73
4
 74
0
 40
0
 40
0
 40
0
 40
0
 40
1
 40
1
 40
1
 40
1
 10
300.949
 20
226.828
 30
0
 10
299.535
 20
223.609
 30
0
 10
298.175
 20
220.363
 30
0
 10
296.611
 20
217.213
 30
0
  0
SPLINE
  5
A6F
330
A02
100
AcDbEntity
  8
View003
100
AcDbSpline
210
0
220
0
230
1
 70
8
 71
3
 72
8
 73
4
 74
0
 40
0
 40
0
 40
0
 40
0
 40
1
 40
1
 40
1
 40
1
 10
296.611
 20
217.213
 30
0
 10
296.489
 20
216.949
 30
0
 10
296.387
 20
216.716
 30
0
 10
296.27
 20
216.436
 30
0
  0
SPLINE
  5
A70
330
A02
100
AcDbEntity
  8
View003
100
AcDbSpline
210
0
220
0
230
1
 70
8
 71
3
 72
8
 73
4
 74
0
 40
0
 40
0
 40
0
 40
0
 40
1
 40
1
 40
1
 40
1
 10
296.27
 20
216.436
 30
0
 10
296.015
 20
215.827
 30
0
 10
295.782
 20
215.193
 30
0
 10
295.581
 20
214.588
 30
0
  0
SPLINE
  5
A71
330
A02
100
AcDbEntity
  8
View003
100
AcDbSpline
210
0
220
0
230
1
 70
8
 71
3
 72
8
 73
4
 74
0
 40
0
 40
0
 40
0
 40
0
 40
1
 40
1
 40
1
 40
1
 10
295.581
 20
214.588
 30
0
 10
295.169
 20
213.356
 30
0
 10
294.846
 20
212.129
 30
0
 10
294.545
 20
210.865
 30
0
  0
SPLINE
  5
A72
330
A02
100
AcDbEntity
  8
View003
100
AcDbSpline
210
0
220
0
230
1
 70
8
 71
2
 72
6
 73
3
 74
0
 40
0
 40
0
 40
0
 40
1
 40
1
 40
1
 10
294.545
 20
210.865
 30
0
 10
294.409
 20
210.318
 30
0
 10
294.298
 20
209.732
 30
0
  0
SPLINE
  5
A73
330
A02
100
AcDbEntity
  8
View003
100
AcDbSpline
210
0
220
0
230
1
 70
8
 71
2
 72
6
 73
3
 74
0
 40
0
 40
0
 40
0
 40
1
 40
1
 40
1
 10
294.298
 20
209.732
 30
0
 10
294.219
 20
209.315
 30
0
 10
294.163
 20
208.932
 30
0
  0
SPLINE
  5
A74
330
A02
100
AcDbEntity
  8
View003
100
AcDbSpline
210
0
220
0
230
1
 70
8
 71
3
 72
8
 73
4
 74
0
 40
0
 40
0
 40
0
 40
0
 40
1
 40
1
 40
1
 40
1
 10
294.163
 20
208.932
 30
0
 10
294.053
 20
208.228
 30
0
 10
293.976
 20
207.552
 30
0
 10
293.893
 20
206.839
 30
0
  0
SPLINE
  5
A75
330
A02
100
AcDbEntity
  8
View003
100
AcDbSpline
210
0
220
0
230
1
 70
8
 71
3
 72
8
 73
4
 74
0
 40
0
 40
0
 40
0
 40
0
 40
1
 40
1
 40
1
 40
1
 10
293.893
 20
206.839
 30
0
 10
293.707
 20
205.136
 30
0
 10
293.337
 20
203.461
 30
0
 10
292.982
 20
201.787
 30
0
  0
SPLINE
  5
A76
330
A02
100
AcDbEntity
  8
View003
100
AcDbSpline
210
0
220
0
230
1
 70
8
 71
3
 72
8
 73
4
 74
0
 40
0
 40
0
 40
0
 40
0
 40
1
 40
1
 40
1
 40
1
 10
292.982
 20
201.787
 30
0
 10
292.736
 20
200.714
 30
0
 10
292.314
 20
199.673
 30
0
 10
291.648
 20
198.789
 30
0
  0
SPLINE
  5
A77
330
A02
100
AcDbEntity
  8
View003
100
AcDbSpline
210
0
220
0
230
1
 70
8
 71
3
 72
8
 73
4
 74
0
 40
0
 40
0
 40
0
 40
0
 40
1
 40
1
 40
1
 40
1
 10
291.648
 20
198.789
 30
0
 10
290.889
 20
197.749
 30
0
 10
289.907
 20
196.899
 30
0
 10
288.894
 20
196.115
 30
0
  0
SPLINE
  5
A78
330
A02
100
AcDbEntity
  8
View003
100
AcDbSpline
210
0
220
0
230
1
 70
8
 71
3
 72
8
 73
4
 74
0
 40
0
 40
0
 40
0
 40
0
 40
1
 40
1
 40
1
 40
1
 10
288.894
 20
196.115
 30
0
 10
288.95
 20
193.805
 30
0
 10
288.758
 20
191.496
 30
0
 10
288.461
 20
189.207
 30
0
  0
SPLINE
  5
A79
330
A02
100
AcDbEntity
  8
View003
100
AcDbSpline
210
0
220
0
230
1
 70
8
 71
3
 72
8
 73
4
 74
0
 40
0
 40
0
 40
0
 40
0
 40
1
 40
1
 40
1
 40
1
 10
288.461
 20
189.207
 30
0
 10
288.215
 20
187.528
 30
0
 10
287.872
 20
185.852
 30
0
 10
287.279
 20
184.258
 30
0
  0
SPLINE
  5
A7A
330
A02
100
AcDbEntity
  8
View003
100
AcDbSpline
210
0
220
0
230
1
 70
8
 71
3
 72
8
 73
4
 74
0
 40
0
 40
0
 40
0
 40
0
 40
1
 40
1
 40
1
 40
1
 10
287.279
 20
184.258
 30
0
 10
286.85
 20
183.135
 30
0
 10
286.21
 20
182.102
 30
0
 10
285.434
 20
181.186
 30
0
  0
SPLINE
  5
A7B
330
A02
100
AcDbEntity
  8
View003
100
AcDbSpline
210
0
220
0
230
1
 70
8
 71
2
 72
6
 73
3
 74
0
 40
0
 40
0
 40
0
 40
1
 40
1
 40
1
 10
285.434
 20
181.186
 30
0
 10
284.312
 20
179.82
 30
0
 10
283.106
 20
178.528
 30
0
  0
SPLINE
  5
A7C
330
A02
100
AcDbEntity
  8
View003
100
AcDbSpline
210
0
220
0
230
1
 70
8
 71
3
 72
8
 73
4
 74
0
 40
0
 40
0
 40
0
 40
0
 40
1
 40
1
 40
1
 40
1
 10
283.106
 20
178.528
 30
0
 10
281.786
 20
177.187
 30
0
 10
280.308
 20
176.012
 30
0
 10
278.784
 20
174.913
 30
0
  0
SPLINE
  5
A7D
330
A02
100
AcDbEntity
  8
View003
100
AcDbSpline
210
0
220
0
230
1
 70
8
 71
3
 72
8
 73
4
 74
0
 40
0
 40
0
 40
0
 40
0
 40
1
 40
1
 40
1
 40
1
 10
278.784
 20
174.913
 30
0
 10
279.457
 20
173.937
 30
0
 10
280.129
 20
172.956
 30
0
 10
280.699
 20
171.916
 30
0
  0
SPLINE
  5
A7E
330
A02
100
AcDbEntity
  8
View003
100
AcDbSpline
210
0
220
0
230
1
 70
8
 71
3
 72
8
 73
4
 74
0
 40
0
 40
0
 40
0
 40
0
 40
1
 40
1
 40
1
 40
1
 10
280.699
 20
171.916
 30
0
 10
281.52
 20
170.338
 30
0
 10
281.935
 20
168.581
 30
0
 10
282.104
 20
166.819
 30
0
  0
SPLINE
  5
A7F
330
A02
100
AcDbEntity
  8
View003
100
AcDbSpline
210
0
220
0
230
1
 70
8
 71
3
 72
8
 73
4
 74
0
 40
0
 40
0
 40
0
 40
0
 40
1
 40
1
 40
1
 40
1
 10
282.104
 20
166.819
 30
0
 10
282.443
 20
164.11
 30
0
 10
282.572
 20
161.382
 30
0
 10
282.743
 20
158.66
 30
0
  0
SPLINE
  5
A80
330
A02
100
AcDbEntity
  8
View003
100
AcDbSpline
210
0
220
0
230
1
 70
8
 71
3
 72
8
 73
4
 74
0
 40
0
 40
0
 40
0
 40
0
 40
1
 40
1
 40
1
 40
1
 10
282.743
 20
158.66
 30
0
 10
282.866
 20
157.024
 30
0
 10
282.976
 20
155.398
 30
0
 10
283.2
 20
153.759
 30
0
  0
SPLINE
  5
A81
330
A02
100
AcDbEntity
  8
View003
100
AcDbSpline
210
0
220
0
230
1
 70
8
 71
3
 72
8
 73
4
 74
0
 40
0
 40
0
 40
0
 40
0
 40
1
 40
1
 40
1
 40
1
 10
283.2
 20
153.759
 30
0
 10
283.324
 20
152.986
 30
0
 10
283.388
 20
152.179
 30
0
 10
283.763
 20
151.476
 30
0
  0
SPLINE
  5
A82
330
A02
100
AcDbEntity
  8
View003
100
AcDbSpline
210
0
220
0
230
1
 70
8
 71
3
 72
8
 73
4
 74
0
 40
0
 40
0
 40
0
 40
0
 40
1
 40
1
 40
1
 40
1
 10
283.763
 20
151.476
 30
0
 10
284.106
 20
150.743
 30
0
 10
284.454
 20
149.937
 30
0
 10
284.286
 20
149.111
 30
0
  0
SPLINE
  5
A83
330
A02
100
AcDbEntity
  8
View003
100
AcDbSpline
210
0
220
0
230
1
 70
8
 71
3
 72
8
 73
4
 74
0
 40
0
 40
0
 40
0
 40
0
 40
1
 40
1
 40
1
 40
1
 10
284.286
 20
149.111
 30
0
 10
284.188
 20
148.641
 30
0
 10
283.791
 20
148.311
 30
0
 10
283.674
 20
147.848
 30
0
  0
SPLINE
  5
A84
330
A02
100
AcDbEntity
  8
View003
100
AcDbSpline
210
0
220
0
230
1
 70
8
 71
3
 72
8
 73
4
 74
0
 40
0
 40
0
 40
0
 40
0
 40
1
 40
1
 40
1
 40
1
 10
283.674
 20
147.848
 30
0
 10
283.333
 20
146.852
 30
0
 10
283.199
 20
145.801
 30
0
 10
282.998
 20
144.772
 30
0
  0
SPLINE
  5
A85
330
A02
100
AcDbEntity
  8
View003
100
AcDbSpline
210
0
220
0
230
1
 70
8
 71
3
 72
8
 73
4
 74
0
 40
0
 40
0
 40
0
 40
0
 40
1
 40
1
 40
1
 40
1
 10
282.998
 20
144.772
 30
0
 10
282.821
 20
143.727
 30
0
 10
282.695
 20
142.605
 30
0
 10
282.442
 20
141.542
 30
0
  0
SPLINE
  5
A86
330
A02
100
AcDbEntity
  8
View003
100
AcDbSpline
210
0
220
0
230
1
 70
8
 71
3
 72
8
 73
4
 74
0
 40
0
 40
0
 40
0
 40
0
 40
1
 40
1
 40
1
 40
1
 10
282.442
 20
141.542
 30
0
 10
282.141
 20
140.402
 30
0
 10
281.699
 20
139.277
 30
0
 10
280.996
 20
138.323
 30
0
  0
SPLINE
  5
A87
330
A02
100
AcDbEntity
  8
View003
100
AcDbSpline
210
0
220
0
230
1
 70
8
 71
2
 72
6
 73
3
 74
0
 40
0
 40
0
 40
0
 40
1
 40
1
 40
1
 10
280.996
 20
138.323
 30
0
 10
280.788
 20
138.066
 30
0
 10
280.556
 20
137.832
 30
0
  0
SPLINE
  5
A88
330
A02
100
AcDbEntity
  8
View003
100
AcDbSpline
210
0
220
0
230
1
 70
8
 71
3
 72
8
 73
4
 74
0
 40
0
 40
0
 40
0
 40
0
 40
1
 40
1
 40
1
 40
1
 10
280.556
 20
137.832
 30
0
 10
281.313
 20
135.879
 30
0
 10
281.796
 20
133.776
 30
0
 10
281.65
 20
131.671
 30
0
  0
SPLINE
  5
A89
330
A02
100
AcDbEntity
  8
View003
100
AcDbSpline
210
0
220
0
230
1
 70
8
 71
3
 72
8
 73
4
 74
0
 40
0
 40
0
 40
0
 40
0
 40
1
 40
1
 40
1
 40
1
 10
281.65
 20
131.671
 30
0
 10
281.549
 20
130.733
 30
0
 10
281.232
 20
129.837
 30
0
 10
280.929
 20
128.95
 30
0
  0
SPLINE
  5
A8A
330
A02
100
AcDbEntity
  8
View003
100
AcDbSpline
210
0
220
0
230
1
 70
8
 71
3
 72
8
 73
4
 74
0
 40
0
 40
0
 40
0
 40
0
 40
1
 40
1
 40
1
 40
1
 10
280.929
 20
128.95
 30
0
 10
280.197
 20
126.929
 30
0
 10
279.042
 20
125.03
 30
0
 10
277.415
 20
123.606
 30
0
  0
SPLINE
  5
A8B
330
A02
100
AcDbEntity
  8
View003
100
AcDbSpline
210
0
220
0
230
1
 70
8
 71
2
 72
6
 73
3
 74
0
 40
0
 40
0
 40
0
 40
1
 40
1
 40
1
 10
277.415
 20
123.606
 30
0
 10
276.559
 20
122.846
 30
0
 10
275.588
 20
122.239
 30
0
  0
SPLINE
  5
A8C
330
A02
100
AcDbEntity
  8
View003
100
AcDbSpline
210
0
220
0
230
1
 70
8
 71
3
 72
8
 73
4
 74
0
 40
0
 40
0
 40
0
 40
0
 40
1
 40
1
 40
1
 40
1
 10
275.588
 20
122.239
 30
0
 10
275.161
 20
119.982
 30
0
 10
274.508
 20
117.714
 30
0
 10
273.203
 20
115.796
 30
0
  0
SPLINE
  5
A8D
330
A02
100
AcDbEntity
  8
View003
100
AcDbSpline
210
0
220
0
230
1
 70
8
 71
3
 72
8
 73
4
 74
0
 40
0
 40
0
 40
0
 40
0
 40
1
 40
1
 40
1
 40
1
 10
273.203
 20
115.796
 30
0
 10
271.988
 20
113.935
 30
0
 10
270.592
 20
112.127
 30
0
 10
268.726
 20
110.877
 30
0
  0
SPLINE
  5
A8E
330
A02
100
AcDbEntity
  8
View003
100
AcDbSpline
210
0
220
0
230
1
 70
8
 71
3
 72
8
 73
4
 74
0
 40
0
 40
0
 40
0
 40
0
 40
1
 40
1
 40
1
 40
1
 10
268.726
 20
110.877
 30
0
 10
267.716
 20
110.18
 30
0
 10
266.577
 20
109.707
 30
0
 10
265.446
 20
109.247
 30
0
  0
SPLINE
  5
A8F
330
A02
100
AcDbEntity
  8
View003
100
AcDbSpline
210
0
220
0
230
1
 70
8
 71
3
 72
8
 73
4
 74
0
 40
0
 40
0
 40
0
 40
0
 40
1
 40
1
 40
1
 40
1
 10
265.446
 20
109.247
 30
0
 10
264.335
 20
108.723
 30
0
 10
263.24
 20
108.137
 30
0
 10
262.278
 20
107.367
 30
0
  0
SPLINE
  5
A90
330
A02
100
AcDbEntity
  8
View003
100
AcDbSpline
210
0
220
0
230
1
 70
8
 71
3
 72
8
 73
4
 74
0
 40
0
 40
0
 40
0
 40
0
 40
1
 40
1
 40
1
 40
1
 10
262.278
 20
107.367
 30
0
 10
261.245
 20
106.474
 30
0
 10
260.415
 20
105.307
 30
0
 10
259.333
 20
104.505
 30
0
  0
SPLINE
  5
A91
330
A02
100
AcDbEntity
  8
View003
100
AcDbSpline
210
0
220
0
230
1
 70
8
 71
3
 72
8
 73
4
 74
0
 40
0
 40
0
 40
0
 40
0
 40
1
 40
1
 40
1
 40
1
 10
259.333
 20
104.505
 30
0
 10
258.27
 20
103.618
 30
0
 10
256.87
 20
103.31
 30
0
 10
255.528
 20
103.147
 30
0
  0
SPLINE
  5
A92
330
A02
100
AcDbEntity
  8
View003
100
AcDbSpline
210
0
220
0
230
1
 70
8
 71
3
 72
8
 73
4
 74
0
 40
0
 40
0
 40
0
 40
0
 40
1
 40
1
 40
1
 40
1
 10
255.528
 20
103.147
 30
0
 10
254.643
 20
103.023
 30
0
 10
253.706
 20
102.948
 30
0
 10
252.925
 20
102.474
 30
0
  0
SPLINE
  5
A93
330
A02
100
AcDbEntity
  8
View003
100
AcDbSpline
210
0
220
0
230
1
 70
8
 71
3
 72
8
 73
4
 74
0
 40
0
 40
0
 40
0
 40
0
 40
1
 40
1
 40
1
 40
1
 10
252.925
 20
102.474
 30
0
 10
252.042
 20
101.767
 30
0
 10
251.317
 20
100.872
 30
0
 10
250.362
 20
100.252
 30
0
  0
SPLINE
  5
A94
330
A02
100
AcDbEntity
  8
View003
100
AcDbSpline
210
0
220
0
230
1
 70
8
 71
3
 72
8
 73
4
 74
0
 40
0
 40
0
 40
0
 40
0
 40
1
 40
1
 40
1
 40
1
 10
250.362
 20
100.252
 30
0
 10
249.41
 20
99.5839
 30
0
 10
248.252
 20
99.2531
 30
0
 10
247.095
 20
99.2318
 30
0
  0
SPLINE
  5
A95
330
A02
100
AcDbEntity
  8
View003
100
AcDbSpline
210
0
220
0
230
1
 70
8
 71
3
 72
8
 73
4
 74
0
 40
0
 40
0
 40
0
 40
0
 40
1
 40
1
 40
1
 40
1
 10
247.095
 20
99.2318
 30
0
 10
246.118
 20
99.1783
 30
0
 10
245.11
 20
99.4165
 30
0
 10
244.159
 20
99.0954
 30
0
  0
SPLINE
  5
A96
330
A02
100
AcDbEntity
  8
View003
100
AcDbSpline
210
0
220
0
230
1
 70
8
 71
3
 72
8
 73
4
 74
0
 40
0
 40
0
 40
0
 40
0
 40
1
 40
1
 40
1
 40
1
 10
244.159
 20
99.0954
 30
0
 10
241.674
 20
98.1007
 30
0
 10
239.315
 20
96.8252
 30
0
 10
236.894
 20
95.6892
 30
0
  0
SPLINE
  5
A97
330
A02
100
AcDbEntity
  8
View003
100
AcDbSpline
210
0
220
0
230
1
 70
8
 71
3
 72
8
 73
4
 74
0
 40
0
 40
0
 40
0
 40
0
 40
1
 40
1
 40
1
 40
1
 10
236.894
 20
95.6892
 30
0
 10
235.946
 20
95.2272
 30
0
 10
234.966
 20
94.8054
 30
0
 10
233.923
 20
94.6153
 30
0
  0
SPLINE
  5
A98
330
A02
100
AcDbEntity
  8
View003
100
AcDbSpline
210
0
220
0
230
1
 70
8
 71
3
 72
8
 73
4
 74
0
 40
0
 40
0
 40
0
 40
0
 40
1
 40
1
 40
1
 40
1
 10
233.923
 20
94.6153
 30
0
 10
233.055
 20
94.4453
 30
0
 10
232.144
 20
94.5025
 30
0
 10
231.315
 20
94.8182
 30
0
  0
SPLINE
  5
A99
330
A02
100
AcDbEntity
  8
View003
100
AcDbSpline
210
0
220
0
230
1
 70
8
 71
3
 72
8
 73
4
 74
0
 40
0
 40
0
 40
0
 40
0
 40
1
 40
1
 40
1
 40
1
 10
231.315
 20
94.8182
 30
0
 10
230.61
 20
95.0607
 30
0
 10
229.91
 20
95.3589
 30
0
 10
229.157
 20
95.4039
 30
0
  0
SPLINE
  5
A9A
330
A02
100
AcDbEntity
  8
View003
100
AcDbSpline
210
0
220
0
230
1
 70
8
 71
3
 72
8
 73
4
 74
0
 40
0
 40
0
 40
0
 40
0
 40
1
 40
1
 40
1
 40
1
 10
229.157
 20
95.4039
 30
0
 10
228
 20
95.5163
 30
0
 10
226.838
 20
95.3883
 30
0
 10
225.686
 20
95.279
 30
0
  0
SPLINE
  5
A9B
330
A02
100
AcDbEntity
  8
View003
100
AcDbSpline
210
0
220
0
230
1
 70
8
 71
3
 72
8
 73
4
 74
0
 40
0
 40
0
 40
0
 40
0
 40
1
 40
1
 40
1
 40
1
 10
225.686
 20
95.279
 30
0
 10
224.106
 20
95.0777
 30
0
 10
222.591
 20
94.6037
 30
0
 10
221.006
 20
94.3997
 30
0
  0
SPLINE
  5
A9C
330
A02
100
AcDbEntity
  8
View003
100
AcDbSpline
210
0
220
0
230
1
 70
8
 71
3
 72
8
 73
4
 74
0
 40
0
 40
0
 40
0
 40
0
 40
1
 40
1
 40
1
 40
1
 10
221.006
 20
94.3997
 30
0
 10
219.316
 20
94.2014
 30
0
 10
217.536
 20
94.1755
 30
0
 10
215.937
 20
94.8394
 30
0
  0
SPLINE
  5
A9D
330
A02
100
AcDbEntity
  8
View003
100
AcDbSpline
210
0
220
0
230
1
 70
8
 71
3
 72
8
 73
4
 74
0
 40
0
 40
0
 40
0
 40
0
 40
1
 40
1
 40
1
 40
1
 10
215.937
 20
94.8394
 30
0
 10
214.569
 20
95.3992
 30
0
 10
213.451
 20
96.3889
 30
0
 10
212.324
 20
97.3173
 30
0
  0
SPLINE
  5
A9E
330
A02
100
AcDbEntity
  8
View003
100
AcDbSpline
210
0
220
0
230
1
 70
8
 71
3
 72
8
 73
4
 74
0
 40
0
 40
0
 40
0
 40
0
 40
1
 40
1
 40
1
 40
1
 10
212.324
 20
97.3173
 30
0
 10
211.524
 20
97.9788
 30
0
 10
210.629
 20
98.6479
 30
0
 10
209.558
 20
98.737
 30
0
  0
SPLINE
  5
A9F
330
A02
100
AcDbEntity
  8
View003
100
AcDbSpline
210
0
220
0
230
1
 70
8
 71
3
 72
8
 73
4
 74
0
 40
0
 40
0
 40
0
 40
0
 40
1
 40
1
 40
1
 40
1
 10
209.558
 20
98.737
 30
0
 10
208.495
 20
98.8483
 30
0
 10
207.362
 20
98.8956
 30
0
 10
206.364
 20
99.3631
 30
0
  0
SPLINE
  5
AA0
330
A02
100
AcDbEntity
  8
View003
100
AcDbSpline
210
0
220
0
230
1
 70
8
 71
3
 72
8
 73
4
 74
0
 40
0
 40
0
 40
0
 40
0
 40
1
 40
1
 40
1
 40
1
 10
206.364
 20
99.3631
 30
0
 10
204.464
 20
100.166
 30
0
 10
202.953
 20
101.661
 30
0
 10
201.722
 20
103.282
 30
0
  0
SPLINE
  5
AA1
330
A02
100
AcDbEntity
  8
View003
100
AcDbSpline
210
0
220
0
230
1
 70
8
 71
3
 72
8
 73
4
 74
0
 40
0
 40
0
 40
0
 40
0
 40
1
 40
1
 40
1
 40
1
 10
201.722
 20
103.282
 30
0
 10
199.693
 20
105.932
 30
0
 10
198.074
 20
108.859
 30
0
 10
196.417
 20
111.746
 30
0
  0
SPLINE
  5
AA2
330
A02
100
AcDbEntity
  8
View003
100
AcDbSpline
210
0
220
0
230
1
 70
8
 71
3
 72
8
 73
4
 74
0
 40
0
 40
0
 40
0
 40
0
 40
1
 40
1
 40
1
 40
1
 10
196.417
 20
111.746
 30
0
 10
194.137
 20
115.795
 30
0
 10
191.976
 20
119.915
 30
0
 10
190.036
 20
124.138
 30
0
  0
SPLINE
  5
AA3
330
A02
100
AcDbEntity
  8
View003
100
AcDbSpline
210
0
220
0
230
1
 70
8
 71
3
 72
8
 73
4
 74
0
 40
0
 40
0
 40
0
 40
0
 40
1
 40
1
 40
1
 40
1
 10
190.036
 20
124.138
 30
0
 10
188.217
 20
128.269
 30
0
 10
186.617
 20
132.492
 30
0
 10
184.993
 20
136.703
 30
0
  0
SPLINE
  5
AA4
330
A02
100
AcDbEntity
  8
View003
100
AcDbSpline
210
0
220
0
230
1
 70
8
 71
3
 72
8
 73
4
 74
0
 40
0
 40
0
 40
0
 40
0
 40
1
 40
1
 40
1
 40
1
 10
184.993
 20
136.703
 30
0
 10
183.285
 20
141.174
 30
0
 10
181.64
 20
145.669
 30
0
 10
179.982
 20
150.16
 30
0
  0
SPLINE
  5
AA5
330
A02
100
AcDbEntity
  8
View003
100
AcDbSpline
210
0
220
0
230
1
 70
8
 71
2
 72
6
 73
3
 74
0
 40
0
 40
0
 40
0
 40
1
 40
1
 40
1
 10
179.982
 20
150.16
 30
0
 10
179.619
 20
151.106
 30
0
 10
179.192
 20
152.025
 30
0
  0
SPLINE
  5
AA6
330
A02
100
AcDbEntity
  8
View003
100
AcDbSpline
210
0
220
0
230
1
 70
8
 71
3
 72
8
 73
4
 74
0
 40
0
 40
0
 40
0
 40
0
 40
1
 40
1
 40
1
 40
1
 10
179.192
 20
152.025
 30
0
 10
179.119
 20
152.179
 30
0
 10
179.01
 20
152.412
 30
0
 10
178.916
 20
152.593
 30
0
  0
SPLINE
  5
AA7
330
A02
100
AcDbEntity
  8
View003
100
AcDbSpline
210
0
220
0
230
1
 70
8
 71
3
 72
8
 73
4
 74
0
 40
0
 40
0
 40
0
 40
0
 40
1
 40
1
 40
1
 40
1
 10
178.916
 20
152.593
 30
0
 10
178.158
 20
154.127
 30
0
 10
177.189
 20
155.56
 30
0
 10
175.999
 20
156.792
 30
0
  0
SPLINE
  5
AA8
330
A02
100
AcDbEntity
  8
View003
100
AcDbSpline
210
0
220
0
230
1
 70
8
 71
3
 72
8
 73
4
 74
0
 40
0
 40
0
 40
0
 40
0
 40
1
 40
1
 40
1
 40
1
 10
175.999
 20
156.792
 30
0
 10
175.241
 20
157.605
 30
0
 10
174.456
 20
158.456
 30
0
 10
174.083
 20
159.523
 30
0
  0
SPLINE
  5
AA9
330
A02
100
AcDbEntity
  8
View003
100
AcDbSpline
210
0
220
0
230
1
 70
8
 71
3
 72
8
 73
4
 74
0
 40
0
 40
0
 40
0
 40
0
 40
1
 40
1
 40
1
 40
1
 10
174.083
 20
159.523
 30
0
 10
174.046
 20
160.621
 30
0
 10
174.076
 20
161.721
 30
0
 10
174.062
 20
162.82
 30
0
  0
SPLINE
  5
AAA
330
A02
100
AcDbEntity
  8
View003
100
AcDbSpline
210
0
220
0
230
1
 70
8
 71
3
 72
8
 73
4
 74
0
 40
0
 40
0
 40
0
 40
0
 40
1
 40
1
 40
1
 40
1
 10
174.062
 20
162.82
 30
0
 10
174.046
 20
172.727
 30
0
 10
173.943
 20
182.634
 30
0
 10
173.947
 20
192.541
 30
0
  0
SPLINE
  5
AAB
330
A02
100
AcDbEntity
  8
View003
100
AcDbSpline
210
0
220
0
230
1
 70
8
 71
2
 72
6
 73
3
 74
0
 40
0
 40
0
 40
0
 40
1
 40
1
 40
1
 10
173.947
 20
192.541
 30
0
 10
173.954
 20
194.861
 30
0
 10
173.968
 20
197.182
 30
0
  0
SPLINE
  5
AAC
330
A02
100
AcDbEntity
  8
View003
100
AcDbSpline
210
0
220
0
230
1
 70
8
 71
3
 72
8
 73
4
 74
0
 40
0
 40
0
 40
0
 40
0
 40
1
 40
1
 40
1
 40
1
 10
173.968
 20
197.182
 30
0
 10
181.213
 20
206.807
 30
0
 10
188.863
 20
216.132
 30
0
 10
196.979
 20
225.038
 30
0
  0
SPLINE
  5
AAD
330
A02
100
AcDbEntity
  8
View003
100
AcDbSpline
210
0
220
0
230
1
 70
8
 71
3
 72
8
 73
4
 74
0
 40
0
 40
0
 40
0
 40
0
 40
1
 40
1
 40
1
 40
1
 10
196.979
 20
225.038
 30
0
 10
200.859
 20
229.29
 30
0
 10
204.873
 20
233.422
 30
0
 10
209.064
 20
237.369
 30
0
  0
SPLINE
  5
AAE
330
A02
100
AcDbEntity
  8
View003
100
AcDbSpline
210
0
220
0
230
1
 70
8
 71
3
 72
8
 73
4
 74
0
 40
0
 40
0
 40
0
 40
0
 40
1
 40
1
 40
1
 40
1
 10
209.064
 20
237.369
 30
0
 10
219.166
 20
246.949
 30
0
 10
229.95
 20
255.835
 30
0
 10
241.472
 20
263.661
 30
0
  0
SPLINE
  5
AAF
330
A02
100
AcDbEntity
  8
View003
100
AcDbSpline
210
0
220
0
230
1
 70
8
 71
3
 72
8
 73
4
 74
0
 40
0
 40
0
 40
0
 40
0
 40
1
 40
1
 40
1
 40
1
 10
241.472
 20
263.661
 30
0
 10
243.737
 20
265.204
 30
0
 10
246.046
 20
266.682
 30
0
 10
248.377
 20
268.122
 30
0
  0
SPLINE
  5
AB0
330
A02
100
AcDbEntity
  8
View003
100
AcDbSpline
210
0
220
0
230
1
 70
8
 71
2
 72
6
 73
3
 74
0
 40
0
 40
0
 40
0
 40
1
 40
1
 40
1
 10
248.377
 20
268.122
 30
0
 10
253.595
 20
271.38
 30
0
 10
258.985
 20
274.347
 30
0
  0
SPLINE
  5
AB1
330
A02
100
AcDbEntity
  8
View003
100
AcDbSpline
210
0
220
0
230
1
 70
8
 71
3
 72
8
 73
4
 74
0
 40
0
 40
0
 40
0
 40
0
 40
1
 40
1
 40
1
 40
1
 10
258.985
 20
274.347
 30
0
 10
264.207
 20
277.209
 30
0
 10
269.572
 20
279.835
 30
0
 10
275.145
 20
281.949
 30
0
  0
SPLINE
  5
AB2
330
A02
100
AcDbEntity
  8
View003
100
AcDbSpline
210
0
220
0
230
1
 70
8
 71
3
 72
8
 73
4
 74
0
 40
0
 40
0
 40
0
 40
0
 40
1
 40
1
 40
1
 40
1
 10
275.145
 20
281.949
 30
0
 10
278.203
 20
283.087
 30
0
 10
281.315
 20
284.072
 30
0
 10
284.449
 20
284.98
 30
0
  0
SPLINE
  5
AB3
330
A02
100
AcDbEntity
  8
View003
100
AcDbSpline
210
0
220
0
230
1
 70
8
 71
3
 72
8
 73
4
 74
0
 40
0
 40
0
 40
0
 40
0
 40
1
 40
1
 40
1
 40
1
 10
284.449
 20
284.98
 30
0
 10
288.864
 20
286.248
 30
0
 10
293.364
 20
287.234
 30
0
 10
297.923
 20
287.808
 30
0
  0
SPLINE
  5
AB4
330
A02
100
AcDbEntity
  8
View003
100
AcDbSpline
210
0
220
0
230
1
 70
8
 71
3
 72
8
 73
4
 74
0
 40
0
 40
0
 40
0
 40
0
 40
1
 40
1
 40
1
 40
1
 10
297.923
 20
287.808
 30
0
 10
300.944
 20
288.197
 30
0
 10
303.977
 20
288.491
 30
0
 10
307.009
 20
288.773
 30
0
  0
SPLINE
  5
AB5
330
A02
100
AcDbEntity
  8
View003
100
AcDbSpline
210
0
220
0
230
1
 70
8
 71
1
 72
4
 73
2
 74
0
 40
0.999997
 40
0.999997
 40
0.999998
 40
0.999998
 10
319.157
 20
289.43
 30
0
 10
319.157
 20
289.43
 30
0
  0
SPLINE
  5
AB6
330
A02
100
AcDbEntity
  8
View003
100
AcDbSpline
210
0
220
0
230
1
 70
8
 71
3
 72
8
 73
4
 74
0
 40
0
 40
0
 40
0
 40
0
 40
1
 40
1
 40
1
 40
1
 10
307.009
 20
288.773
 30
0
 10
311.05
 20
289.135
 30
0
 10
315.1
 20
289.396
 30
0
 10
319.157
 20
289.43
 30
0
  0
SPLINE
  5
AB7
330
A02
100
AcDbEntity
  8
View003
100
AcDbSpline
210
0
220
0
230
1
 70
8
 71
1
 72
4
 73
2
 74
0
 40
0
 40
0
 40
4e-05
 40
4e-05
 10
319.157
 20
289.43
 30
0
 10
319.157
 20
289.43
 30
0
  0
ENDSEC
  0
SECTION
  2
OBJECTS
  0
DICTIONARY
  5
F000
330
0
100
AcDbDictionary
  3
ACAD_GROUP
350
F001
  0
DICTIONARY
  5
F001
330
F000
100
AcDbDictionary
  0
ENDSEC
  0
EOF