999
FreeCAD v0.19 24366 (Git)
  0
SECTION
  2
HEADER
  9
$ACADVER
  1
AC1014
  9
$ACADMAINTVER
 70
     9
  9
$DWGCODEPAGE
  3
ANSI_1252
  9
$TEXTSTYLE
  7
STANDARD
  9
$DIMSTYLE
  2
STANDARD
  9
$DIMTXSTY
  7
STANDARD
  9
$CMLSTYLE
  2
STANDARD
  9
$PEXTMAX
 10
50
 20
50
 30
50
  9
$PEXTMIN
 10
0
 20
0
 30
0
  9
$HANDSEED
  5
FFFF
  0
ENDSEC
  0
SECTION
  2
CLASSES
  0
CLASS
  1
ACDBDICTIONARYWDFLT
  2
AcDbDictionaryWithDefault
  3
ObjectDBX Classes
 90
        0
280
     0
281
     0
  0
CLASS
  1
XRECORD
  2
AcDbXrecord
  3
ObjectDBX Classes
 90
        0
280
     0
281
     0
  0
CLASS
  1
LWPOLYLINE
  2
AcDbPolyline
  3
ObjectDBX Classes
 90
        0
280
     0
281
     1
  0
ENDSEC
  0
SECTION
  2
TABLES
  0
TABLE
  2
VPORT
  5
20
330
0
100
AcDbSymbolTable
 70
     1
  0
VPORT
  5
21
330
20
100
AcDbSymbolTableRecord
100
AcDbViewportTableRecord
  2
*ACTIVE
 70
     0
  0
ENDTAB
  0
TABLE
  2
LTYPE
  5
22
330
0
100
AcDbSymbolTable
 70
     1
  0
LTYPE
  5
23
330
21
100
AcDbSymbolTableRecord
100
AcDbLinetypeTableRecord
  2
BYBLOCK
 70
     0
  3

 72
    65
 73
     0
 40
0.0
  0
LTYPE
  5
24
330
21
100
AcDbSymbolTableRecord
100
AcDbLinetypeTableRecord
  2
BYLAYER
 70
     0
  3

 72
    65
 73
     0
 40
0.0
  0
LTYPE
  5
25
330
21
100
AcDbSymbolTableRecord
100
AcDbLinetypeTableRecord
  2
CONTINUOUS
 70
     0
  3
Solid line
 72
    65
 73
     0
 40
0.0
  0
ENDTAB
  0
TABLE
  2
LAYER
  5
AB8
330
0
100
AcDbSymbolTable
 70
3
  0
LAYER
  5
AB9
330
AB8
100
AcDbSymbolTableRecord
100
AcDbLayerTableRecord
  2
0
 70
   0
 62
   7
  6
CONTINUOUS
  0
LAYER
  5
ABA
330
AB8
100
AcDbSymbolTableRecord
100
AcDbLayerTableRecord
  2
View
 70
    0
 62
    7
  6
CONTINUOUS
  0
LAYER
  5
ABB
330
AB8
100
AcDbSymbolTableRecord
100
AcDbLayerTableRecord
  2
View006
 70
    0
 62
    7
  6
CONTINUOUS
  0
ENDTAB
  0
TABLE
  2
STYLE
  5
70
330
0
100
AcDbSymbolTable
 70
     2
  0
STYLE
  5
71
330
70
100
AcDbSymbolTableRecord
100
AcDbTextStyleTableRecord
  2
STANDARD
 70
     0
 40
0.0
 41
1.0
 50
0.0
 71
     0
 42
2.5
  3
arial.ttf
  4

  0
STYLE
  5
72
330
70
100
AcDbSymbolTableRecord
100
AcDbTextStyleTableRecord
  2
ANNOTATIVE
 70
     0
 40
0.0
 41
1.0
 50
0.0
 71
     0
 42
2.5
  3
arial.ttf
  4

  0
ENDTAB
  0
TABLE
  2
VIEW
  5
73
330
0
100
AcDbSymbolTable
 70
     0
  0
ENDTAB
  0
TABLE
  2
UCS
  5
74
330
0
100
AcDbSymbolTable
 70
     0
  0
ENDTAB
  0
TABLE
  2
APPID
  5
75
330
0
100
AcDbSymbolTable
 70
     2
  0
APPID
  5
76
330
75
100
AcDbSymbolTableRecord
100
AcDbRegAppTableRecord
  2
ACAD
 70
     0
  0
APPID
  5
77
330
75
100
AcDbSymbolTableRecord
100
AcDbRegAppTableRecord
  2
ACADANNOTATIVE
 70
     0
  0
ENDTAB
  0
TABLE
  2
DIMSTYLE
  5
78
330
0
100
AcDbSymbolTable
 70
     2
  0
DIMSTYLE
105
79
330
78
100
AcDbSymbolTableRecord
100
AcDbDimStyleTableRecord
  2
STANDARD
 70
     0
  3

  4

  5

  6

  7

 40
0.0
 41
2.5
 42
0.625
 43
3.75
 44
1.25
 45
0.0
 46
0.0
 47
0.0
 48
0.0
140
2.5
141
2.5
142
0.0
143
0.03937007874016
144
1.0
145
0.0
146
1.0
147
0.625
 71
     0
 72
     0
 73
     0
 74
     0
 75
     0
 76
     0
 77
     1
 78
     8
170
     0
171
     3
172
     1
173
     0
174
     0
175
     0
176
     0
177
     0
178
     0
270
     2
271
     2
272
     2
273
     2
274
     3
340
71
275
     0
280
     0
281
     0
282
     0
283
     0
284
     8
285
     0
286
     0
287
     3
288
     0
  0
ENDTAB
  0
TABLE
  2
BLOCK_RECORD
  5
A01
330
0
100
AcDbSymbolTable
  70
5
  0
BLOCK_RECORD
  5
A02
330
A01
100
AcDbSymbolTableRecord
100
AcDbBlockTableRecord
  2
*MODEL_SPACE
  0
BLOCK_RECORD
  5
A03
330
A01
100
AcDbSymbolTableRecord
100
AcDbBlockTableRecord
  2
*PAPER_SPACE
  0
ENDTAB
  0
ENDSEC
  0
SECTION
  2
BLOCKS
  0
BLOCK
  5
A04
330
A02
100
AcDbEntity
  8
0
100
AcDbBlockBegin
  2
*MODEL_SPACE
 70
   0
 10
0
 20
0
 30
0
  3
*MODEL_SPACE
  1
 
  0
ENDBLK
  5
A05
330
A02
100
AcDbEntity
  8
0
100
AcDbBlockEnd
  0
BLOCK
  5
A06
330
A03
100
AcDbEntity
 67
1
  8
0
100
AcDbBlockBegin
  2
*PAPER_SPACE
 70
   0
 10
0
 20
0
 30
0
  3
*PAPER_SPACE
  1
 
  0
ENDBLK
  5
A07
330
A03
100
AcDbEntity
 67
    1
  8
0
100
AcDbBlockEnd
  0
ENDSEC
  0
SECTION
  2
ENTITIES
  0
SPLINE
  5
A08
330
A02
100
AcDbEntity
  8
View
100
AcDbSpline
210
0
220
0
230
1
 70
8
 71
1
 72
4
 73
2
 74
0
 40
0
 40
0
 40
3.88865e-06
 40
3.88865e-06
 10
61.2904
 20
249.359
 30
0
 10
61.2903
 20
249.359
 30
0
  0
SPLINE
  5
A09
330
A02
100
AcDbEntity
  8
View
100
AcDbSpline
210
0
220
0
230
1
 70
8
 71
3
 72
8
 73
4
 74
0
 40
0
 40
0
 40
0
 40
0
 40
1
 40
1
 40
1
 40
1
 10
61.2904
 20
249.359
 30
0
 10
60.8785
 20
249.334
 30
0
 10
60.4296
 20
249.33
 30
0
 10
60.0698
 20
249.112
 30
0
  0
SPLINE
  5
A0A
330
A02
100
AcDbEntity
  8
View
100
AcDbSpline
210
0
220
0
230
1
 70
8
 71
3
 72
8
 73
4
 74
0
 40
0
 40
0
 40
0
 40
0
 40
1
 40
1
 40
1
 40
1
 10
60.0698
 20
249.112
 30
0
 10
58.9391
 20
248
 30
0
 10
57.7324
 20
246.893
 30
0
 10
57.0483
 20
245.433
 30
0
  0
SPLINE
  5
A0B
330
A02
100
AcDbEntity
  8
View
100
AcDbSpline
210
0
220
0
230
1
 70
8
 71
3
 72
8
 73
4
 74
0
 40
0
 40
0
 40
0
 40
0
 40
1
 40
1
 40
1
 40
1
 10
57.0483
 20
245.433
 30
0
 10
55.918
 20
243.208
 30
0
 10
55.5697
 20
240.677
 30
0
 10
55.5445
 20
238.207
 30
0
  0
SPLINE
  5
A0C
330
A02
100
AcDbEntity
  8
View
100
AcDbSpline
210
0
220
0
230
1
 70
8
 71
3
 72
8
 73
4
 74
0
 40
0
 40
0
 40
0
 40
0
 40
1
 40
1
 40
1
 40
1
 10
55.5445
 20
238.207
 30
0
 10
55.4809
 20
235.331
 30
0
 10
56.2371
 20
232.516
 30
0
 10
57.1282
 20
229.806
 30
0
  0
SPLINE
  5
A0D
330
A02
100
AcDbEntity
  8
View
100
AcDbSpline
210
0
220
0
230
1
 70
8
 71
3
 72
8
 73
4
 74
0
 40
0
 40
0
 40
0
 40
0
 40
1
 40
1
 40
1
 40
1
 10
57.1282
 20
229.806
 30
0
 10
58.1202
 20
226.85
 30
0
 10
59.3075
 20
223.964
 30
0
 10
60.3381
 20
221.022
 30
0
  0
SPLINE
  5
A0E
330
A02
100
AcDbEntity
  8
View
100
AcDbSpline
210
0
220
0
230
1
 70
8
 71
3
 72
8
 73
4
 74
0
 40
0
 40
0
 40
0
 40
0
 40
1
 40
1
 40
1
 40
1
 10
60.3381
 20
221.022
 30
0
 10
62.1177
 20
216.161
 30
0
 10
64.5901
 20
211.572
 30
0
 10
67.5027
 20
207.299
 30
0
  0
SPLINE
  5
A0F
330
A02
100
AcDbEntity
  8
View
100
AcDbSpline
210
0
220
0
230
1
 70
8
 71
3
 72
8
 73
4
 74
0
 40
0
 40
0
 40
0
 40
0
 40
1
 40
1
 40
1
 40
1
 10
67.5027
 20
207.299
 30
0
 10
69.2218
 20
204.769
 30
0
 10
71.0351
 20
202.301
 30
0
 10
72.9588
 20
199.922
 30
0
  0
SPLINE
  5
A10
330
A02
100
AcDbEntity
  8
View
100
AcDbSpline
210
0
220
0
230
1
 70
8
 71
3
 72
8
 73
4
 74
0
 40
0
 40
0
 40
0
 40
0
 40
1
 40
1
 40
1
 40
1
 10
72.9588
 20
199.922
 30
0
 10
74.3757
 20
198.169
 30
0
 10
75.8625
 20
196.475
 30
0
 10
77.3571
 20
194.788
 30
0
  0
SPLINE
  5
A11
330
A02
100
AcDbEntity
  8
View
100
AcDbSpline
210
0
220
0
230
1
 70
8
 71
3
 72
8
 73
4
 74
0
 40
0
 40
0
 40
0
 40
0
 40
1
 40
1
 40
1
 40
1
 10
77.3571
 20
194.788
 30
0
 10
77.5304
 20
194.582
 30
0
 10
77.7113
 20
194.375
 30
0
 10
77.8636
 20
194.188
 30
0
  0
SPLINE
  5
A12
330
A02
100
AcDbEntity
  8
View
100
AcDbSpline
210
0
220
0
230
1
 70
8
 71
3
 72
8
 73
4
 74
0
 40
0
 40
0
 40
0
 40
0
 40
1
 40
1
 40
1
 40
1
 10
77.8636
 20
194.188
 30
0
 10
78.0235
 20
193.994
 30
0
 10
78.1477
 20
193.836
 30
0
 10
78.3048
 20
193.627
 30
0
  0
SPLINE
  5
A13
330
A02
100
AcDbEntity
  8
View
100
AcDbSpline
210
0
220
0
230
1
 70
8
 71
3
 72
8
 73
4
 74
0
 40
0
 40
0
 40
0
 40
0
 40
1
 40
1
 40
1
 40
1
 10
78.3048
 20
193.627
 30
0
 10
78.799
 20
192.963
 30
0
 10
79.2144
 20
192.204
 30
0
 10
79.2797
 20
191.364
 30
0
  0
SPLINE
  5
A14
330
A02
100
AcDbEntity
  8
View
100
AcDbSpline
210
0
220
0
230
1
 70
8
 71
3
 72
8
 73
4
 74
0
 40
0
 40
0
 40
0
 40
0
 40
1
 40
1
 40
1
 40
1
 10
79.2797
 20
191.364
 30
0
 10
79.3095
 20
191.134
 30
0
 10
79.3213
 20
190.878
 30
0
 10
79.3316
 20
190.698
 30
0
  0
SPLINE
  5
A15
330
A02
100
AcDbEntity
  8
View
100
AcDbSpline
210
0
220
0
230
1
 70
8
 71
3
 72
8
 73
4
 74
0
 40
0
 40
0
 40
0
 40
0
 40
1
 40
1
 40
1
 40
1
 10
79.3316
 20
190.698
 30
0
 10
79.3794
 20
189.388
 30
0
 10
79.3859
 20
188.069
 30
0
 10
79.4985
 20
186.758
 30
0
  0
SPLINE
  5
A16
330
A02
100
AcDbEntity
  8
View
100
AcDbSpline
210
0
220
0
230
1
 70
8
 71
3
 72
8
 73
4
 74
0
 40
0
 40
0
 40
0
 40
0
 40
1
 40
1
 40
1
 40
1
 10
79.4985
 20
186.758
 30
0
 10
80.9125
 20
183.539
 30
0
 10
82.2729
 20
180.293
 30
0
 10
83.8369
 20
177.142
 30
0
  0
SPLINE
  5
A17
330
A02
100
AcDbEntity
  8
View
100
AcDbSpline
210
0
220
0
230
1
 70
8
 71
3
 72
8
 73
4
 74
0
 40
0
 40
0
 40
0
 40
0
 40
1
 40
1
 40
1
 40
1
 10
83.8369
 20
177.142
 30
0
 10
83.9588
 20
176.879
 30
0
 10
84.0611
 20
176.646
 30
0
 10
84.1779
 20
176.366
 30
0
  0
SPLINE
  5
A18
330
A02
100
AcDbEntity
  8
View
100
AcDbSpline
210
0
220
0
230
1
 70
8
 71
3
 72
8
 73
4
 74
0
 40
0
 40
0
 40
0
 40
0
 40
1
 40
1
 40
1
 40
1
 10
84.1779
 20
176.366
 30
0
 10
84.433
 20
175.756
 30
0
 10
84.666
 20
175.123
 30
0
 10
84.8667
 20
174.517
 30
0
  0
SPLINE
  5
A19
330
A02
100
AcDbEntity
  8
View
100
AcDbSpline
210
0
220
0
230
1
 70
8
 71
3
 72
8
 73
4
 74
0
 40
0
 40
0
 40
0
 40
0
 40
1
 40
1
 40
1
 40
1
 10
84.8667
 20
174.517
 30
0
 10
85.2783
 20
173.285
 30
0
 10
85.6021
 20
172.059
 30
0
 10
85.9026
 20
170.795
 30
0
  0
SPLINE
  5
A1A
330
A02
100
AcDbEntity
  8
View
100
AcDbSpline
210
0
220
0
230
1
 70
8
 71
2
 72
6
 73
3
 74
0
 40
0
 40
0
 40
0
 40
1
 40
1
 40
1
 10
85.9026
 20
170.795
 30
0
 10
86.0385
 20
170.248
 30
0
 10
86.1494
 20
169.662
 30
0
  0
SPLINE
  5
A1B
330
A02
100
AcDbEntity
  8
View
100
AcDbSpline
210
0
220
0
230
1
 70
8
 71
2
 72
6
 73
3
 74
0
 40
0
 40
0
 40
0
 40
1
 40
1
 40
1
 10
86.1494
 20
169.662
 30
0
 10
86.2283
 20
169.244
 30
0
 10
86.2849
 20
168.861
 30
0
  0
SPLINE
  5
A1C
330
A02
100
AcDbEntity
  8
View
100
AcDbSpline
210
0
220
0
230
1
 70
8
 71
3
 72
8
 73
4
 74
0
 40
0
 40
0
 40
0
 40
0
 40
1
 40
1
 40
1
 40
1
 10
86.2849
 20
168.861
 30
0
 10
86.3944
 20
168.158
 30
0
 10
86.4719
 20
167.482
 30
0
 10
86.5543
 20
166.769
 30
0
  0
SPLINE
  5
A1D
330
A02
100
AcDbEntity
  8
View
100
AcDbSpline
210
0
220
0
230
1
 70
8
 71
3
 72
8
 73
4
 74
0
 40
0
 40
0
 40
0
 40
0
 40
1
 40
1
 40
1
 40
1
 10
86.5543
 20
166.769
 30
0
 10
86.7402
 20
165.066
 30
0
 10
87.1109
 20
163.391
 30
0
 10
87.4656
 20
161.717
 30
0
  0
SPLINE
  5
A1E
330
A02
100
AcDbEntity
  8
View
100
AcDbSpline
210
0
220
0
230
1
 70
8
 71
3
 72
8
 73
4
 74
0
 40
0
 40
0
 40
0
 40
0
 40
1
 40
1
 40
1
 40
1
 10
87.4656
 20
161.717
 30
0
 10
87.7117
 20
160.644
 30
0
 10
88.1339
 20
159.602
 30
0
 10
88.7999
 20
158.719
 30
0
  0
SPLINE
  5
A1F
330
A02
100
AcDbEntity
  8
View
100
AcDbSpline
210
0
220
0
230
1
 70
8
 71
3
 72
8
 73
4
 74
0
 40
0
 40
0
 40
0
 40
0
 40
1
 40
1
 40
1
 40
1
 10
88.7999
 20
158.719
 30
0
 10
89.5582
 20
157.678
 30
0
 10
90.5407
 20
156.829
 30
0
 10
91.5536
 20
156.045
 30
0
  0
SPLINE
  5
A20
330
A02
100
AcDbEntity
  8
View
100
AcDbSpline
210
0
220
0
230
1
 70
8
 71
3
 72
8
 73
4
 74
0
 40
0
 40
0
 40
0
 40
0
 40
1
 40
1
 40
1
 40
1
 10
91.5536
 20
156.045
 30
0
 10
91.4977
 20
153.735
 30
0
 10
91.6895
 20
151.426
 30
0
 10
91.987
 20
149.137
 30
0
  0
SPLINE
  5
A21
330
A02
100
AcDbEntity
  8
View
100
AcDbSpline
210
0
220
0
230
1
 70
8
 71
3
 72
8
 73
4
 74
0
 40
0
 40
0
 40
0
 40
0
 40
1
 40
1
 40
1
 40
1
 10
91.987
 20
149.137
 30
0
 10
92.233
 20
147.458
 30
0
 10
92.5754
 20
145.781
 30
0
 10
93.1686
 20
144.188
 30
0
  0
SPLINE
  5
A22
330
A02
100
AcDbEntity
  8
View
100
AcDbSpline
210
0
220
0
230
1
 70
8
 71
3
 72
8
 73
4
 74
0
 40
0
 40
0
 40
0
 40
0
 40
1
 40
1
 40
1
 40
1
 10
93.1686
 20
144.188
 30
0
 10
93.5981
 20
143.065
 30
0
 10
94.2378
 20
142.031
 30
0
 10
95.0133
 20
141.115
 30
0
  0
SPLINE
  5
A23
330
A02
100
AcDbEntity
  8
View
100
AcDbSpline
210
0
220
0
230
1
 70
8
 71
2
 72
6
 73
3
 74
0
 40
0
 40
0
 40
0
 40
1
 40
1
 40
1
 10
95.0133
 20
141.115
 30
0
 10
96.136
 20
139.75
 30
0
 10
97.3421
 20
138.458
 30
0
  0
SPLINE
  5
A24
330
A02
100
AcDbEntity
  8
View
100
AcDbSpline
210
0
220
0
230
1
 70
8
 71
3
 72
8
 73
4
 74
0
 40
0
 40
0
 40
0
 40
0
 40
1
 40
1
 40
1
 40
1
 10
97.3421
 20
138.458
 30
0
 10
98.662
 20
137.116
 30
0
 10
100.14
 20
135.942
 30
0
 10
101.664
 20
134.842
 30
0
  0
SPLINE
  5
A25
330
A02
100
AcDbEntity
  8
View
100
AcDbSpline
210
0
220
0
230
1
 70
8
 71
3
 72
8
 73
4
 74
0
 40
0
 40
0
 40
0
 40
0
 40
1
 40
1
 40
1
 40
1
 10
101.664
 20
134.842
 30
0
 10
100.991
 20
133.867
 30
0
 10
100.319
 20
132.885
 30
0
 10
99.7484
 20
131.845
 30
0
  0
SPLINE
  5
A26
330
A02
100
AcDbEntity
  8
View
100
AcDbSpline
210
0
220
0
230
1
 70
8
 71
3
 72
8
 73
4
 74
0
 40
0
 40
0
 40
0
 40
0
 40
1
 40
1
 40
1
 40
1
 10
99.7484
 20
131.845
 30
0
 10
98.9276
 20
130.268
 30
0
 10
98.5122
 20
128.51
 30
0
 10
98.3432
 20
126.748
 30
0
  0
SPLINE
  5
A27
330
A02
100
AcDbEntity
  8
View
100
AcDbSpline
210
0
220
0
230
1
 70
8
 71
3
 72
8
 73
4
 74
0
 40
0
 40
0
 40
0
 40
0
 40
1
 40
1
 40
1
 40
1
 10
98.3432
 20
126.748
 30
0
 10
98.005
 20
124.04
 30
0
 10
97.8761
 20
121.312
 30
0
 10
97.7047
 20
118.59
 30
0
  0
SPLINE
  5
A28
330
A02
100
AcDbEntity
  8
View
100
AcDbSpline
210
0
220
0
230
1
 70
8
 71
3
 72
8
 73
4
 74
0
 40
0
 40
0
 40
0
 40
0
 40
1
 40
1
 40
1
 40
1
 10
97.7047
 20
118.59
 30
0
 10
97.5812
 20
116.954
 30
0
 10
97.4718
 20
115.328
 30
0
 10
97.2473
 20
113.689
 30
0
  0
SPLINE
  5
A29
330
A02
100
AcDbEntity
  8
View
100
AcDbSpline
210
0
220
0
230
1
 70
8
 71
3
 72
8
 73
4
 74
0
 40
0
 40
0
 40
0
 40
0
 40
1
 40
1
 40
1
 40
1
 10
97.2473
 20
113.689
 30
0
 10
97.1239
 20
112.915
 30
0
 10
97.0597
 20
112.109
 30
0
 10
96.6842
 20
111.405
 30
0
  0
SPLINE
  5
A2A
330
A02
100
AcDbEntity
  8
View
100
AcDbSpline
210
0
220
0
230
1
 70
8
 71
3
 72
8
 73
4
 74
0
 40
0
 40
0
 40
0
 40
0
 40
1
 40
1
 40
1
 40
1
 10
96.6842
 20
111.405
 30
0
 10
96.342
 20
110.672
 30
0
 10
95.9938
 20
109.866
 30
0
 10
96.1621
 20
109.04
 30
0
  0
SPLINE
  5
A2B
330
A02
100
AcDbEntity
  8
View
100
AcDbSpline
210
0
220
0
230
1
 70
8
 71
3
 72
8
 73
4
 74
0
 40
0
 40
0
 40
0
 40
0
 40
1
 40
1
 40
1
 40
1
 10
96.1621
 20
109.04
 30
0
 10
96.2601
 20
108.57
 30
0
 10
96.6569
 20
108.241
 30
0
 10
96.7735
 20
107.777
 30
0
  0
SPLINE
  5
A2C
330
A02
100
AcDbEntity
  8
View
100
AcDbSpline
210
0
220
0
230
1
 70
8
 71
3
 72
8
 73
4
 74
0
 40
0
 40
0
 40
0
 40
0
 40
1
 40
1
 40
1
 40
1
 10
96.7735
 20
107.777
 30
0
 10
97.1145
 20
106.781
 30
0
 10
97.2491
 20
105.731
 30
0
 10
97.4501
 20
104.702
 30
0
  0
SPLINE
  5
A2D
330
A02
100
AcDbEntity
  8
View
100
AcDbSpline
210
0
220
0
230
1
 70
8
 71
3
 72
8
 73
4
 74
0
 40
0
 40
0
 40
0
 40
0
 40
1
 40
1
 40
1
 40
1
 10
97.4501
 20
104.702
 30
0
 10
97.6263
 20
103.656
 30
0
 10
97.7525
 20
102.534
 30
0
 10
98.006
 20
101.472
 30
0
  0
SPLINE
  5
A2E
330
A02
100
AcDbEntity
  8
View
100
AcDbSpline
210
0
220
0
230
1
 70
8
 71
3
 72
8
 73
4
 74
0
 40
0
 40
0
 40
0
 40
0
 40
1
 40
1
 40
1
 40
1
 10
98.006
 20
101.472
 30
0
 10
98.3064
 20
100.332
 30
0
 10
98.7485
 20
99.2071
 30
0
 10
99.4517
 20
98.2523
 30
0
  0
SPLINE
  5
A2F
330
A02
100
AcDbEntity
  8
View
100
AcDbSpline
210
0
220
0
230
1
 70
8
 71
2
 72
6
 73
3
 74
0
 40
0
 40
0
 40
0
 40
1
 40
1
 40
1
 10
99.4517
 20
98.2523
 30
0
 10
99.6595
 20
97.996
 30
0
 10
99.8921
 20
97.762
 30
0
  0
SPLINE
  5
A30
330
A02
100
AcDbEntity
  8
View
100
AcDbSpline
210
0
220
0
230
1
 70
8
 71
3
 72
8
 73
4
 74
0
 40
0
 40
0
 40
0
 40
0
 40
1
 40
1
 40
1
 40
1
 10
99.8921
 20
97.762
 30
0
 10
99.1344
 20
95.8085
 30
0
 10
98.6517
 20
93.7055
 30
0
 10
98.7973
 20
91.6006
 30
0
  0
SPLINE
  5
A31
330
A02
100
AcDbEntity
  8
View
100
AcDbSpline
210
0
220
0
230
1
 70
8
 71
3
 72
8
 73
4
 74
0
 40
0
 40
0
 40
0
 40
0
 40
1
 40
1
 40
1
 40
1
 10
98.7973
 20
91.6006
 30
0
 10
98.8986
 20
90.6631
 30
0
 10
99.216
 20
89.7669
 30
0
 10
99.5185
 20
88.8793
 30
0
  0
SPLINE
  5
A32
330
A02
100
AcDbEntity
  8
View
100
AcDbSpline
210
0
220
0
230
1
 70
8
 71
3
 72
8
 73
4
 74
0
 40
0
 40
0
 40
0
 40
0
 40
1
 40
1
 40
1
 40
1
 10
99.5185
 20
88.8793
 30
0
 10
100.251
 20
86.8585
 30
0
 10
101.405
 20
84.9597
 30
0
 10
103.033
 20
83.5359
 30
0
  0
SPLINE
  5
A33
330
A02
100
AcDbEntity
  8
View
100
AcDbSpline
210
0
220
0
230
1
 70
8
 71
2
 72
6
 73
3
 74
0
 40
0
 40
0
 40
0
 40
1
 40
1
 40
1
 10
103.033
 20
83.5359
 30
0
 10
103.889
 20
82.7753
 30
0
 10
104.86
 20
82.1687
 30
0
  0
SPLINE
  5
A34
330
A02
100
AcDbEntity
  8
View
100
AcDbSpline
210
0
220
0
230
1
 70
8
 71
3
 72
8
 73
4
 74
0
 40
0
 40
0
 40
0
 40
0
 40
1
 40
1
 40
1
 40
1
 10
104.86
 20
82.1687
 30
0
 10
105.286
 20
79.912
 30
0
 10
105.94
 20
77.6436
 30
0
 10
107.244
 20
75.7254
 30
0
  0
SPLINE
  5
A35
330
A02
100
AcDbEntity
  8
View
100
AcDbSpline
210
0
220
0
230
1
 70
8
 71
3
 72
8
 73
4
 74
0
 40
0
 40
0
 40
0
 40
0
 40
1
 40
1
 40
1
 40
1
 10
107.244
 20
75.7254
 30
0
 10
108.459
 20
73.8645
 30
0
 10
109.856
 20
72.0564
 30
0
 10
111.722
 20
70.8062
 30
0
  0
SPLINE
  5
A36
330
A02
100
AcDbEntity
  8
View
100
AcDbSpline
210
0
220
0
230
1
 70
8
 71
3
 72
8
 73
4
 74
0
 40
0
 40
0
 40
0
 40
0
 40
1
 40
1
 40
1
 40
1
 10
111.722
 20
70.8062
 30
0
 10
112.732
 20
70.11
 30
0
 10
113.871
 20
69.6365
 30
0
 10
115.002
 20
69.1768
 30
0
  0
SPLINE
  5
A37
330
A02
100
AcDbEntity
  8
View
100
AcDbSpline
210
0
220
0
230
1
 70
8
 71
3
 72
8
 73
4
 74
0
 40
0
 40
0
 40
0
 40
0
 40
1
 40
1
 40
1
 40
1
 10
115.002
 20
69.1768
 30
0
 10
116.112
 20
68.6523
 30
0
 10
117.208
 20
68.0664
 30
0
 10
118.169
 20
67.2963
 30
0
  0
SPLINE
  5
A38
330
A02
100
AcDbEntity
  8
View
100
AcDbSpline
210
0
220
0
230
1
 70
8
 71
3
 72
8
 73
4
 74
0
 40
0
 40
0
 40
0
 40
0
 40
1
 40
1
 40
1
 40
1
 10
118.169
 20
67.2963
 30
0
 10
119.203
 20
66.4032
 30
0
 10
120.032
 20
65.2366
 30
0
 10
121.115
 20
64.4349
 30
0
  0
SPLINE
  5
A39
330
A02
100
AcDbEntity
  8
View
100
AcDbSpline
210
0
220
0
230
1
 70
8
 71
3
 72
8
 73
4
 74
0
 40
0
 40
0
 40
0
 40
0
 40
1
 40
1
 40
1
 40
1
 10
121.115
 20
64.4349
 30
0
 10
122.178
 20
63.5473
 30
0
 10
123.578
 20
63.24
 30
0
 10
124.919
 20
63.077
 30
0
  0
SPLINE
  5
A3A
330
A02
100
AcDbEntity
  8
View
100
AcDbSpline
210
0
220
0
230
1
 70
8
 71
3
 72
8
 73
4
 74
0
 40
0
 40
0
 40
0
 40
0
 40
1
 40
1
 40
1
 40
1
 10
124.919
 20
63.077
 30
0
 10
125.805
 20
62.9531
 30
0
 10
126.742
 20
62.8774
 30
0
 10
127.523
 20
62.4033
 30
0
  0
SPLINE
  5
A3B
330
A02
100
AcDbEntity
  8
View
100
AcDbSpline
210
0
220
0
230
1
 70
8
 71
3
 72
8
 73
4
 74
0
 40
0
 40
0
 40
0
 40
0
 40
1
 40
1
 40
1
 40
1
 10
127.523
 20
62.4033
 30
0
 10
128.406
 20
61.6971
 30
0
 10
129.131
 20
60.8015
 30
0
 10
130.086
 20
60.1822
 30
0
  0
SPLINE
  5
A3C
330
A02
100
AcDbEntity
  8
View
100
AcDbSpline
210
0
220
0
230
1
 70
8
 71
3
 72
8
 73
4
 74
0
 40
0
 40
0
 40
0
 40
0
 40
1
 40
1
 40
1
 40
1
 10
130.086
 20
60.1822
 30
0
 10
131.037
 20
59.5136
 30
0
 10
132.196
 20
59.1828
 30
0
 10
133.352
 20
59.1614
 30
0
  0
SPLINE
  5
A3D
330
A02
100
AcDbEntity
  8
View
100
AcDbSpline
210
0
220
0
230
1
 70
8
 71
3
 72
8
 73
4
 74
0
 40
0
 40
0
 40
0
 40
0
 40
1
 40
1
 40
1
 40
1
 10
133.352
 20
59.1614
 30
0
 10
134.33
 20
59.1079
 30
0
 10
135.338
 20
59.3462
 30
0
 10
136.289
 20
59.025
 30
0
  0
SPLINE
  5
A3E
330
A02
100
AcDbEntity
  8
View
100
AcDbSpline
210
0
220
0
230
1
 70
8
 71
3
 72
8
 73
4
 74
0
 40
0
 40
0
 40
0
 40
0
 40
1
 40
1
 40
1
 40
1
 10
136.289
 20
59.025
 30
0
 10
138.774
 20
58.0304
 30
0
 10
141.133
 20
56.7549
 30
0
 10
143.554
 20
55.6189
 30
0
  0
SPLINE
  5
A3F
330
A02
100
AcDbEntity
  8
View
100
AcDbSpline
210
0
220
0
230
1
 70
8
 71
3
 72
8
 73
4
 74
0
 40
0
 40
0
 40
0
 40
0
 40
1
 40
1
 40
1
 40
1
 10
143.554
 20
55.6189
 30
0
 10
144.502
 20
55.1569
 30
0
 10
145.482
 20
54.7351
 30
0
 10
146.525
 20
54.545
 30
0
  0
SPLINE
  5
A40
330
A02
100
AcDbEntity
  8
View
100
AcDbSpline
210
0
220
0
230
1
 70
8
 71
3
 72
8
 73
4
 74
0
 40
0
 40
0
 40
0
 40
0
 40
1
 40
1
 40
1
 40
1
 10
146.525
 20
54.545
 30
0
 10
147.392
 20
54.375
 30
0
 10
148.304
 20
54.4321
 30
0
 10
149.132
 20
54.7479
 30
0
  0
SPLINE
  5
A41
330
A02
100
AcDbEntity
  8
View
100
AcDbSpline
210
0
220
0
230
1
 70
8
 71
3
 72
8
 73
4
 74
0
 40
0
 40
0
 40
0
 40
0
 40
1
 40
1
 40
1
 40
1
 10
149.132
 20
54.7479
 30
0
 10
149.837
 20
54.9904
 30
0
 10
150.537
 20
55.2886
 30
0
 10
151.291
 20
55.3336
 30
0
  0
SPLINE
  5
A42
330
A02
100
AcDbEntity
  8
View
100
AcDbSpline
210
0
220
0
230
1
 70
8
 71
3
 72
8
 73
4
 74
0
 40
0
 40
0
 40
0
 40
0
 40
1
 40
1
 40
1
 40
1
 10
151.291
 20
55.3336
 30
0
 10
152.448
 20
55.446
 30
0
 10
153.61
 20
55.318
 30
0
 10
154.761
 20
55.2087
 30
0
  0
SPLINE
  5
A43
330
A02
100
AcDbEntity
  8
View
100
AcDbSpline
210
0
220
0
230
1
 70
8
 71
3
 72
8
 73
4
 74
0
 40
0
 40
0
 40
0
 40
0
 40
1
 40
1
 40
1
 40
1
 10
154.761
 20
55.2087
 30
0
 10
156.342
 20
55.0074
 30
0
 10
157.856
 20
54.5334
 30
0
 10
159.442
 20
54.3294
 30
0
  0
SPLINE
  5
A44
330
A02
100
AcDbEntity
  8
View
100
AcDbSpline
210
0
220
0
230
1
 70
8
 71
3
 72
8
 73
4
 74
0
 40
0
 40
0
 40
0
 40
0
 40
1
 40
1
 40
1
 40
1
 10
159.442
 20
54.3294
 30
0
 10
161.132
 20
54.1311
 30
0
 10
162.911
 20
54.1052
 30
0
 10
164.51
 20
54.769
 30
0
  0
SPLINE
  5
A45
330
A02
100
AcDbEntity
  8
View
100
AcDbSpline
210
0
220
0
230
1
 70
8
 71
3
 72
8
 73
4
 74
0
 40
0
 40
0
 40
0
 40
0
 40
1
 40
1
 40
1
 40
1
 10
164.51
 20
54.769
 30
0
 10
165.878
 20
55.3289
 30
0
 10
166.997
 20
56.3185
 30
0
 10
168.124
 20
57.247
 30
0
  0
SPLINE
  5
A46
330
A02
100
AcDbEntity
  8
View
100
AcDbSpline
210
0
220
0
230
1
 70
8
 71
3
 72
8
 73
4
 74
0
 40
0
 40
0
 40
0
 40
0
 40
1
 40
1
 40
1
 40
1
 10
168.124
 20
57.247
 30
0
 10
168.924
 20
57.9085
 30
0
 10
169.819
 20
58.5776
 30
0
 10
170.89
 20
58.6667
 30
0
  0
SPLINE
  5
A47
330
A02
100
AcDbEntity
  8
View
100
AcDbSpline
210
0
220
0
230
1
 70
8
 71
3
 72
8
 73
4
 74
0
 40
0
 40
0
 40
0
 40
0
 40
1
 40
1
 40
1
 40
1
 10
170.89
 20
58.6667
 30
0
 10
171.953
 20
58.778
 30
0
 10
173.086
 20
58.8253
 30
0
 10
174.084
 20
59.2928
 30
0
  0
SPLINE
  5
A48
330
A02
100
AcDbEntity
  8
View
100
AcDbSpline
210
0
220
0
230
1
 70
8
 71
3
 72
8
 73
4
 74
0
 40
0
 40
0
 40
0
 40
0
 40
1
 40
1
 40
1
 40
1
 10
174.084
 20
59.2928
 30
0
 10
175.984
 20
60.0959
 30
0
 10
177.495
 20
61.5904
 30
0
 10
178.726
 20
63.2116
 30
0
  0
SPLINE
  5
A49
330
A02
100
AcDbEntity
  8
View
100
AcDbSpline
210
0
220
0
230
1
 70
8
 71
3
 72
8
 73
4
 74
0
 40
0
 40
0
 40
0
 40
0
 40
1
 40
1
 40
1
 40
1
 10
178.726
 20
63.2116
 30
0
 10
180.754
 20
65.8614
 30
0
 10
182.374
 20
68.7886
 30
0
 10
184.031
 20
71.6761
 30
0
  0
SPLINE
  5
A4A
330
A02
100
AcDbEntity
  8
View
100
AcDbSpline
210
0
220
0
230
1
 70
8
 71
3
 72
8
 73
4
 74
0
 40
0
 40
0
 40
0
 40
0
 40
1
 40
1
 40
1
 40
1
 10
184.031
 20
71.6761
 30
0
 10
186.311
 20
75.7251
 30
0
 10
188.471
 20
79.8444
 30
0
 10
190.411
 20
84.0675
 30
0
  0
SPLINE
  5
A4B
330
A02
100
AcDbEntity
  8
View
100
AcDbSpline
210
0
220
0
230
1
 70
8
 71
3
 72
8
 73
4
 74
0
 40
0
 40
0
 40
0
 40
0
 40
1
 40
1
 40
1
 40
1
 10
190.411
 20
84.0675
 30
0
 10
192.231
 20
88.1989
 30
0
 10
193.831
 20
92.4215
 30
0
 10
195.455
 20
96.6323
 30
0
  0
SPLINE
  5
A4C
330
A02
100
AcDbEntity
  8
View
100
AcDbSpline
210
0
220
0
230
1
 70
8
 71
3
 72
8
 73
4
 74
0
 40
0
 40
0
 40
0
 40
0
 40
1
 40
1
 40
1
 40
1
 10
195.455
 20
96.6323
 30
0
 10
197.163
 20
101.104
 30
0
 10
198.807
 20
105.599
 30
0
 10
200.465
 20
110.089
 30
0
  0
SPLINE
  5
A4D
330
A02
100
AcDbEntity
  8
View
100
AcDbSpline
210
0
220
0
230
1
 70
8
 71
2
 72
6
 73
3
 74
0
 40
0
 40
0
 40
0
 40
1
 40
1
 40
1
 10
200.465
 20
110.089
 30
0
 10
200.829
 20
111.036
 30
0
 10
201.255
 20
111.955
 30
0
  0
SPLINE
  5
A4E
330
A02
100
AcDbEntity
  8
View
100
AcDbSpline
210
0
220
0
230
1
 70
8
 71
3
 72
8
 73
4
 74
0
 40
0
 40
0
 40
0
 40
0
 40
1
 40
1
 40
1
 40
1
 10
201.255
 20
111.955
 30
0
 10
201.329
 20
112.109
 30
0
 10
201.438
 20
112.341
 30
0
 10
201.531
 20
112.523
 30
0
  0
SPLINE
  5
A4F
330
A02
100
AcDbEntity
  8
View
100
AcDbSpline
210
0
220
0
230
1
 70
8
 71
3
 72
8
 73
4
 74
0
 40
0
 40
0
 40
0
 40
0
 40
1
 40
1
 40
1
 40
1
 10
201.531
 20
112.523
 30
0
 10
202.289
 20
114.057
 30
0
 10
203.258
 20
115.489
 30
0
 10
204.448
 20
116.721
 30
0
  0
SPLINE
  5
A50
330
A02
100
AcDbEntity
  8
View
100
AcDbSpline
210
0
220
0
230
1
 70
8
 71
3
 72
8
 73
4
 74
0
 40
0
 40
0
 40
0
 40
0
 40
1
 40
1
 40
1
 40
1
 10
204.448
 20
116.721
 30
0
 10
205.206
 20
117.534
 30
0
 10
205.992
 20
118.386
 30
0
 10
206.365
 20
119.452
 30
0
  0
SPLINE
  5
A51
330
A02
100
AcDbEntity
  8
View
100
AcDbSpline
210
0
220
0
230
1
 70
8
 71
3
 72
8
 73
4
 74
0
 40
0
 40
0
 40
0
 40
0
 40
1
 40
1
 40
1
 40
1
 10
206.365
 20
119.452
 30
0
 10
206.402
 20
120.551
 30
0
 10
206.372
 20
121.651
 30
0
 10
206.385
 20
122.75
 30
0
  0
SPLINE
  5
A52
330
A02
100
AcDbEntity
  8
View
100
AcDbSpline
210
0
220
0
230
1
 70
8
 71
3
 72
8
 73
4
 74
0
 40
0
 40
0
 40
0
 40
0
 40
1
 40
1
 40
1
 40
1
 10
206.385
 20
122.75
 30
0
 10
206.401
 20
132.657
 30
0
 10
206.505
 20
142.563
 30
0
 10
206.501
 20
152.47
 30
0
  0
SPLINE
  5
A53
330
A02
100
AcDbEntity
  8
View
100
AcDbSpline
210
0
220
0
230
1
 70
8
 71
2
 72
6
 73
3
 74
0
 40
0
 40
0
 40
0
 40
1
 40
1
 40
1
 10
206.501
 20
152.47
 30
0
 10
206.494
 20
154.791
 30
0
 10
206.48
 20
157.112
 30
0
  0
SPLINE
  5
A54
330
A02
100
AcDbEntity
  8
View
100
AcDbSpline
210
0
220
0
230
1
 70
8
 71
3
 72
8
 73
4
 74
0
 40
0
 40
0
 40
0
 40
0
 40
1
 40
1
 40
1
 40
1
 10
206.48
 20
157.112
 30
0
 10
199.235
 20
166.737
 30
0
 10
191.584
 20
176.062
 30
0
 10
183.469
 20
184.968
 30
0
  0
SPLINE
  5
A55
330
A02
100
AcDbEntity
  8
View
100
AcDbSpline
210
0
220
0
230
1
 70
8
 71
3
 72
8
 73
4
 74
0
 40
0
 40
0
 40
0
 40
0
 40
1
 40
1
 40
1
 40
1
 10
183.469
 20
184.968
 30
0
 10
179.589
 20
189.219
 30
0
 10
175.575
 20
193.352
 30
0
 10
171.384
 20
197.299
 30
0
  0
SPLINE
  5
A56
330
A02
100
AcDbEntity
  8
View
100
AcDbSpline
210
0
220
0
230
1
 70
8
 71
3
 72
8
 73
4
 74
0
 40
0
 40
0
 40
0
 40
0
 40
1
 40
1
 40
1
 40
1
 10
171.384
 20
197.299
 30
0
 10
161.281
 20
206.879
 30
0
 10
150.497
 20
215.765
 30
0
 10
138.975
 20
223.59
 30
0
  0
SPLINE
  5
A57
330
A02
100
AcDbEntity
  8
View
100
AcDbSpline
210
0
220
0
230
1
 70
8
 71
3
 72
8
 73
4
 74
0
 40
0
 40
0
 40
0
 40
0
 40
1
 40
1
 40
1
 40
1
 10
138.975
 20
223.59
 30
0
 10
136.71
 20
225.134
 30
0
 10
134.402
 20
226.612
 30
0
 10
132.07
 20
228.052
 30
0
  0
SPLINE
  5
A58
330
A02
100
AcDbEntity
  8
View
100
AcDbSpline
210
0
220
0
230
1
 70
8
 71
2
 72
6
 73
3
 74
0
 40
0
 40
0
 40
0
 40
1
 40
1
 40
1
 10
132.07
 20
228.052
 30
0
 10
126.852
 20
231.31
 30
0
 10
121.463
 20
234.276
 30
0
  0
SPLINE
  5
A59
330
A02
100
AcDbEntity
  8
View
100
AcDbSpline
210
0
220
0
230
1
 70
8
 71
3
 72
8
 73
4
 74
0
 40
0
 40
0
 40
0
 40
0
 40
1
 40
1
 40
1
 40
1
 10
121.463
 20
234.276
 30
0
 10
116.24
 20
237.139
 30
0
 10
110.876
 20
239.765
 30
0
 10
105.303
 20
241.878
 30
0
  0
SPLINE
  5
A5A
330
A02
100
AcDbEntity
  8
View
100
AcDbSpline
210
0
220
0
230
1
 70
8
 71
3
 72
8
 73
4
 74
0
 40
0
 40
0
 40
0
 40
0
 40
1
 40
1
 40
1
 40
1
 10
105.303
 20
241.878
 30
0
 10
102.245
 20
243.016
 30
0
 10
99.1322
 20
244.002
 30
0
 10
95.9987
 20
244.91
 30
0
  0
SPLINE
  5
A5B
330
A02
100
AcDbEntity
  8
View
100
AcDbSpline
210
0
220
0
230
1
 70
8
 71
3
 72
8
 73
4
 74
0
 40
0
 40
0
 40
0
 40
0
 40
1
 40
1
 40
1
 40
1
 10
95.9987
 20
244.91
 30
0
 10
91.584
 20
246.177
 30
0
 10
87.0835
 20
247.164
 30
0
 10
82.5243
 20
247.737
 30
0
  0
SPLINE
  5
A5C
330
A02
100
AcDbEntity
  8
View
100
AcDbSpline
210
0
220
0
230
1
 70
8
 71
3
 72
8
 73
4
 74
0
 40
0
 40
0
 40
0
 40
0
 40
1
 40
1
 40
1
 40
1
 10
82.5243
 20
247.737
 30
0
 10
79.5032
 20
248.126
 30
0
 10
76.4709
 20
248.42
 30
0
 10
73.4383
 20
248.703
 30
0
  0
SPLINE
  5
A5D
330
A02
100
AcDbEntity
  8
View
100
AcDbSpline
210
0
220
0
230
1
 70
8
 71
1
 72
4
 73
2
 74
0
 40
0.999997
 40
0.999997
 40
0.999998
 40
0.999998
 10
61.2903
 20
249.359
 30
0
 10
61.2903
 20
249.359
 30
0
  0
SPLINE
  5
A5E
330
A02
100
AcDbEntity
  8
View
100
AcDbSpline
210
0
220
0
230
1
 70
8
 71
3
 72
8
 73
4
 74
0
 40
0
 40
0
 40
0
 40
0
 40
1
 40
1
 40
1
 40
1
 10
73.4383
 20
248.703
 30
0
 10
69.3981
 20
249.065
 30
0
 10
65.3477
 20
249.326
 30
0
 10
61.2903
 20
249.359
 30
0
  0
SPLINE
  5
A5F
330
A02
100
AcDbEntity
  8
View
100
AcDbSpline
210
0
220
0
230
1
 70
8
 71
1
 72
4
 73
2
 74
0
 40
0
 40
0
 40
4e-05
 40
4e-05
 10
61.2903
 20
249.359
 30
0
 10
61.2904
 20
249.359
 30
0
  0
SPLINE
  5
A60
330
A02
100
AcDbEntity
  8
View006
100
AcDbSpline
210
0
220
0
230
1
 70
8
 71
1
 72
4
 73
2
 74
0
 40
0
 40
0
 40
3.88865e-06
 40
3.88865e-06
 10
363.556
 20
249.073
 30
0
 10
363.556
 20
249.073
 30
0
  0
SPLINE
  5
A61
330
A02
100
AcDbEntity
  8
View006
100
AcDbSpline
210
0
220
0
230
1
 70
8
 71
3
 72
8
 73
4
 74
0
 40
0
 40
0
 40
0
 40
0
 40
1
 40
1
 40
1
 40
1
 10
363.556
 20
249.073
 30
0
 10
363.968
 20
249.047
 30
0
 10
364.417
 20
249.043
 30
0
 10
364.777
 20
248.826
 30
0
  0
SPLINE
  5
A62
330
A02
100
AcDbEntity
  8
View006
100
AcDbSpline
210
0
220
0
230
1
 70
8
 71
3
 72
8
 73
4
 74
0
 40
0
 40
0
 40
0
 40
0
 40
1
 40
1
 40
1
 40
1
 10
364.777
 20
248.826
 30
0
 10
365.907
 20
247.713
 30
0
 10
367.114
 20
246.606
 30
0
 10
367.798
 20
245.146
 30
0
  0
SPLINE
  5
A63
330
A02
100
AcDbEntity
  8
View006
100
AcDbSpline
210
0
220
0
230
1
 70
8
 71
3
 72
8
 73
4
 74
0
 40
0
 40
0
 40
0
 40
0
 40
1
 40
1
 40
1
 40
1
 10
367.798
 20
245.146
 30
0
 10
368.928
 20
242.921
 30
0
 10
369.277
 20
240.39
 30
0
 10
369.302
 20
237.92
 30
0
  0
SPLINE
  5
A64
330
A02
100
AcDbEntity
  8
View006
100
AcDbSpline
210
0
220
0
230
1
 70
8
 71
3
 72
8
 73
4
 74
0
 40
0
 40
0
 40
0
 40
0
 40
1
 40
1
 40
1
 40
1
 10
369.302
 20
237.92
 30
0
 10
369.365
 20
235.044
 30
0
 10
368.609
 20
232.229
 30
0
 10
367.718
 20
229.519
 30
0
  0
SPLINE
  5
A65
330
A02
100
AcDbEntity
  8
View006
100
AcDbSpline
210
0
220
0
230
1
 70
8
 71
3
 72
8
 73
4
 74
0
 40
0
 40
0
 40
0
 40
0
 40
1
 40
1
 40
1
 40
1
 10
367.718
 20
229.519
 30
0
 10
366.726
 20
226.563
 30
0
 10
365.539
 20
223.677
 30
0
 10
364.508
 20
220.735
 30
0
  0
SPLINE
  5
A66
330
A02
100
AcDbEntity
  8
View006
100
AcDbSpline
210
0
220
0
230
1
 70
8
 71
3
 72
8
 73
4
 74
0
 40
0
 40
0
 40
0
 40
0
 40
1
 40
1
 40
1
 40
1
 10
364.508
 20
220.735
 30
0
 10
362.729
 20
215.874
 30
0
 10
360.256
 20
211.285
 30
0
 10
357.344
 20
207.012
 30
0
  0
SPLINE
  5
A67
330
A02
100
AcDbEntity
  8
View006
100
AcDbSpline
210
0
220
0
230
1
 70
8
 71
3
 72
8
 73
4
 74
0
 40
0
 40
0
 40
0
 40
0
 40
1
 40
1
 40
1
 40
1
 10
357.344
 20
207.012
 30
0
 10
355.625
 20
204.482
 30
0
 10
353.811
 20
202.014
 30
0
 10
351.888
 20
199.635
 30
0
  0
SPLINE
  5
A68
330
A02
100
AcDbEntity
  8
View006
100
AcDbSpline
210
0
220
0
230
1
 70
8
 71
3
 72
8
 73
4
 74
0
 40
0
 40
0
 40
0
 40
0
 40
1
 40
1
 40
1
 40
1
 10
351.888
 20
199.635
 30
0
 10
350.471
 20
197.882
 30
0
 10
348.984
 20
196.188
 30
0
 10
347.489
 20
194.501
 30
0
  0
SPLINE
  5
A69
330
A02
100
AcDbEntity
  8
View006
100
AcDbSpline
210
0
220
0
230
1
 70
8
 71
3
 72
8
 73
4
 74
0
 40
0
 40
0
 40
0
 40
0
 40
1
 40
1
 40
1
 40
1
 10
347.489
 20
194.501
 30
0
 10
347.316
 20
194.295
 30
0
 10
347.135
 20
194.088
 30
0
 10
346.983
 20
193.901
 30
0
  0
SPLINE
  5
A6A
330
A02
100
AcDbEntity
  8
View006
100
AcDbSpline
210
0
220
0
230
1
 70
8
 71
3
 72
8
 73
4
 74
0
 40
0
 40
0
 40
0
 40
0
 40
1
 40
1
 40
1
 40
1
 10
346.983
 20
193.901
 30
0
 10
346.823
 20
193.707
 30
0
 10
346.699
 20
193.549
 30
0
 10
346.542
 20
193.34
 30
0
  0
SPLINE
  5
A6B
330
A02
100
AcDbEntity
  8
View006
100
AcDbSpline
210
0
220
0
230
1
 70
8
 71
3
 72
8
 73
4
 74
0
 40
0
 40
0
 40
0
 40
0
 40
1
 40
1
 40
1
 40
1
 10
346.542
 20
193.34
 30
0
 10
346.047
 20
192.676
 30
0
 10
345.632
 20
191.917
 30
0
 10
345.567
 20
191.077
 30
0
  0
SPLINE
  5
A6C
330
A02
100
AcDbEntity
  8
View006
100
AcDbSpline
210
0
220
0
230
1
 70
8
 71
3
 72
8
 73
4
 74
0
 40
0
 40
0
 40
0
 40
0
 40
1
 40
1
 40
1
 40
1
 10
345.567
 20
191.077
 30
0
 10
345.537
 20
190.847
 30
0
 10
345.525
 20
190.591
 30
0
 10
345.515
 20
190.412
 30
0
  0
SPLINE
  5
A6D
330
A02
100
AcDbEntity
  8
View006
100
AcDbSpline
210
0
220
0
230
1
 70
8
 71
3
 72
8
 73
4
 74
0
 40
0
 40
0
 40
0
 40
0
 40
1
 40
1
 40
1
 40
1
 10
345.515
 20
190.412
 30
0
 10
345.467
 20
189.101
 30
0
 10
345.46
 20
187.782
 30
0
 10
345.348
 20
186.471
 30
0
  0
SPLINE
  5
A6E
330
A02
100
AcDbEntity
  8
View006
100
AcDbSpline
210
0
220
0
230
1
 70
8
 71
3
 72
8
 73
4
 74
0
 40
0
 40
0
 40
0
 40
0
 40
1
 40
1
 40
1
 40
1
 10
345.348
 20
186.471
 30
0
 10
343.934
 20
183.252
 30
0
 10
342.573
 20
180.006
 30
0
 10
341.01
 20
176.855
 30
0
  0
SPLINE
  5
A6F
330
A02
100
AcDbEntity
  8
View006
100
AcDbSpline
210
0
220
0
230
1
 70
8
 71
3
 72
8
 73
4
 74
0
 40
0
 40
0
 40
0
 40
0
 40
1
 40
1
 40
1
 40
1
 10
341.01
 20
176.855
 30
0
 10
340.888
 20
176.592
 30
0
 10
340.785
 20
176.359
 30
0
 10
340.668
 20
176.079
 30
0
  0
SPLINE
  5
A70
330
A02
100
AcDbEntity
  8
View006
100
AcDbSpline
210
0
220
0
230
1
 70
8
 71
3
 72
8
 73
4
 74
0
 40
0
 40
0
 40
0
 40
0
 40
1
 40
1
 40
1
 40
1
 10
340.668
 20
176.079
 30
0
 10
340.413
 20
175.47
 30
0
 10
340.18
 20
174.836
 30
0
 10
339.98
 20
174.23
 30
0
  0
SPLINE
  5
A71
330
A02
100
AcDbEntity
  8
View006
100
AcDbSpline
210
0
220
0
230
1
 70
8
 71
3
 72
8
 73
4
 74
0
 40
0
 40
0
 40
0
 40
0
 40
1
 40
1
 40
1
 40
1
 10
339.98
 20
174.23
 30
0
 10
339.568
 20
172.998
 30
0
 10
339.244
 20
171.772
 30
0
 10
338.944
 20
170.508
 30
0
  0
SPLINE
  5
A72
330
A02
100
AcDbEntity
  8
View006
100
AcDbSpline
210
0
220
0
230
1
 70
8
 71
2
 72
6
 73
3
 74
0
 40
0
 40
0
 40
0
 40
1
 40
1
 40
1
 10
338.944
 20
170.508
 30
0
 10
338.808
 20
169.961
 30
0
 10
338.697
 20
169.375
 30
0
  0
SPLINE
  5
A73
330
A02
100
AcDbEntity
  8
View006
100
AcDbSpline
210
0
220
0
230
1
 70
8
 71
2
 72
6
 73
3
 74
0
 40
0
 40
0
 40
0
 40
1
 40
1
 40
1
 10
338.697
 20
169.375
 30
0
 10
338.618
 20
168.957
 30
0
 10
338.561
 20
168.574
 30
0
  0
SPLINE
  5
A74
330
A02
100
AcDbEntity
  8
View006
100
AcDbSpline
210
0
220
0
230
1
 70
8
 71
3
 72
8
 73
4
 74
0
 40
0
 40
0
 40
0
 40
0
 40
1
 40
1
 40
1
 40
1
 10
338.561
 20
168.574
 30
0
 10
338.452
 20
167.871
 30
0
 10
338.374
 20
167.195
 30
0
 10
338.292
 20
166.482
 30
0
  0
SPLINE
  5
A75
330
A02
100
AcDbEntity
  8
View006
100
AcDbSpline
210
0
220
0
230
1
 70
8
 71
3
 72
8
 73
4
 74
0
 40
0
 40
0
 40
0
 40
0
 40
1
 40
1
 40
1
 40
1
 10
338.292
 20
166.482
 30
0
 10
338.106
 20
164.779
 30
0
 10
337.735
 20
163.104
 30
0
 10
337.381
 20
161.43
 30
0
  0
SPLINE
  5
A76
330
A02
100
AcDbEntity
  8
View006
100
AcDbSpline
210
0
220
0
230
1
 70
8
 71
3
 72
8
 73
4
 74
0
 40
0
 40
0
 40
0
 40
0
 40
1
 40
1
 40
1
 40
1
 10
337.381
 20
161.43
 30
0
 10
337.135
 20
160.357
 30
0
 10
336.712
 20
159.315
 30
0
 10
336.047
 20
158.432
 30
0
  0
SPLINE
  5
A77
330
A02
100
AcDbEntity
  8
View006
100
AcDbSpline
210
0
220
0
230
1
 70
8
 71
3
 72
8
 73
4
 74
0
 40
0
 40
0
 40
0
 40
0
 40
1
 40
1
 40
1
 40
1
 10
336.047
 20
158.432
 30
0
 10
335.288
 20
157.391
 30
0
 10
334.306
 20
156.542
 30
0
 10
333.293
 20
155.758
 30
0
  0
SPLINE
  5
A78
330
A02
100
AcDbEntity
  8
View006
100
AcDbSpline
210
0
220
0
230
1
 70
8
 71
3
 72
8
 73
4
 74
0
 40
0
 40
0
 40
0
 40
0
 40
1
 40
1
 40
1
 40
1
 10
333.293
 20
155.758
 30
0
 10
333.349
 20
153.448
 30
0
 10
333.157
 20
151.139
 30
0
 10
332.859
 20
148.85
 30
0
  0
SPLINE
  5
A79
330
A02
100
AcDbEntity
  8
View006
100
AcDbSpline
210
0
220
0
230
1
 70
8
 71
3
 72
8
 73
4
 74
0
 40
0
 40
0
 40
0
 40
0
 40
1
 40
1
 40
1
 40
1
 10
332.859
 20
148.85
 30
0
 10
332.613
 20
147.171
 30
0
 10
332.271
 20
145.494
 30
0
 10
331.678
 20
143.901
 30
0
  0
SPLINE
  5
A7A
330
A02
100
AcDbEntity
  8
View006
100
AcDbSpline
210
0
220
0
230
1
 70
8
 71
3
 72
8
 73
4
 74
0
 40
0
 40
0
 40
0
 40
0
 40
1
 40
1
 40
1
 40
1
 10
331.678
 20
143.901
 30
0
 10
331.248
 20
142.778
 30
0
 10
330.609
 20
141.744
 30
0
 10
329.833
 20
140.828
 30
0
  0
SPLINE
  5
A7B
330
A02
100
AcDbEntity
  8
View006
100
AcDbSpline
210
0
220
0
230
1
 70
8
 71
2
 72
6
 73
3
 74
0
 40
0
 40
0
 40
0
 40
1
 40
1
 40
1
 10
329.833
 20
140.828
 30
0
 10
328.71
 20
139.463
 30
0
 10
327.504
 20
138.171
 30
0
  0
SPLINE
  5
A7C
330
A02
100
AcDbEntity
  8
View006
100
AcDbSpline
210
0
220
0
230
1
 70
8
 71
3
 72
8
 73
4
 74
0
 40
0
 40
0
 40
0
 40
0
 40
1
 40
1
 40
1
 40
1
 10
327.504
 20
138.171
 30
0
 10
326.184
 20
136.829
 30
0
 10
324.706
 20
135.655
 30
0
 10
323.182
 20
134.555
 30
0
  0
SPLINE
  5
A7D
330
A02
100
AcDbEntity
  8
View006
100
AcDbSpline
210
0
220
0
230
1
 70
8
 71
3
 72
8
 73
4
 74
0
 40
0
 40
0
 40
0
 40
0
 40
1
 40
1
 40
1
 40
1
 10
323.182
 20
134.555
 30
0
 10
323.855
 20
133.58
 30
0
 10
324.527
 20
132.598
 30
0
 10
325.098
 20
131.558
 30
0
  0
SPLINE
  5
A7E
330
A02
100
AcDbEntity
  8
View006
100
AcDbSpline
210
0
220
0
230
1
 70
8
 71
3
 72
8
 73
4
 74
0
 40
0
 40
0
 40
0
 40
0
 40
1
 40
1
 40
1
 40
1
 10
325.098
 20
131.558
 30
0
 10
325.919
 20
129.981
 30
0
 10
326.334
 20
128.223
 30
0
 10
326.503
 20
126.461
 30
0
  0
SPLINE
  5
A7F
330
A02
100
AcDbEntity
  8
View006
100
AcDbSpline
210
0
220
0
230
1
 70
8
 71
3
 72
8
 73
4
 74
0
 40
0
 40
0
 40
0
 40
0
 40
1
 40
1
 40
1
 40
1
 10
326.503
 20
126.461
 30
0
 10
326.841
 20
123.753
 30
0
 10
326.97
 20
121.025
 30
0
 10
327.142
 20
118.303
 30
0
  0
SPLINE
  5
A80
330
A02
100
AcDbEntity
  8
View006
100
AcDbSpline
210
0
220
0
230
1
 70
8
 71
3
 72
8
 73
4
 74
0
 40
0
 40
0
 40
0
 40
0
 40
1
 40
1
 40
1
 40
1
 10
327.142
 20
118.303
 30
0
 10
327.265
 20
116.667
 30
0
 10
327.375
 20
115.041
 30
0
 10
327.599
 20
113.402
 30
0
  0
SPLINE
  5
A81
330
A02
100
AcDbEntity
  8
View006
100
AcDbSpline
210
0
220
0
230
1
 70
8
 71
3
 72
8
 73
4
 74
0
 40
0
 40
0
 40
0
 40
0
 40
1
 40
1
 40
1
 40
1
 10
327.599
 20
113.402
 30
0
 10
327.723
 20
112.628
 30
0
 10
327.787
 20
111.822
 30
0
 10
328.162
 20
111.118
 30
0
  0
SPLINE
  5
A82
330
A02
100
AcDbEntity
  8
View006
100
AcDbSpline
210
0
220
0
230
1
 70
8
 71
3
 72
8
 73
4
 74
0
 40
0
 40
0
 40
0
 40
0
 40
1
 40
1
 40
1
 40
1
 10
328.162
 20
111.118
 30
0
 10
328.504
 20
110.385
 30
0
 10
328.853
 20
109.579
 30
0
 10
328.684
 20
108.753
 30
0
  0
SPLINE
  5
A83
330
A02
100
AcDbEntity
  8
View006
100
AcDbSpline
210
0
220
0
230
1
 70
8
 71
3
 72
8
 73
4
 74
0
 40
0
 40
0
 40
0
 40
0
 40
1
 40
1
 40
1
 40
1
 10
328.684
 20
108.753
 30
0
 10
328.586
 20
108.283
 30
0
 10
328.189
 20
107.954
 30
0
 10
328.073
 20
107.49
 30
0
  0
SPLINE
  5
A84
330
A02
100
AcDbEntity
  8
View006
100
AcDbSpline
210
0
220
0
230
1
 70
8
 71
3
 72
8
 73
4
 74
0
 40
0
 40
0
 40
0
 40
0
 40
1
 40
1
 40
1
 40
1
 10
328.073
 20
107.49
 30
0
 10
327.732
 20
106.494
 30
0
 10
327.597
 20
105.444
 30
0
 10
327.396
 20
104.415
 30
0
  0
SPLINE
  5
A85
330
A02
100
AcDbEntity
  8
View006
100
AcDbSpline
210
0
220
0
230
1
 70
8
 71
3
 72
8
 73
4
 74
0
 40
0
 40
0
 40
0
 40
0
 40
1
 40
1
 40
1
 40
1
 10
327.396
 20
104.415
 30
0
 10
327.22
 20
103.369
 30
0
 10
327.094
 20
102.247
 30
0
 10
326.84
 20
101.185
 30
0
  0
SPLINE
  5
A86
330
A02
100
AcDbEntity
  8
View006
100
AcDbSpline
210
0
220
0
230
1
 70
8
 71
3
 72
8
 73
4
 74
0
 40
0
 40
0
 40
0
 40
0
 40
1
 40
1
 40
1
 40
1
 10
326.84
 20
101.185
 30
0
 10
326.54
 20
100.045
 30
0
 10
326.098
 20
98.9202
 30
0
 10
325.395
 20
97.9653
 30
0
  0
SPLINE
  5
A87
330
A02
100
AcDbEntity
  8
View006
100
AcDbSpline
210
0
220
0
230
1
 70
8
 71
2
 72
6
 73
3
 74
0
 40
0
 40
0
 40
0
 40
1
 40
1
 40
1
 10
325.395
 20
97.9653
 30
0
 10
325.187
 20
97.709
 30
0
 10
324.954
 20
97.4751
 30
0
  0
SPLINE
  5
A88
330
A02
100
AcDbEntity
  8
View006
100
AcDbSpline
210
0
220
0
230
1
 70
8
 71
3
 72
8
 73
4
 74
0
 40
0
 40
0
 40
0
 40
0
 40
1
 40
1
 40
1
 40
1
 10
324.954
 20
97.4751
 30
0
 10
325.712
 20
95.5215
 30
0
 10
326.195
 20
93.4186
 30
0
 10
326.049
 20
91.3137
 30
0
  0
SPLINE
  5
A89
330
A02
100
AcDbEntity
  8
View006
100
AcDbSpline
210
0
220
0
230
1
 70
8
 71
3
 72
8
 73
4
 74
0
 40
0
 40
0
 40
0
 40
0
 40
1
 40
1
 40
1
 40
1
 10
326.049
 20
91.3137
 30
0
 10
325.948
 20
90.3762
 30
0
 10
325.63
 20
89.4799
 30
0
 10
325.328
 20
88.5923
 30
0
  0
SPLINE
  5
A8A
330
A02
100
AcDbEntity
  8
View006
100
AcDbSpline
210
0
220
0
230
1
 70
8
 71
3
 72
8
 73
4
 74
0
 40
0
 40
0
 40
0
 40
0
 40
1
 40
1
 40
1
 40
1
 10
325.328
 20
88.5923
 30
0
 10
324.595
 20
86.5715
 30
0
 10
323.441
 20
84.6727
 30
0
 10
321.814
 20
83.2489
 30
0
  0
SPLINE
  5
A8B
330
A02
100
AcDbEntity
  8
View006
100
AcDbSpline
210
0
220
0
230
1
 70
8
 71
2
 72
6
 73
3
 74
0
 40
0
 40
0
 40
0
 40
1
 40
1
 40
1
 10
321.814
 20
83.2489
 30
0
 10
320.958
 20
82.4884
 30
0
 10
319.987
 20
81.8817
 30
0
  0
SPLINE
  5
A8C
330
A02
100
AcDbEntity
  8
View006
100
AcDbSpline
210
0
220
0
230
1
 70
8
 71
3
 72
8
 73
4
 74
0
 40
0
 40
0
 40
0
 40
0
 40
1
 40
1
 40
1
 40
1
 10
319.987
 20
81.8817
 30
0
 10
319.56
 20
79.625
 30
0
 10
318.906
 20
77.3567
 30
0
 10
317.602
 20
75.4384
 30
0
  0
SPLINE
  5
A8D
330
A02
100
AcDbEntity
  8
View006
100
AcDbSpline
210
0
220
0
230
1
 70
8
 71
3
 72
8
 73
4
 74
0
 40
0
 40
0
 40
0
 40
0
 40
1
 40
1
 40
1
 40
1
 10
317.602
 20
75.4384
 30
0
 10
316.387
 20
73.5775
 30
0
 10
314.991
 20
71.7695
 30
0
 10
313.125
 20
70.5193
 30
0
  0
SPLINE
  5
A8E
330
A02
100
AcDbEntity
  8
View006
100
AcDbSpline
210
0
220
0
230
1
 70
8
 71
3
 72
8
 73
4
 74
0
 40
0
 40
0
 40
0
 40
0
 40
1
 40
1
 40
1
 40
1
 10
313.125
 20
70.5193
 30
0
 10
312.114
 20
69.8231
 30
0
 10
310.976
 20
69.3496
 30
0
 10
309.845
 20
68.8898
 30
0
  0
SPLINE
  5
A8F
330
A02
100
AcDbEntity
  8
View006
100
AcDbSpline
210
0
220
0
230
1
 70
8
 71
3
 72
8
 73
4
 74
0
 40
0
 40
0
 40
0
 40
0
 40
1
 40
1
 40
1
 40
1
 10
309.845
 20
68.8898
 30
0
 10
308.734
 20
68.3654
 30
0
 10
307.639
 20
67.7795
 30
0
 10
306.677
 20
67.0093
 30
0
  0
SPLINE
  5
A90
330
A02
100
AcDbEntity
  8
View006
100
AcDbSpline
210
0
220
0
230
1
 70
8
 71
3
 72
8
 73
4
 74
0
 40
0
 40
0
 40
0
 40
0
 40
1
 40
1
 40
1
 40
1
 10
306.677
 20
67.0093
 30
0
 10
305.644
 20
66.1163
 30
0
 10
304.814
 20
64.9496
 30
0
 10
303.732
 20
64.1479
 30
0
  0
SPLINE
  5
A91
330
A02
100
AcDbEntity
  8
View006
100
AcDbSpline
210
0
220
0
230
1
 70
8
 71
3
 72
8
 73
4
 74
0
 40
0
 40
0
 40
0
 40
0
 40
1
 40
1
 40
1
 40
1
 10
303.732
 20
64.1479
 30
0
 10
302.669
 20
63.2603
 30
0
 10
301.269
 20
62.9531
 30
0
 10
299.927
 20
62.79
 30
0
  0
SPLINE
  5
A92
330
A02
100
AcDbEntity
  8
View006
100
AcDbSpline
210
0
220
0
230
1
 70
8
 71
3
 72
8
 73
4
 74
0
 40
0
 40
0
 40
0
 40
0
 40
1
 40
1
 40
1
 40
1
 10
299.927
 20
62.79
 30
0
 10
299.041
 20
62.6662
 30
0
 10
298.105
 20
62.5904
 30
0
 10
297.323
 20
62.1163
 30
0
  0
SPLINE
  5
A93
330
A02
100
AcDbEntity
  8
View006
100
AcDbSpline
210
0
220
0
230
1
 70
8
 71
3
 72
8
 73
4
 74
0
 40
0
 40
0
 40
0
 40
0
 40
1
 40
1
 40
1
 40
1
 10
297.323
 20
62.1163
 30
0
 10
296.44
 20
61.4102
 30
0
 10
295.715
 20
60.5145
 30
0
 10
294.76
 20
59.8952
 30
0
  0
SPLINE
  5
A94
330
A02
100
AcDbEntity
  8
View006
100
AcDbSpline
210
0
220
0
230
1
 70
8
 71
3
 72
8
 73
4
 74
0
 40
0
 40
0
 40
0
 40
0
 40
1
 40
1
 40
1
 40
1
 10
294.76
 20
59.8952
 30
0
 10
293.809
 20
59.2267
 30
0
 10
292.651
 20
58.8958
 30
0
 10
291.494
 20
58.8745
 30
0
  0
SPLINE
  5
A95
330
A02
100
AcDbEntity
  8
View006
100
AcDbSpline
210
0
220
0
230
1
 70
8
 71
3
 72
8
 73
4
 74
0
 40
0
 40
0
 40
0
 40
0
 40
1
 40
1
 40
1
 40
1
 10
291.494
 20
58.8745
 30
0
 10
290.516
 20
58.821
 30
0
 10
289.509
 20
59.0593
 30
0
 10
288.557
 20
58.7381
 30
0
  0
SPLINE
  5
A96
330
A02
100
AcDbEntity
  8
View006
100
AcDbSpline
210
0
220
0
230
1
 70
8
 71
3
 72
8
 73
4
 74
0
 40
0
 40
0
 40
0
 40
0
 40
1
 40
1
 40
1
 40
1
 10
288.557
 20
58.7381
 30
0
 10
286.073
 20
57.7434
 30
0
 10
283.714
 20
56.468
 30
0
 10
281.293
 20
55.332
 30
0
  0
SPLINE
  5
A97
330
A02
100
AcDbEntity
  8
View006
100
AcDbSpline
210
0
220
0
230
1
 70
8
 71
3
 72
8
 73
4
 74
0
 40
0
 40
0
 40
0
 40
0
 40
1
 40
1
 40
1
 40
1
 10
281.293
 20
55.332
 30
0
 10
280.345
 20
54.8699
 30
0
 10
279.365
 20
54.4482
 30
0
 10
278.321
 20
54.2581
 30
0
  0
SPLINE
  5
A98
330
A02
100
AcDbEntity
  8
View006
100
AcDbSpline
210
0
220
0
230
1
 70
8
 71
3
 72
8
 73
4
 74
0
 40
0
 40
0
 40
0
 40
0
 40
1
 40
1
 40
1
 40
1
 10
278.321
 20
54.2581
 30
0
 10
277.454
 20
54.088
 30
0
 10
276.542
 20
54.1452
 30
0
 10
275.714
 20
54.461
 30
0
  0
SPLINE
  5
A99
330
A02
100
AcDbEntity
  8
View006
100
AcDbSpline
210
0
220
0
230
1
 70
8
 71
3
 72
8
 73
4
 74
0
 40
0
 40
0
 40
0
 40
0
 40
1
 40
1
 40
1
 40
1
 10
275.714
 20
54.461
 30
0
 10
275.009
 20
54.7035
 30
0
 10
274.309
 20
55.0016
 30
0
 10
273.555
 20
55.0466
 30
0
  0
SPLINE
  5
A9A
330
A02
100
AcDbEntity
  8
View006
100
AcDbSpline
210
0
220
0
230
1
 70
8
 71
3
 72
8
 73
4
 74
0
 40
0
 40
0
 40
0
 40
0
 40
1
 40
1
 40
1
 40
1
 10
273.555
 20
55.0466
 30
0
 10
272.399
 20
55.159
 30
0
 10
271.237
 20
55.031
 30
0
 10
270.085
 20
54.9217
 30
0
  0
SPLINE
  5
A9B
330
A02
100
AcDbEntity
  8
View006
100
AcDbSpline
210
0
220
0
230
1
 70
8
 71
3
 72
8
 73
4
 74
0
 40
0
 40
0
 40
0
 40
0
 40
1
 40
1
 40
1
 40
1
 10
270.085
 20
54.9217
 30
0
 10
268.505
 20
54.7204
 30
0
 10
266.99
 20
54.2464
 30
0
 10
265.405
 20
54.0424
 30
0
  0
SPLINE
  5
A9C
330
A02
100
AcDbEntity
  8
View006
100
AcDbSpline
210
0
220
0
230
1
 70
8
 71
3
 72
8
 73
4
 74
0
 40
0
 40
0
 40
0
 40
0
 40
1
 40
1
 40
1
 40
1
 10
265.405
 20
54.0424
 30
0
 10
263.715
 20
53.8441
 30
0
 10
261.935
 20
53.8182
 30
0
 10
260.336
 20
54.4821
 30
0
  0
SPLINE
  5
A9D
330
A02
100
AcDbEntity
  8
View006
100
AcDbSpline
210
0
220
0
230
1
 70
8
 71
3
 72
8
 73
4
 74
0
 40
0
 40
0
 40
0
 40
0
 40
1
 40
1
 40
1
 40
1
 10
260.336
 20
54.4821
 30
0
 10
258.968
 20
55.0419
 30
0
 10
257.849
 20
56.0316
 30
0
 10
256.722
 20
56.9601
 30
0
  0
SPLINE
  5
A9E
330
A02
100
AcDbEntity
  8
View006
100
AcDbSpline
210
0
220
0
230
1
 70
8
 71
3
 72
8
 73
4
 74
0
 40
0
 40
0
 40
0
 40
0
 40
1
 40
1
 40
1
 40
1
 10
256.722
 20
56.9601
 30
0
 10
255.922
 20
57.6215
 30
0
 10
255.027
 20
58.2906
 30
0
 10
253.957
 20
58.3798
 30
0
  0
SPLINE
  5
A9F
330
A02
100
AcDbEntity
  8
View006
100
AcDbSpline
210
0
220
0
230
1
 70
8
 71
3
 72
8
 73
4
 74
0
 40
0
 40
0
 40
0
 40
0
 40
1
 40
1
 40
1
 40
1
 10
253.957
 20
58.3798
 30
0
 10
252.894
 20
58.4911
 30
0
 10
251.761
 20
58.5384
 30
0
 10
250.763
 20
59.0058
 30
0
  0
SPLINE
  5
AA0
330
A02
100
AcDbEntity
  8
View006
100
AcDbSpline
210
0
220
0
230
1
 70
8
 71
3
 72
8
 73
4
 74
0
 40
0
 40
0
 40
0
 40
0
 40
1
 40
1
 40
1
 40
1
 10
250.763
 20
59.0058
 30
0
 10
248.862
 20
59.8089
 30
0
 10
247.351
 20
61.3035
 30
0
 10
246.12
 20
62.9246
 30
0
  0
SPLINE
  5
AA1
330
A02
100
AcDbEntity
  8
View006
100
AcDbSpline
210
0
220
0
230
1
 70
8
 71
3
 72
8
 73
4
 74
0
 40
0
 40
0
 40
0
 40
0
 40
1
 40
1
 40
1
 40
1
 10
246.12
 20
62.9246
 30
0
 10
244.092
 20
65.5744
 30
0
 10
242.473
 20
68.5016
 30
0
 10
240.815
 20
71.3892
 30
0
  0
SPLINE
  5
AA2
330
A02
100
AcDbEntity
  8
View006
100
AcDbSpline
210
0
220
0
230
1
 70
8
 71
3
 72
8
 73
4
 74
0
 40
0
 40
0
 40
0
 40
0
 40
1
 40
1
 40
1
 40
1
 10
240.815
 20
71.3892
 30
0
 10
238.535
 20
75.4382
 30
0
 10
236.375
 20
79.5574
 30
0
 10
234.435
 20
83.7805
 30
0
  0
SPLINE
  5
AA3
330
A02
100
AcDbEntity
  8
View006
100
AcDbSpline
210
0
220
0
230
1
 70
8
 71
3
 72
8
 73
4
 74
0
 40
0
 40
0
 40
0
 40
0
 40
1
 40
1
 40
1
 40
1
 10
234.435
 20
83.7805
 30
0
 10
232.615
 20
87.9119
 30
0
 10
231.015
 20
92.1346
 30
0
 10
229.392
 20
96.3454
 30
0
  0
SPLINE
  5
AA4
330
A02
100
AcDbEntity
  8
View006
100
AcDbSpline
210
0
220
0
230
1
 70
8
 71
3
 72
8
 73
4
 74
0
 40
0
 40
0
 40
0
 40
0
 40
1
 40
1
 40
1
 40
1
 10
229.392
 20
96.3454
 30
0
 10
227.683
 20
100.817
 30
0
 10
226.039
 20
105.312
 30
0
 10
224.381
 20
109.802
 30
0
  0
SPLINE
  5
AA5
330
A02
100
AcDbEntity
  8
View006
100
AcDbSpline
210
0
220
0
230
1
 70
8
 71
2
 72
6
 73
3
 74
0
 40
0
 40
0
 40
0
 40
1
 40
1
 40
1
 10
224.381
 20
109.802
 30
0
 10
224.018
 20
110.749
 30
0
 10
223.591
 20
111.668
 30
0
  0
SPLINE
  5
AA6
330
A02
100
AcDbEntity
  8
View006
100
AcDbSpline
210
0
220
0
230
1
 70
8
 71
3
 72
8
 73
4
 74
0
 40
0
 40
0
 40
0
 40
0
 40
1
 40
1
 40
1
 40
1
 10
223.591
 20
111.668
 30
0
 10
223.517
 20
111.822
 30
0
 10
223.408
 20
112.054
 30
0
 10
223.315
 20
112.236
 30
0
  0
SPLINE
  5
AA7
330
A02
100
AcDbEntity
  8
View006
100
AcDbSpline
210
0
220
0
230
1
 70
8
 71
3
 72
8
 73
4
 74
0
 40
0
 40
0
 40
0
 40
0
 40
1
 40
1
 40
1
 40
1
 10
223.315
 20
112.236
 30
0
 10
222.557
 20
113.77
 30
0
 10
221.588
 20
115.202
 30
0
 10
220.398
 20
116.434
 30
0
  0
SPLINE
  5
AA8
330
A02
100
AcDbEntity
  8
View006
100
AcDbSpline
210
0
220
0
230
1
 70
8
 71
3
 72
8
 73
4
 74
0
 40
0
 40
0
 40
0
 40
0
 40
1
 40
1
 40
1
 40
1
 10
220.398
 20
116.434
 30
0
 10
219.64
 20
117.247
 30
0
 10
218.854
 20
118.099
 30
0
 10
218.482
 20
119.165
 30
0
  0
SPLINE
  5
AA9
330
A02
100
AcDbEntity
  8
View006
100
AcDbSpline
210
0
220
0
230
1
 70
8
 71
3
 72
8
 73
4
 74
0
 40
0
 40
0
 40
0
 40
0
 40
1
 40
1
 40
1
 40
1
 10
218.482
 20
119.165
 30
0
 10
218.445
 20
120.264
 30
0
 10
218.475
 20
121.364
 30
0
 10
218.461
 20
122.463
 30
0
  0
SPLINE
  5
AAA
330
A02
100
AcDbEntity
  8
View006
100
AcDbSpline
210
0
220
0
230
1
 70
8
 71
3
 72
8
 73
4
 74
0
 40
0
 40
0
 40
0
 40
0
 40
1
 40
1
 40
1
 40
1
 10
218.461
 20
122.463
 30
0
 10
218.445
 20
132.37
 30
0
 10
218.342
 20
142.276
 30
0
 10
218.345
 20
152.183
 30
0
  0
SPLINE
  5
AAB
330
A02
100
AcDbEntity
  8
View006
100
AcDbSpline
210
0
220
0
230
1
 70
8
 71
2
 72
6
 73
3
 74
0
 40
0
 40
0
 40
0
 40
1
 40
1
 40
1
 10
218.345
 20
152.183
 30
0
 10
218.353
 20
154.504
 30
0
 10
218.366
 20
156.825
 30
0
  0
SPLINE
  5
AAC
330
A02
100
AcDbEntity
  8
View006
100
AcDbSpline
210
0
220
0
230
1
 70
8
 71
3
 72
8
 73
4
 74
0
 40
0
 40
0
 40
0
 40
0
 40
1
 40
1
 40
1
 40
1
 10
218.366
 20
156.825
 30
0
 10
225.612
 20
166.45
 30
0
 10
233.262
 20
175.775
 30
0
 10
241.377
 20
184.681
 30
0
  0
SPLINE
  5
AAD
330
A02
100
AcDbEntity
  8
View006
100
AcDbSpline
210
0
220
0
230
1
 70
8
 71
3
 72
8
 73
4
 74
0
 40
0
 40
0
 40
0
 40
0
 40
1
 40
1
 40
1
 40
1
 10
241.377
 20
184.681
 30
0
 10
245.257
 20
188.932
 30
0
 10
249.272
 20
193.065
 30
0
 10
253.463
 20
197.012
 30
0
  0
SPLINE
  5
AAE
330
A02
100
AcDbEntity
  8
View006
100
AcDbSpline
210
0
220
0
230
1
 70
8
 71
3
 72
8
 73
4
 74
0
 40
0
 40
0
 40
0
 40
0
 40
1
 40
1
 40
1
 40
1
 10
253.463
 20
197.012
 30
0
 10
263.565
 20
206.592
 30
0
 10
274.349
 20
215.478
 30
0
 10
285.871
 20
223.304
 30
0
  0
SPLINE
  5
AAF
330
A02
100
AcDbEntity
  8
View006
100
AcDbSpline
210
0
220
0
230
1
 70
8
 71
3
 72
8
 73
4
 74
0
 40
0
 40
0
 40
0
 40
0
 40
1
 40
1
 40
1
 40
1
 10
285.871
 20
223.304
 30
0
 10
288.136
 20
224.847
 30
0
 10
290.445
 20
226.325
 30
0
 10
292.776
 20
227.765
 30
0
  0
SPLINE
  5
AB0
330
A02
100
AcDbEntity
  8
View006
100
AcDbSpline
210
0
220
0
230
1
 70
8
 71
2
 72
6
 73
3
 74
0
 40
0
 40
0
 40
0
 40
1
 40
1
 40
1
 10
292.776
 20
227.765
 30
0
 10
297.994
 20
231.023
 30
0
 10
303.383
 20
233.989
 30
0
  0
SPLINE
  5
AB1
330
A02
100
AcDbEntity
  8
View006
100
AcDbSpline
210
0
220
0
230
1
 70
8
 71
3
 72
8
 73
4
 74
0
 40
0
 40
0
 40
0
 40
0
 40
1
 40
1
 40
1
 40
1
 10
303.383
 20
233.989
 30
0
 10
308.606
 20
236.852
 30
0
 10
313.971
 20
239.478
 30
0
 10
319.543
 20
241.591
 30
0
  0
SPLINE
  5
AB2
330
A02
100
AcDbEntity
  8
View006
100
AcDbSpline
210
0
220
0
230
1
 70
8
 71
3
 72
8
 73
4
 74
0
 40
0
 40
0
 40
0
 40
0
 40
1
 40
1
 40
1
 40
1
 10
319.543
 20
241.591
 30
0
 10
322.601
 20
242.729
 30
0
 10
325.714
 20
243.715
 30
0
 10
328.848
 20
244.623
 30
0
  0
SPLINE
  5
AB3
330
A02
100
AcDbEntity
  8
View006
100
AcDbSpline
210
0
220
0
230
1
 70
8
 71
3
 72
8
 73
4
 74
0
 40
0
 40
0
 40
0
 40
0
 40
1
 40
1
 40
1
 40
1
 10
328.848
 20
244.623
 30
0
 10
333.262
 20
245.89
 30
0
 10
337.763
 20
246.877
 30
0
 10
342.322
 20
247.45
 30
0
  0
SPLINE
  5
AB4
330
A02
100
AcDbEntity
  8
View006
100
AcDbSpline
210
0
220
0
230
1
 70
8
 71
3
 72
8
 73
4
 74
0
 40
0
 40
0
 40
0
 40
0
 40
1
 40
1
 40
1
 40
1
 10
342.322
 20
247.45
 30
0
 10
345.343
 20
247.839
 30
0
 10
348.376
 20
248.133
 30
0
 10
351.408
 20
248.416
 30
0
  0
SPLINE
  5
AB5
330
A02
100
AcDbEntity
  8
View006
100
AcDbSpline
210
0
220
0
230
1
 70
8
 71
1
 72
4
 73
2
 74
0
 40
0.999997
 40
0.999997
 40
0.999998
 40
0.999998
 10
363.556
 20
249.073
 30
0
 10
363.556
 20
249.073
 30
0
  0
SPLINE
  5
AB6
330
A02
100
AcDbEntity
  8
View006
100
AcDbSpline
210
0
220
0
230
1
 70
8
 71
3
 72
8
 73
4
 74
0
 40
0
 40
0
 40
0
 40
0
 40
1
 40
1
 40
1
 40
1
 10
351.408
 20
248.416
 30
0
 10
355.448
 20
248.778
 30
0
 10
359.499
 20
249.039
 30
0
 10
363.556
 20
249.073
 30
0
  0
SPLINE
  5
AB7
330
A02
100
AcDbEntity
  8
View006
100
AcDbSpline
210
0
220
0
230
1
 70
8
 71
1
 72
4
 73
2
 74
0
 40
0
 40
0
 40
4e-05
 40
4e-05
 10
363.556
 20
249.073
 30
0
 10
363.556
 20
249.073
 30
0
  0
ENDSEC
  0
SECTION
  2
OBJECTS
  0
DICTIONARY
  5
F000
330
0
100
AcDbDictionary
  3
ACAD_GROUP
350
F001
  0
DICTIONARY
  5
F001
330
F000
100
AcDbDictionary
  0
ENDSEC
  0
EOF