M48
; DRILL file {KiCad (6.0.2)} date sob, 19 lut 2022, 19:12:00
; FORMAT={-:-/ absolute / metric / decimal}
; #@! TF.CreationDate,2022-02-19T19:12:00+01:00
; #@! TF.GenerationSoftware,Kicad,Pcbnew,(6.0.2)
; #@! TF.FileFunction,Plated,1,2,PTH
FMAT,2
METRIC
; #@! TA.AperFunction,Plated,PTH,ViaDrill
T1C0.400
; #@! TA.AperFunction,Plated,PTH,ComponentDrill
T2C1.000
; #@! TA.AperFunction,Plated,PTH,ViaDrill
T3C1.250
%
G90
G05
T1
X140.3Y-86.1
X141.66Y-45.74
X141.8Y-54.7
X141.9Y-78.0
X141.9Y-86.1
X142.3Y-109.9
X142.4Y-60.9
X144.0Y-47.0
X145.669Y-56.769
X145.7Y-60.9
X147.701Y-50.165
X151.13Y-60.96
X151.7Y-50.9
X152.5Y-72.9
X153.0Y-58.8
X153.1Y-49.6
X153.7Y-98.6
X154.6Y-48.4
X154.7Y-47.1
X154.7Y-86.1
X154.7Y-94.3
X156.3Y-86.1
T2
X144.028Y-67.31
X146.568Y-67.31
X149.108Y-67.31
X151.648Y-67.31
T3
X148.259Y-92.049
X148.3Y-80.4
T2
X150.442Y-114.65G85X152.442Y-114.65
G05
X150.442Y-120.65G85X152.442Y-120.65
G05
X156.142Y-118.65G85X156.142Y-116.65
G05
T0
M30
