%TF.GenerationSoftware,KiCad,Pcbnew,(6.0.2)*%
%TF.CreationDate,2022-02-19T19:11:57+01:00*%
%TF.ProjectId,hexalight,68657861-6c69-4676-9874-2e6b69636164,rev?*%
%TF.SameCoordinates,Original*%
%TF.FileFunction,Copper,L2,Bot*%
%TF.FilePolarity,Positive*%
%FSLAX46Y46*%
G04 Gerber Fmt 4.6, Leading zero omitted, Abs format (unit mm)*
G04 Created by KiCad (PCBNEW (6.0.2)) date 2022-02-19 19:11:57*
%MOMM*%
%LPD*%
G01*
G04 APERTURE LIST*
G04 Aperture macros list*
%AMRoundRect*
0 Rectangle with rounded corners*
0 $1 Rounding radius*
0 $2 $3 $4 $5 $6 $7 $8 $9 X,Y pos of 4 corners*
0 Add a 4 corners polygon primitive as box body*
4,1,4,$2,$3,$4,$5,$6,$7,$8,$9,$2,$3,0*
0 Add four circle primitives for the rounded corners*
1,1,$1+$1,$2,$3*
1,1,$1+$1,$4,$5*
1,1,$1+$1,$6,$7*
1,1,$1+$1,$8,$9*
0 Add four rect primitives between the rounded corners*
20,1,$1+$1,$2,$3,$4,$5,0*
20,1,$1+$1,$4,$5,$6,$7,0*
20,1,$1+$1,$6,$7,$8,$9,0*
20,1,$1+$1,$8,$9,$2,$3,0*%
G04 Aperture macros list end*
%TA.AperFunction,ComponentPad*%
%ADD10R,1.700000X1.700000*%
%TD*%
%TA.AperFunction,ComponentPad*%
%ADD11O,1.700000X1.700000*%
%TD*%
%TA.AperFunction,ComponentPad*%
%ADD12R,3.500000X3.500000*%
%TD*%
%TA.AperFunction,ComponentPad*%
%ADD13RoundRect,0.750000X1.000000X-0.750000X1.000000X0.750000X-1.000000X0.750000X-1.000000X-0.750000X0*%
%TD*%
%TA.AperFunction,ComponentPad*%
%ADD14RoundRect,0.875000X0.875000X-0.875000X0.875000X0.875000X-0.875000X0.875000X-0.875000X-0.875000X0*%
%TD*%
%TA.AperFunction,ViaPad*%
%ADD15C,1.000000*%
%TD*%
%TA.AperFunction,ViaPad*%
%ADD16C,2.500000*%
%TD*%
%TA.AperFunction,ViaPad*%
%ADD17C,0.800000*%
%TD*%
%TA.AperFunction,Conductor*%
%ADD18C,0.500000*%
%TD*%
%TA.AperFunction,Conductor*%
%ADD19C,2.000000*%
%TD*%
%TA.AperFunction,Conductor*%
%ADD20C,0.300000*%
%TD*%
G04 APERTURE END LIST*
D10*
X144028000Y-67310000D03*
D11*
X146568000Y-67310000D03*
X149108000Y-67310000D03*
X151648000Y-67310000D03*
D12*
X151442500Y-114650000D03*
D13*
X151442500Y-120650000D03*
D14*
X156142500Y-117650000D03*
D15*
X151130000Y-60960000D03*
X142400000Y-60900000D03*
X145700000Y-60900000D03*
X142300000Y-109900000D03*
X154700000Y-94300000D03*
X147701000Y-50165000D03*
X145669000Y-56769000D03*
X141660000Y-45740000D03*
X141900000Y-78000000D03*
X153700000Y-98600000D03*
X152500000Y-72900000D03*
X144000000Y-47000000D03*
D16*
X148258886Y-92048886D03*
X148300000Y-80400000D03*
D17*
X141800000Y-54700000D03*
X141900000Y-86100000D03*
X153000000Y-58800000D03*
X154700000Y-86100000D03*
X151700000Y-50900000D03*
X153100000Y-49600000D03*
X154600000Y-48400000D03*
X156300000Y-86100000D03*
X140300000Y-86100000D03*
X154700000Y-47100000D03*
D18*
X152500000Y-97400000D02*
X152500000Y-71800000D01*
X144028000Y-67310000D02*
X144028000Y-47028000D01*
X145000000Y-69500000D02*
X144028000Y-68528000D01*
X144028000Y-68528000D02*
X144028000Y-67310000D01*
X152500000Y-70500000D02*
X151500000Y-69500000D01*
X151500000Y-69500000D02*
X145000000Y-69500000D01*
X144028000Y-47028000D02*
X144000000Y-47000000D01*
X152500000Y-71800000D02*
X152500000Y-70500000D01*
X153700000Y-98600000D02*
X152500000Y-97400000D01*
D19*
X148258886Y-92048886D02*
X148280000Y-80510000D01*
X151442500Y-114650000D02*
X149570000Y-114650000D01*
X149570000Y-114650000D02*
X148220000Y-113300000D01*
X148220000Y-113300000D02*
X148258886Y-92048886D01*
D20*
X141900000Y-86100000D02*
X141900000Y-82800000D01*
X140750489Y-81650489D02*
X140750489Y-56349511D01*
X140750489Y-56349511D02*
X141800000Y-55300000D01*
X141800000Y-55300000D02*
X141800000Y-54700000D01*
X141900000Y-82800000D02*
X140750489Y-81650489D01*
X153700000Y-85100000D02*
X153700000Y-59500000D01*
X154700000Y-86100000D02*
X153700000Y-85100000D01*
X153700000Y-59500000D02*
X153000000Y-58800000D01*
X146568000Y-65132000D02*
X147300000Y-64400000D01*
X150800000Y-56400000D02*
X151700000Y-55500000D01*
X148400000Y-56400000D02*
X150800000Y-56400000D01*
X151700000Y-55500000D02*
X151700000Y-50900000D01*
X147300000Y-57500000D02*
X148400000Y-56400000D01*
X147300000Y-64400000D02*
X147300000Y-57500000D01*
X146568000Y-67310000D02*
X146568000Y-65132000D01*
X149000000Y-57300000D02*
X151500000Y-57300000D01*
X149108000Y-65108000D02*
X148400000Y-64400000D01*
X149108000Y-67310000D02*
X149108000Y-65108000D01*
X151500000Y-57300000D02*
X153100000Y-55700000D01*
X148400000Y-57900000D02*
X149000000Y-57300000D01*
X148400000Y-64400000D02*
X148400000Y-57900000D01*
X153100000Y-55700000D02*
X153100000Y-49600000D01*
X156300000Y-86100000D02*
X154600000Y-84400000D01*
X154600000Y-84400000D02*
X154600000Y-48400000D01*
X141900000Y-47474345D02*
X143574345Y-45800000D01*
X143574345Y-45800000D02*
X153400000Y-45800000D01*
X140300000Y-86100000D02*
X141300480Y-85099520D01*
X141900000Y-51800000D02*
X141900000Y-47474345D01*
X140000000Y-53700000D02*
X141900000Y-51800000D01*
X153400000Y-45800000D02*
X154700000Y-47100000D01*
X141300480Y-85099520D02*
X141300480Y-83100000D01*
X140000000Y-81799520D02*
X140000000Y-53700000D01*
X141300480Y-83100000D02*
X140000000Y-81799520D01*
%TA.AperFunction,Conductor*%
G36*
X158184121Y-44470002D02*
G01*
X158230614Y-44523658D01*
X158242000Y-44576000D01*
X158242000Y-115736087D01*
X158221998Y-115804208D01*
X158168342Y-115850701D01*
X158098068Y-115860805D01*
X158033488Y-115831311D01*
X158019690Y-115817330D01*
X158002753Y-115797252D01*
X157999319Y-115793181D01*
X157819856Y-115641791D01*
X157617452Y-115522804D01*
X157397893Y-115439620D01*
X157167457Y-115394619D01*
X157161727Y-115394309D01*
X157111552Y-115391591D01*
X157111537Y-115391591D01*
X157109864Y-115391500D01*
X155175136Y-115391500D01*
X155173463Y-115391591D01*
X155173448Y-115391591D01*
X155123273Y-115394309D01*
X155117543Y-115394619D01*
X154887107Y-115439620D01*
X154667548Y-115522804D01*
X154465144Y-115641791D01*
X154285681Y-115793181D01*
X154282247Y-115797252D01*
X154282241Y-115797258D01*
X154215309Y-115876602D01*
X154156097Y-115915774D01*
X154085107Y-115916715D01*
X154024877Y-115879126D01*
X153994531Y-115814942D01*
X153993000Y-115795359D01*
X153992999Y-112813957D01*
X153992999Y-112812164D01*
X153992726Y-112807411D01*
X153952327Y-112632423D01*
X153874164Y-112470734D01*
X153762120Y-112330380D01*
X153621766Y-112218336D01*
X153460077Y-112140173D01*
X153453216Y-112138589D01*
X153290288Y-112100974D01*
X153290285Y-112100974D01*
X153285089Y-112099774D01*
X153280337Y-112099500D01*
X153233936Y-112099500D01*
X150148931Y-112099501D01*
X150080810Y-112079499D01*
X150034317Y-112025843D01*
X150022931Y-111973270D01*
X150057529Y-93065345D01*
X150072798Y-93005454D01*
X150125581Y-92908240D01*
X150125582Y-92908238D01*
X150127631Y-92904464D01*
X150226456Y-92642930D01*
X150288873Y-92370404D01*
X150313726Y-92091929D01*
X150314177Y-92048886D01*
X150314008Y-92046406D01*
X150295453Y-91774228D01*
X150295452Y-91774222D01*
X150295161Y-91769951D01*
X150291633Y-91752912D01*
X150239336Y-91500384D01*
X150238465Y-91496178D01*
X150232620Y-91479670D01*
X150146570Y-91236673D01*
X150145139Y-91232632D01*
X150143175Y-91228827D01*
X150143169Y-91228813D01*
X150075271Y-91097265D01*
X150061236Y-91039244D01*
X150078777Y-81453048D01*
X150094046Y-81393157D01*
X150166695Y-81259354D01*
X150166696Y-81259352D01*
X150168745Y-81255578D01*
X150267570Y-80994044D01*
X150329987Y-80721518D01*
X150354840Y-80443043D01*
X150355291Y-80400000D01*
X150355122Y-80397520D01*
X150336567Y-80125342D01*
X150336566Y-80125336D01*
X150336275Y-80121065D01*
X150332747Y-80104026D01*
X150280450Y-79851498D01*
X150279579Y-79847292D01*
X150273734Y-79830784D01*
X150187684Y-79587787D01*
X150186253Y-79583746D01*
X150058022Y-79335304D01*
X149897261Y-79106563D01*
X149881785Y-79089908D01*
X149709861Y-78904896D01*
X149709860Y-78904895D01*
X149706944Y-78901757D01*
X149490591Y-78724675D01*
X149252208Y-78578594D01*
X149234738Y-78570925D01*
X149000133Y-78467940D01*
X149000129Y-78467939D01*
X148996205Y-78466216D01*
X148727319Y-78389622D01*
X148521307Y-78360302D01*
X148454778Y-78350834D01*
X148454776Y-78350834D01*
X148450526Y-78350229D01*
X148303177Y-78349457D01*
X148175233Y-78348787D01*
X148175226Y-78348787D01*
X148170947Y-78348765D01*
X148166703Y-78349324D01*
X148166699Y-78349324D01*
X148045358Y-78365299D01*
X147893757Y-78385257D01*
X147889617Y-78386390D01*
X147889615Y-78386390D01*
X147628228Y-78457898D01*
X147624083Y-78459032D01*
X147366917Y-78568722D01*
X147222110Y-78655388D01*
X147130700Y-78710095D01*
X147130696Y-78710098D01*
X147127018Y-78712299D01*
X146908823Y-78887106D01*
X146716371Y-79089908D01*
X146553223Y-79316952D01*
X146422398Y-79564038D01*
X146326317Y-79826592D01*
X146266757Y-80099757D01*
X146244822Y-80378477D01*
X146260916Y-80657596D01*
X146314741Y-80931948D01*
X146405303Y-81196457D01*
X146407225Y-81200278D01*
X146407226Y-81200281D01*
X146464487Y-81314130D01*
X146477922Y-81370976D01*
X146460243Y-91032730D01*
X146445597Y-91091458D01*
X146381284Y-91212924D01*
X146285203Y-91475478D01*
X146225643Y-91748643D01*
X146203708Y-92027363D01*
X146219802Y-92306482D01*
X146273627Y-92580834D01*
X146364189Y-92845343D01*
X146366116Y-92849174D01*
X146443099Y-93002238D01*
X146456534Y-93059083D01*
X146419603Y-113242289D01*
X146419400Y-113249202D01*
X146414726Y-113331511D01*
X146415155Y-113336175D01*
X146425270Y-113446260D01*
X146425465Y-113448635D01*
X146433798Y-113563609D01*
X146434821Y-113568168D01*
X146435836Y-113572695D01*
X146438362Y-113588736D01*
X146439213Y-113598001D01*
X146440324Y-113602541D01*
X146466599Y-113709920D01*
X146467154Y-113712285D01*
X146492382Y-113824731D01*
X146494067Y-113829089D01*
X146494070Y-113829097D01*
X146495740Y-113833415D01*
X146500610Y-113848909D01*
X146502821Y-113857945D01*
X146504590Y-113862269D01*
X146504591Y-113862272D01*
X146546437Y-113964556D01*
X146547336Y-113966815D01*
X146587231Y-114069966D01*
X146587235Y-114069974D01*
X146588918Y-114074326D01*
X146593519Y-114082410D01*
X146600630Y-114097025D01*
X146602378Y-114101297D01*
X146604152Y-114105632D01*
X146606543Y-114109651D01*
X146606547Y-114109659D01*
X146663058Y-114204646D01*
X146664280Y-114206744D01*
X146721287Y-114306909D01*
X146727040Y-114314234D01*
X146736217Y-114327613D01*
X146740981Y-114335621D01*
X146743937Y-114339239D01*
X146743942Y-114339246D01*
X146813896Y-114424864D01*
X146815416Y-114426761D01*
X146883690Y-114513694D01*
X146883694Y-114513699D01*
X146886580Y-114517373D01*
X146889983Y-114520586D01*
X146965884Y-114592249D01*
X146968478Y-114594770D01*
X148257150Y-115883441D01*
X148262058Y-115888635D01*
X148286281Y-115915774D01*
X148315760Y-115948803D01*
X148405790Y-116023679D01*
X148407376Y-116025023D01*
X148492474Y-116098350D01*
X148492480Y-116098354D01*
X148496018Y-116101403D01*
X148499974Y-116103899D01*
X148502391Y-116105424D01*
X148515725Y-116115112D01*
X148521512Y-116119925D01*
X148612352Y-116175048D01*
X148621490Y-116180593D01*
X148623361Y-116181750D01*
X148722346Y-116244205D01*
X148726632Y-116246091D01*
X148726636Y-116246093D01*
X148729244Y-116247241D01*
X148743851Y-116254844D01*
X148750298Y-116258756D01*
X148814728Y-116285774D01*
X148869813Y-116330562D01*
X148892001Y-116401970D01*
X148892001Y-116487836D01*
X148892274Y-116492589D01*
X148932673Y-116667577D01*
X149010836Y-116829266D01*
X149122880Y-116969620D01*
X149263234Y-117081664D01*
X149424923Y-117159827D01*
X149431784Y-117161411D01*
X149594712Y-117199026D01*
X149594715Y-117199026D01*
X149599911Y-117200226D01*
X149604663Y-117200500D01*
X149606487Y-117200500D01*
X151458251Y-117200499D01*
X153280336Y-117200499D01*
X153285089Y-117200226D01*
X153460077Y-117159827D01*
X153621766Y-117081664D01*
X153679392Y-117035662D01*
X153745107Y-117008794D01*
X153814917Y-117021721D01*
X153866656Y-117070338D01*
X153884000Y-117134133D01*
X153884000Y-118617364D01*
X153884091Y-118619037D01*
X153884091Y-118619052D01*
X153885652Y-118647865D01*
X153887119Y-118674957D01*
X153932120Y-118905393D01*
X154015304Y-119124952D01*
X154134291Y-119327356D01*
X154285681Y-119506819D01*
X154465144Y-119658209D01*
X154667548Y-119777196D01*
X154887107Y-119860380D01*
X155117543Y-119905381D01*
X155121901Y-119905617D01*
X155173448Y-119908409D01*
X155173463Y-119908409D01*
X155175136Y-119908500D01*
X157109864Y-119908500D01*
X157111537Y-119908409D01*
X157111552Y-119908409D01*
X157163099Y-119905617D01*
X157167457Y-119905381D01*
X157397893Y-119860380D01*
X157617452Y-119777196D01*
X157819856Y-119658209D01*
X157999319Y-119506819D01*
X158019691Y-119482669D01*
X158078902Y-119443498D01*
X158149893Y-119442557D01*
X158210122Y-119480146D01*
X158240469Y-119544330D01*
X158242000Y-119563913D01*
X158242000Y-124461000D01*
X158221998Y-124529121D01*
X158168342Y-124575614D01*
X158116000Y-124587000D01*
X138429000Y-124587000D01*
X138360879Y-124566998D01*
X138314386Y-124513342D01*
X138303000Y-124461000D01*
X138303000Y-121459961D01*
X149184501Y-121459961D01*
X149184709Y-121465071D01*
X149195582Y-121598767D01*
X149197352Y-121609320D01*
X149250467Y-121816185D01*
X149254201Y-121826731D01*
X149343010Y-122020705D01*
X149348546Y-122030412D01*
X149470303Y-122205597D01*
X149477476Y-122214176D01*
X149628324Y-122365024D01*
X149636903Y-122372197D01*
X149812088Y-122493954D01*
X149821795Y-122499490D01*
X150015769Y-122588299D01*
X150026315Y-122592033D01*
X150233179Y-122645147D01*
X150243734Y-122646918D01*
X150377430Y-122657793D01*
X150382536Y-122658000D01*
X151170385Y-122658000D01*
X151185624Y-122653525D01*
X151186829Y-122652135D01*
X151188500Y-122644452D01*
X151188500Y-122639884D01*
X151696500Y-122639884D01*
X151700975Y-122655123D01*
X151702365Y-122656328D01*
X151710048Y-122657999D01*
X152502461Y-122657999D01*
X152507571Y-122657791D01*
X152641267Y-122646918D01*
X152651820Y-122645148D01*
X152858685Y-122592033D01*
X152869231Y-122588299D01*
X153063205Y-122499490D01*
X153072912Y-122493954D01*
X153248097Y-122372197D01*
X153256676Y-122365024D01*
X153407524Y-122214176D01*
X153414697Y-122205597D01*
X153536454Y-122030412D01*
X153541990Y-122020705D01*
X153630799Y-121826731D01*
X153634533Y-121816185D01*
X153687647Y-121609321D01*
X153689418Y-121598766D01*
X153700293Y-121465070D01*
X153700500Y-121459964D01*
X153700500Y-120922115D01*
X153696025Y-120906876D01*
X153694635Y-120905671D01*
X153686952Y-120904000D01*
X151714615Y-120904000D01*
X151699376Y-120908475D01*
X151698171Y-120909865D01*
X151696500Y-120917548D01*
X151696500Y-122639884D01*
X151188500Y-122639884D01*
X151188500Y-120922115D01*
X151184025Y-120906876D01*
X151182635Y-120905671D01*
X151174952Y-120904000D01*
X149202616Y-120904000D01*
X149187377Y-120908475D01*
X149186172Y-120909865D01*
X149184501Y-120917548D01*
X149184501Y-121459961D01*
X138303000Y-121459961D01*
X138303000Y-120377885D01*
X149184500Y-120377885D01*
X149188975Y-120393124D01*
X149190365Y-120394329D01*
X149198048Y-120396000D01*
X151170385Y-120396000D01*
X151185624Y-120391525D01*
X151186829Y-120390135D01*
X151188500Y-120382452D01*
X151188500Y-120377885D01*
X151696500Y-120377885D01*
X151700975Y-120393124D01*
X151702365Y-120394329D01*
X151710048Y-120396000D01*
X153682384Y-120396000D01*
X153697623Y-120391525D01*
X153698828Y-120390135D01*
X153700499Y-120382452D01*
X153700499Y-119840039D01*
X153700291Y-119834929D01*
X153689418Y-119701233D01*
X153687648Y-119690680D01*
X153634533Y-119483815D01*
X153630799Y-119473269D01*
X153541990Y-119279295D01*
X153536454Y-119269588D01*
X153414697Y-119094403D01*
X153407524Y-119085824D01*
X153256676Y-118934976D01*
X153248097Y-118927803D01*
X153072912Y-118806046D01*
X153063205Y-118800510D01*
X152869231Y-118711701D01*
X152858685Y-118707967D01*
X152651821Y-118654853D01*
X152641266Y-118653082D01*
X152507570Y-118642207D01*
X152502464Y-118642000D01*
X151714615Y-118642000D01*
X151699376Y-118646475D01*
X151698171Y-118647865D01*
X151696500Y-118655548D01*
X151696500Y-120377885D01*
X151188500Y-120377885D01*
X151188500Y-118660116D01*
X151184025Y-118644877D01*
X151182635Y-118643672D01*
X151174952Y-118642001D01*
X150382539Y-118642001D01*
X150377429Y-118642209D01*
X150243733Y-118653082D01*
X150233180Y-118654852D01*
X150026315Y-118707967D01*
X150015769Y-118711701D01*
X149821795Y-118800510D01*
X149812088Y-118806046D01*
X149636903Y-118927803D01*
X149628324Y-118934976D01*
X149477476Y-119085824D01*
X149470303Y-119094403D01*
X149348546Y-119269588D01*
X149343010Y-119279295D01*
X149254201Y-119473269D01*
X149250467Y-119483815D01*
X149197353Y-119690679D01*
X149195582Y-119701234D01*
X149184707Y-119834930D01*
X149184500Y-119840036D01*
X149184500Y-120377885D01*
X138303000Y-120377885D01*
X138303000Y-53679152D01*
X139336594Y-53679152D01*
X139337340Y-53687043D01*
X139340941Y-53725138D01*
X139341500Y-53736996D01*
X139341500Y-81717464D01*
X139340941Y-81729320D01*
X139339212Y-81737057D01*
X139339461Y-81744979D01*
X139341438Y-81807889D01*
X139341500Y-81811847D01*
X139341500Y-81840952D01*
X139342056Y-81845352D01*
X139342988Y-81857184D01*
X139344438Y-81903351D01*
X139346650Y-81910964D01*
X139346650Y-81910965D01*
X139350419Y-81923936D01*
X139354430Y-81943302D01*
X139357118Y-81964584D01*
X139360034Y-81971949D01*
X139360035Y-81971953D01*
X139374126Y-82007541D01*
X139377965Y-82018751D01*
X139390855Y-82063120D01*
X139401775Y-82081585D01*
X139410466Y-82099325D01*
X139418365Y-82119276D01*
X139445516Y-82156646D01*
X139452033Y-82166568D01*
X139471507Y-82199497D01*
X139471510Y-82199501D01*
X139475547Y-82206327D01*
X139490711Y-82221491D01*
X139503551Y-82236524D01*
X139516159Y-82253877D01*
X139551752Y-82283322D01*
X139560532Y-82291312D01*
X140605075Y-83335854D01*
X140639100Y-83398166D01*
X140641980Y-83424949D01*
X140641980Y-84774570D01*
X140621978Y-84842691D01*
X140605075Y-84863666D01*
X140314144Y-85154596D01*
X140251832Y-85188621D01*
X140225049Y-85191500D01*
X140204513Y-85191500D01*
X140198061Y-85192872D01*
X140198056Y-85192872D01*
X140111112Y-85211353D01*
X140017712Y-85231206D01*
X140011682Y-85233891D01*
X140011681Y-85233891D01*
X139849278Y-85306197D01*
X139849276Y-85306198D01*
X139843248Y-85308882D01*
X139688747Y-85421134D01*
X139560960Y-85563056D01*
X139465473Y-85728444D01*
X139406458Y-85910072D01*
X139386496Y-86100000D01*
X139406458Y-86289928D01*
X139465473Y-86471556D01*
X139560960Y-86636944D01*
X139565378Y-86641851D01*
X139565379Y-86641852D01*
X139684325Y-86773955D01*
X139688747Y-86778866D01*
X139843248Y-86891118D01*
X139849276Y-86893802D01*
X139849278Y-86893803D01*
X140011681Y-86966109D01*
X140017712Y-86968794D01*
X140111112Y-86988647D01*
X140198056Y-87007128D01*
X140198061Y-87007128D01*
X140204513Y-87008500D01*
X140395487Y-87008500D01*
X140401939Y-87007128D01*
X140401944Y-87007128D01*
X140488888Y-86988647D01*
X140582288Y-86968794D01*
X140588319Y-86966109D01*
X140750722Y-86893803D01*
X140750724Y-86893802D01*
X140756752Y-86891118D01*
X140911253Y-86778866D01*
X141006365Y-86673233D01*
X141066810Y-86635994D01*
X141137793Y-86637346D01*
X141193635Y-86673233D01*
X141288747Y-86778866D01*
X141443248Y-86891118D01*
X141449276Y-86893802D01*
X141449278Y-86893803D01*
X141611681Y-86966109D01*
X141617712Y-86968794D01*
X141711112Y-86988647D01*
X141798056Y-87007128D01*
X141798061Y-87007128D01*
X141804513Y-87008500D01*
X141995487Y-87008500D01*
X142001939Y-87007128D01*
X142001944Y-87007128D01*
X142088888Y-86988647D01*
X142182288Y-86968794D01*
X142188319Y-86966109D01*
X142350722Y-86893803D01*
X142350724Y-86893802D01*
X142356752Y-86891118D01*
X142511253Y-86778866D01*
X142515675Y-86773955D01*
X142634621Y-86641852D01*
X142634622Y-86641851D01*
X142639040Y-86636944D01*
X142734527Y-86471556D01*
X142793542Y-86289928D01*
X142813504Y-86100000D01*
X142793542Y-85910072D01*
X142734527Y-85728444D01*
X142639040Y-85563056D01*
X142590864Y-85509551D01*
X142560146Y-85445544D01*
X142558500Y-85425241D01*
X142558500Y-82882056D01*
X142559059Y-82870200D01*
X142559059Y-82870197D01*
X142560788Y-82862463D01*
X142558562Y-82791631D01*
X142558500Y-82787673D01*
X142558500Y-82758568D01*
X142557944Y-82754168D01*
X142557012Y-82742330D01*
X142555811Y-82704094D01*
X142555562Y-82696169D01*
X142549580Y-82675579D01*
X142545570Y-82656216D01*
X142543875Y-82642796D01*
X142543875Y-82642795D01*
X142542882Y-82634936D01*
X142539966Y-82627571D01*
X142539965Y-82627567D01*
X142525874Y-82591979D01*
X142522035Y-82580769D01*
X142509145Y-82536400D01*
X142498225Y-82517935D01*
X142489534Y-82500195D01*
X142481635Y-82480244D01*
X142454482Y-82442871D01*
X142447967Y-82432952D01*
X142428493Y-82400023D01*
X142428490Y-82400019D01*
X142424453Y-82393193D01*
X142409289Y-82378029D01*
X142396448Y-82362995D01*
X142388501Y-82352057D01*
X142383841Y-82345643D01*
X142348247Y-82316197D01*
X142339468Y-82308208D01*
X141445894Y-81414634D01*
X141411868Y-81352322D01*
X141408989Y-81325539D01*
X141408989Y-56674461D01*
X141428991Y-56606340D01*
X141445894Y-56585366D01*
X142207605Y-55823655D01*
X142216385Y-55815665D01*
X142216387Y-55815663D01*
X142223080Y-55811416D01*
X142271605Y-55759742D01*
X142274359Y-55756901D01*
X142294927Y-55736333D01*
X142297647Y-55732826D01*
X142305353Y-55723804D01*
X142331544Y-55695913D01*
X142336972Y-55690133D01*
X142340794Y-55683181D01*
X142347303Y-55671342D01*
X142358157Y-55654818D01*
X142366445Y-55644132D01*
X142371304Y-55637868D01*
X142374452Y-55630594D01*
X142389654Y-55595465D01*
X142394876Y-55584805D01*
X142413305Y-55551284D01*
X142413306Y-55551282D01*
X142417124Y-55544337D01*
X142422459Y-55523559D01*
X142428858Y-55504869D01*
X142437380Y-55485176D01*
X142444606Y-55439552D01*
X142447013Y-55427929D01*
X142456528Y-55390868D01*
X142458500Y-55383188D01*
X142458500Y-55374761D01*
X142458610Y-55374385D01*
X142459493Y-55367398D01*
X142460620Y-55367540D01*
X142478502Y-55306640D01*
X142490863Y-55290451D01*
X142534620Y-55241853D01*
X142539040Y-55236944D01*
X142546859Y-55223402D01*
X142631223Y-55077279D01*
X142631224Y-55077278D01*
X142634527Y-55071556D01*
X142693542Y-54889928D01*
X142713504Y-54700000D01*
X142693542Y-54510072D01*
X142634527Y-54328444D01*
X142539040Y-54163056D01*
X142411253Y-54021134D01*
X142256752Y-53908882D01*
X142250724Y-53906198D01*
X142250722Y-53906197D01*
X142088319Y-53833891D01*
X142088318Y-53833891D01*
X142082288Y-53831206D01*
X141988887Y-53811353D01*
X141901944Y-53792872D01*
X141901939Y-53792872D01*
X141895487Y-53791500D01*
X141704513Y-53791500D01*
X141698061Y-53792872D01*
X141698056Y-53792872D01*
X141611113Y-53811353D01*
X141517712Y-53831206D01*
X141511682Y-53833891D01*
X141511681Y-53833891D01*
X141349278Y-53906197D01*
X141349276Y-53906198D01*
X141343248Y-53908882D01*
X141188747Y-54021134D01*
X141060960Y-54163056D01*
X140965473Y-54328444D01*
X140906458Y-54510072D01*
X140906295Y-54510019D01*
X140874018Y-54569804D01*
X140811868Y-54604125D01*
X140741029Y-54599397D01*
X140683992Y-54557121D01*
X140658865Y-54490719D01*
X140658500Y-54481133D01*
X140658500Y-54024950D01*
X140678502Y-53956829D01*
X140695405Y-53935855D01*
X142307605Y-52323655D01*
X142316385Y-52315665D01*
X142316387Y-52315663D01*
X142323080Y-52311416D01*
X142371605Y-52259742D01*
X142374359Y-52256901D01*
X142394927Y-52236333D01*
X142397647Y-52232826D01*
X142405353Y-52223804D01*
X142431544Y-52195913D01*
X142436972Y-52190133D01*
X142440794Y-52183181D01*
X142447303Y-52171342D01*
X142458157Y-52154818D01*
X142466445Y-52144132D01*
X142471304Y-52137868D01*
X142474452Y-52130594D01*
X142489654Y-52095465D01*
X142494876Y-52084805D01*
X142513305Y-52051284D01*
X142513306Y-52051282D01*
X142517124Y-52044337D01*
X142522459Y-52023559D01*
X142528858Y-52004869D01*
X142537380Y-51985176D01*
X142544606Y-51939552D01*
X142547013Y-51927929D01*
X142556528Y-51890868D01*
X142558500Y-51883188D01*
X142558500Y-51861741D01*
X142560051Y-51842031D01*
X142562166Y-51828677D01*
X142563406Y-51820848D01*
X142559059Y-51774859D01*
X142558500Y-51763004D01*
X142558500Y-47799296D01*
X142578502Y-47731175D01*
X142595404Y-47710201D01*
X142893092Y-47412513D01*
X142955404Y-47378488D01*
X143026219Y-47383552D01*
X143083055Y-47426099D01*
X143094253Y-47444013D01*
X143111350Y-47477279D01*
X143148187Y-47548956D01*
X143152013Y-47553783D01*
X143242246Y-47667630D01*
X143268883Y-47733440D01*
X143269500Y-47745894D01*
X143269500Y-65825500D01*
X143249498Y-65893621D01*
X143195842Y-65940114D01*
X143143500Y-65951500D01*
X143129866Y-65951500D01*
X143067684Y-65958255D01*
X142931295Y-66009385D01*
X142814739Y-66096739D01*
X142727385Y-66213295D01*
X142676255Y-66349684D01*
X142669500Y-66411866D01*
X142669500Y-68208134D01*
X142676255Y-68270316D01*
X142727385Y-68406705D01*
X142814739Y-68523261D01*
X142931295Y-68610615D01*
X143067684Y-68661745D01*
X143129866Y-68668500D01*
X143183740Y-68668500D01*
X143251861Y-68688502D01*
X143298354Y-68742158D01*
X143302179Y-68751509D01*
X143309724Y-68772295D01*
X143311152Y-68776455D01*
X143333649Y-68845899D01*
X143337445Y-68852154D01*
X143339951Y-68857628D01*
X143342670Y-68863058D01*
X143345167Y-68869937D01*
X143349180Y-68876057D01*
X143349180Y-68876058D01*
X143385186Y-68930976D01*
X143387523Y-68934680D01*
X143425405Y-68997107D01*
X143429121Y-69001315D01*
X143429122Y-69001316D01*
X143432803Y-69005484D01*
X143432776Y-69005508D01*
X143435429Y-69008500D01*
X143438132Y-69011733D01*
X143442144Y-69017852D01*
X143447456Y-69022884D01*
X143498383Y-69071128D01*
X143500825Y-69073506D01*
X144416230Y-69988911D01*
X144428616Y-70003323D01*
X144437149Y-70014918D01*
X144437154Y-70014923D01*
X144441492Y-70020818D01*
X144447070Y-70025557D01*
X144447073Y-70025560D01*
X144481768Y-70055035D01*
X144489284Y-70061965D01*
X144494980Y-70067661D01*
X144497841Y-70069924D01*
X144497846Y-70069929D01*
X144517256Y-70085285D01*
X144520658Y-70088074D01*
X144576285Y-70135333D01*
X144582802Y-70138661D01*
X144587850Y-70142027D01*
X144592972Y-70145190D01*
X144598716Y-70149735D01*
X144664895Y-70180664D01*
X144668779Y-70182563D01*
X144733808Y-70215769D01*
X144740923Y-70217510D01*
X144746578Y-70219613D01*
X144752317Y-70221522D01*
X144758950Y-70224622D01*
X144830435Y-70239491D01*
X144834701Y-70240457D01*
X144905610Y-70257808D01*
X144911212Y-70258156D01*
X144911215Y-70258156D01*
X144916764Y-70258500D01*
X144916762Y-70258535D01*
X144920734Y-70258775D01*
X144924955Y-70259152D01*
X144932115Y-70260641D01*
X145009542Y-70258546D01*
X145012950Y-70258500D01*
X151133629Y-70258500D01*
X151201750Y-70278502D01*
X151222724Y-70295405D01*
X151704595Y-70777276D01*
X151738621Y-70839588D01*
X151741500Y-70866371D01*
X151741500Y-72189071D01*
X151721498Y-72257192D01*
X151712030Y-72270051D01*
X151663846Y-72327474D01*
X151660879Y-72332872D01*
X151660875Y-72332877D01*
X151582095Y-72476180D01*
X151568567Y-72500787D01*
X151508765Y-72689306D01*
X151486719Y-72885851D01*
X151503268Y-73082934D01*
X151557783Y-73273050D01*
X151648187Y-73448956D01*
X151652010Y-73453780D01*
X151652013Y-73453784D01*
X151714246Y-73532303D01*
X151740883Y-73598113D01*
X151741500Y-73610567D01*
X151741500Y-97332930D01*
X151740067Y-97351880D01*
X151736801Y-97373349D01*
X151737394Y-97380641D01*
X151737394Y-97380644D01*
X151741085Y-97426018D01*
X151741500Y-97436233D01*
X151741500Y-97444293D01*
X151741925Y-97447937D01*
X151744789Y-97472507D01*
X151745222Y-97476882D01*
X151751140Y-97549637D01*
X151753396Y-97556601D01*
X151754587Y-97562560D01*
X151755971Y-97568415D01*
X151756818Y-97575681D01*
X151781735Y-97644327D01*
X151783152Y-97648455D01*
X151805649Y-97717899D01*
X151809445Y-97724154D01*
X151811951Y-97729628D01*
X151814670Y-97735058D01*
X151817167Y-97741937D01*
X151821180Y-97748057D01*
X151821180Y-97748058D01*
X151857186Y-97802976D01*
X151859523Y-97806680D01*
X151897405Y-97869107D01*
X151901121Y-97873315D01*
X151901122Y-97873316D01*
X151904803Y-97877484D01*
X151904776Y-97877508D01*
X151907429Y-97880500D01*
X151910132Y-97883733D01*
X151914144Y-97889852D01*
X151919456Y-97894884D01*
X151970383Y-97943128D01*
X151972825Y-97945506D01*
X152660856Y-98633537D01*
X152694882Y-98695849D01*
X152697319Y-98712089D01*
X152703268Y-98782934D01*
X152757783Y-98973050D01*
X152848187Y-99148956D01*
X152971035Y-99303953D01*
X153121650Y-99432136D01*
X153294294Y-99528624D01*
X153482392Y-99589740D01*
X153678777Y-99613158D01*
X153684912Y-99612686D01*
X153684914Y-99612686D01*
X153869830Y-99598457D01*
X153869834Y-99598456D01*
X153875972Y-99597984D01*
X154066463Y-99544798D01*
X154071967Y-99542018D01*
X154071969Y-99542017D01*
X154237495Y-99458404D01*
X154237497Y-99458403D01*
X154242996Y-99455625D01*
X154398847Y-99333861D01*
X154528078Y-99184145D01*
X154625769Y-99012179D01*
X154688197Y-98824513D01*
X154712985Y-98628295D01*
X154713380Y-98600000D01*
X154694080Y-98403167D01*
X154636916Y-98213831D01*
X154544066Y-98039204D01*
X154465708Y-97943128D01*
X154422960Y-97890713D01*
X154422957Y-97890710D01*
X154419065Y-97885938D01*
X154398720Y-97869107D01*
X154271425Y-97763799D01*
X154271421Y-97763797D01*
X154266675Y-97759870D01*
X154092701Y-97665802D01*
X153903768Y-97607318D01*
X153897646Y-97606675D01*
X153897643Y-97606674D01*
X153852878Y-97601969D01*
X153809836Y-97597446D01*
X153744180Y-97570433D01*
X153733912Y-97561231D01*
X153295405Y-97122724D01*
X153261379Y-97060412D01*
X153258500Y-97033629D01*
X153258500Y-85893950D01*
X153278502Y-85825829D01*
X153332158Y-85779336D01*
X153402432Y-85769232D01*
X153467012Y-85798726D01*
X153473595Y-85804855D01*
X153757030Y-86088290D01*
X153791056Y-86150602D01*
X153793244Y-86164211D01*
X153806458Y-86289928D01*
X153865473Y-86471556D01*
X153960960Y-86636944D01*
X153965378Y-86641851D01*
X153965379Y-86641852D01*
X154084325Y-86773955D01*
X154088747Y-86778866D01*
X154243248Y-86891118D01*
X154249276Y-86893802D01*
X154249278Y-86893803D01*
X154411681Y-86966109D01*
X154417712Y-86968794D01*
X154511112Y-86988647D01*
X154598056Y-87007128D01*
X154598061Y-87007128D01*
X154604513Y-87008500D01*
X154795487Y-87008500D01*
X154801939Y-87007128D01*
X154801944Y-87007128D01*
X154888888Y-86988647D01*
X154982288Y-86968794D01*
X154988319Y-86966109D01*
X155150722Y-86893803D01*
X155150724Y-86893802D01*
X155156752Y-86891118D01*
X155311253Y-86778866D01*
X155406365Y-86673233D01*
X155466810Y-86635994D01*
X155537793Y-86637346D01*
X155593635Y-86673233D01*
X155688747Y-86778866D01*
X155843248Y-86891118D01*
X155849276Y-86893802D01*
X155849278Y-86893803D01*
X156011681Y-86966109D01*
X156017712Y-86968794D01*
X156111112Y-86988647D01*
X156198056Y-87007128D01*
X156198061Y-87007128D01*
X156204513Y-87008500D01*
X156395487Y-87008500D01*
X156401939Y-87007128D01*
X156401944Y-87007128D01*
X156488888Y-86988647D01*
X156582288Y-86968794D01*
X156588319Y-86966109D01*
X156750722Y-86893803D01*
X156750724Y-86893802D01*
X156756752Y-86891118D01*
X156911253Y-86778866D01*
X156915675Y-86773955D01*
X157034621Y-86641852D01*
X157034622Y-86641851D01*
X157039040Y-86636944D01*
X157134527Y-86471556D01*
X157193542Y-86289928D01*
X157213504Y-86100000D01*
X157193542Y-85910072D01*
X157134527Y-85728444D01*
X157039040Y-85563056D01*
X156911253Y-85421134D01*
X156756752Y-85308882D01*
X156750724Y-85306198D01*
X156750722Y-85306197D01*
X156588319Y-85233891D01*
X156588318Y-85233891D01*
X156582288Y-85231206D01*
X156488888Y-85211353D01*
X156401944Y-85192872D01*
X156401939Y-85192872D01*
X156395487Y-85191500D01*
X156374950Y-85191500D01*
X156306829Y-85171498D01*
X156285855Y-85154595D01*
X155295405Y-84164145D01*
X155261379Y-84101833D01*
X155258500Y-84075050D01*
X155258500Y-49074759D01*
X155278502Y-49006638D01*
X155290864Y-48990449D01*
X155334621Y-48941852D01*
X155334622Y-48941851D01*
X155339040Y-48936944D01*
X155414527Y-48806197D01*
X155431223Y-48777279D01*
X155431224Y-48777278D01*
X155434527Y-48771556D01*
X155493542Y-48589928D01*
X155513504Y-48400000D01*
X155493542Y-48210072D01*
X155434527Y-48028444D01*
X155344339Y-47872234D01*
X155327601Y-47803239D01*
X155350821Y-47736147D01*
X155359810Y-47724938D01*
X155439040Y-47636944D01*
X155534527Y-47471556D01*
X155593542Y-47289928D01*
X155595035Y-47275728D01*
X155612814Y-47106565D01*
X155613504Y-47100000D01*
X155599705Y-46968707D01*
X155594232Y-46916635D01*
X155594232Y-46916633D01*
X155593542Y-46910072D01*
X155534527Y-46728444D01*
X155439040Y-46563056D01*
X155373177Y-46489907D01*
X155315675Y-46426045D01*
X155315674Y-46426044D01*
X155311253Y-46421134D01*
X155156752Y-46308882D01*
X155150724Y-46306198D01*
X155150722Y-46306197D01*
X154988319Y-46233891D01*
X154988318Y-46233891D01*
X154982288Y-46231206D01*
X154888887Y-46211353D01*
X154801944Y-46192872D01*
X154801939Y-46192872D01*
X154795487Y-46191500D01*
X154774950Y-46191500D01*
X154706829Y-46171498D01*
X154685855Y-46154595D01*
X153923655Y-45392395D01*
X153915665Y-45383615D01*
X153915663Y-45383613D01*
X153911416Y-45376920D01*
X153884627Y-45351763D01*
X153859743Y-45328396D01*
X153856901Y-45325641D01*
X153836333Y-45305073D01*
X153832826Y-45302353D01*
X153823804Y-45294647D01*
X153790133Y-45263028D01*
X153783181Y-45259206D01*
X153771342Y-45252697D01*
X153754818Y-45241843D01*
X153744132Y-45233555D01*
X153737868Y-45228696D01*
X153730596Y-45225549D01*
X153730594Y-45225548D01*
X153695465Y-45210346D01*
X153684805Y-45205124D01*
X153651284Y-45186695D01*
X153651282Y-45186694D01*
X153644337Y-45182876D01*
X153623559Y-45177541D01*
X153604869Y-45171142D01*
X153585176Y-45162620D01*
X153539552Y-45155394D01*
X153527929Y-45152987D01*
X153493661Y-45144189D01*
X153483188Y-45141500D01*
X153461741Y-45141500D01*
X153442031Y-45139949D01*
X153428677Y-45137834D01*
X153420848Y-45136594D01*
X153374859Y-45140941D01*
X153363004Y-45141500D01*
X143656401Y-45141500D01*
X143644545Y-45140941D01*
X143644542Y-45140941D01*
X143636808Y-45139212D01*
X143581791Y-45140941D01*
X143565976Y-45141438D01*
X143562018Y-45141500D01*
X143532913Y-45141500D01*
X143528513Y-45142056D01*
X143516681Y-45142988D01*
X143470514Y-45144438D01*
X143449924Y-45150420D01*
X143430563Y-45154430D01*
X143423575Y-45155312D01*
X143417141Y-45156125D01*
X143417140Y-45156125D01*
X143409281Y-45157118D01*
X143401916Y-45160034D01*
X143401912Y-45160035D01*
X143366327Y-45174124D01*
X143355097Y-45177969D01*
X143310744Y-45190855D01*
X143303920Y-45194891D01*
X143292288Y-45201770D01*
X143274532Y-45210469D01*
X143254589Y-45218365D01*
X143240370Y-45228696D01*
X143217213Y-45245520D01*
X143207294Y-45252035D01*
X143174368Y-45271508D01*
X143174364Y-45271511D01*
X143167538Y-45275548D01*
X143152377Y-45290709D01*
X143137345Y-45303548D01*
X143119988Y-45316159D01*
X143114938Y-45322263D01*
X143114936Y-45322265D01*
X143090533Y-45351763D01*
X143082544Y-45360541D01*
X141492396Y-46950690D01*
X141483613Y-46958682D01*
X141476920Y-46962929D01*
X141471494Y-46968707D01*
X141428395Y-47014603D01*
X141425640Y-47017445D01*
X141405073Y-47038012D01*
X141402356Y-47041515D01*
X141394648Y-47050540D01*
X141363028Y-47084212D01*
X141359207Y-47091163D01*
X141359206Y-47091164D01*
X141352697Y-47103003D01*
X141341843Y-47119527D01*
X141334018Y-47129616D01*
X141328696Y-47136477D01*
X141325549Y-47143749D01*
X141325548Y-47143751D01*
X141310346Y-47178880D01*
X141305124Y-47189540D01*
X141289262Y-47218393D01*
X141282876Y-47230008D01*
X141277541Y-47250786D01*
X141271142Y-47269476D01*
X141262620Y-47289169D01*
X141261380Y-47297000D01*
X141255394Y-47334793D01*
X141252987Y-47346416D01*
X141241500Y-47391157D01*
X141241500Y-47412604D01*
X141239949Y-47432314D01*
X141236594Y-47453497D01*
X141237340Y-47461388D01*
X141240941Y-47499483D01*
X141241500Y-47511341D01*
X141241500Y-51475050D01*
X141221498Y-51543171D01*
X141204595Y-51564145D01*
X139592395Y-53176345D01*
X139583615Y-53184335D01*
X139583613Y-53184337D01*
X139576920Y-53188584D01*
X139571494Y-53194362D01*
X139571493Y-53194363D01*
X139528396Y-53240257D01*
X139525641Y-53243099D01*
X139505073Y-53263667D01*
X139502356Y-53267170D01*
X139494648Y-53276195D01*
X139463028Y-53309867D01*
X139459207Y-53316818D01*
X139459206Y-53316819D01*
X139452697Y-53328658D01*
X139441843Y-53345182D01*
X139434018Y-53355271D01*
X139428696Y-53362132D01*
X139425549Y-53369404D01*
X139425548Y-53369406D01*
X139410346Y-53404535D01*
X139405124Y-53415195D01*
X139382876Y-53455663D01*
X139377541Y-53476441D01*
X139371142Y-53495131D01*
X139362620Y-53514824D01*
X139361380Y-53522655D01*
X139355394Y-53560448D01*
X139352987Y-53572071D01*
X139341500Y-53616812D01*
X139341500Y-53638259D01*
X139339949Y-53657969D01*
X139336594Y-53679152D01*
X138303000Y-53679152D01*
X138303000Y-44576000D01*
X138323002Y-44507879D01*
X138376658Y-44461386D01*
X138429000Y-44450000D01*
X158116000Y-44450000D01*
X158184121Y-44470002D01*
G37*
%TD.AperFunction*%
%TA.AperFunction,Conductor*%
G36*
X153891295Y-55926281D02*
G01*
X153933680Y-55983237D01*
X153941500Y-56026935D01*
X153941500Y-58159670D01*
X153921498Y-58227791D01*
X153867842Y-58274284D01*
X153797568Y-58284388D01*
X153732988Y-58254894D01*
X153721864Y-58243980D01*
X153615675Y-58126045D01*
X153615674Y-58126044D01*
X153611253Y-58121134D01*
X153456752Y-58008882D01*
X153450724Y-58006198D01*
X153450722Y-58006197D01*
X153288319Y-57933891D01*
X153288318Y-57933891D01*
X153282288Y-57931206D01*
X153178500Y-57909145D01*
X153101944Y-57892872D01*
X153101939Y-57892872D01*
X153095487Y-57891500D01*
X152904513Y-57891500D01*
X152898061Y-57892872D01*
X152898056Y-57892872D01*
X152821500Y-57909145D01*
X152717712Y-57931206D01*
X152711682Y-57933891D01*
X152711681Y-57933891D01*
X152549278Y-58006197D01*
X152549276Y-58006198D01*
X152543248Y-58008882D01*
X152388747Y-58121134D01*
X152260960Y-58263056D01*
X152165473Y-58428444D01*
X152106458Y-58610072D01*
X152086496Y-58800000D01*
X152106458Y-58989928D01*
X152165473Y-59171556D01*
X152260960Y-59336944D01*
X152388747Y-59478866D01*
X152543248Y-59591118D01*
X152549276Y-59593802D01*
X152549278Y-59593803D01*
X152711681Y-59666109D01*
X152717712Y-59668794D01*
X152811113Y-59688647D01*
X152898056Y-59707128D01*
X152898061Y-59707128D01*
X152904513Y-59708500D01*
X152915500Y-59708500D01*
X152983621Y-59728502D01*
X153030114Y-59782158D01*
X153041500Y-59834500D01*
X153041500Y-66537037D01*
X153021498Y-66605158D01*
X152967842Y-66651651D01*
X152897568Y-66661755D01*
X152832988Y-66632261D01*
X152809708Y-66605477D01*
X152730426Y-66482926D01*
X152724136Y-66474757D01*
X152580806Y-66317240D01*
X152573273Y-66310215D01*
X152406139Y-66178222D01*
X152397552Y-66172517D01*
X152211117Y-66069599D01*
X152201705Y-66065369D01*
X152000959Y-65994280D01*
X151990988Y-65991646D01*
X151919837Y-65978972D01*
X151906540Y-65980432D01*
X151902000Y-65994989D01*
X151902000Y-67438000D01*
X151881998Y-67506121D01*
X151828342Y-67552614D01*
X151776000Y-67564000D01*
X151520000Y-67564000D01*
X151451879Y-67543998D01*
X151405386Y-67490342D01*
X151394000Y-67438000D01*
X151394000Y-65993102D01*
X151390082Y-65979758D01*
X151375806Y-65977771D01*
X151337324Y-65983660D01*
X151327288Y-65986051D01*
X151124868Y-66052212D01*
X151115359Y-66056209D01*
X150926463Y-66154542D01*
X150917738Y-66160036D01*
X150747433Y-66287905D01*
X150739726Y-66294748D01*
X150592590Y-66448717D01*
X150586109Y-66456722D01*
X150481498Y-66610074D01*
X150426587Y-66655076D01*
X150356062Y-66663247D01*
X150292315Y-66631993D01*
X150271618Y-66607509D01*
X150190822Y-66482617D01*
X150190820Y-66482614D01*
X150188014Y-66478277D01*
X150037670Y-66313051D01*
X150033619Y-66309852D01*
X150033615Y-66309848D01*
X149866412Y-66177799D01*
X149862359Y-66174598D01*
X149857841Y-66172104D01*
X149857835Y-66172100D01*
X149831605Y-66157620D01*
X149781635Y-66107187D01*
X149766500Y-66047312D01*
X149766500Y-65190056D01*
X149767059Y-65178200D01*
X149767059Y-65178197D01*
X149768788Y-65170463D01*
X149766562Y-65099631D01*
X149766500Y-65095673D01*
X149766500Y-65066568D01*
X149765944Y-65062168D01*
X149765012Y-65050330D01*
X149764965Y-65048812D01*
X149763562Y-65004169D01*
X149757580Y-64983579D01*
X149753570Y-64964216D01*
X149751875Y-64950796D01*
X149751875Y-64950795D01*
X149750882Y-64942936D01*
X149747966Y-64935571D01*
X149747965Y-64935567D01*
X149733874Y-64899979D01*
X149730035Y-64888769D01*
X149717145Y-64844400D01*
X149706229Y-64825943D01*
X149697534Y-64808193D01*
X149689635Y-64788244D01*
X149672726Y-64764971D01*
X149662477Y-64750864D01*
X149655960Y-64740943D01*
X149653088Y-64736087D01*
X149632452Y-64701193D01*
X149617291Y-64686032D01*
X149604449Y-64670997D01*
X149591841Y-64653643D01*
X149556248Y-64624198D01*
X149547467Y-64616208D01*
X149095404Y-64164144D01*
X149061379Y-64101832D01*
X149058500Y-64075049D01*
X149058500Y-58224950D01*
X149078502Y-58156829D01*
X149095405Y-58135855D01*
X149235855Y-57995405D01*
X149298167Y-57961379D01*
X149324950Y-57958500D01*
X151417944Y-57958500D01*
X151429800Y-57959059D01*
X151429803Y-57959059D01*
X151437537Y-57960788D01*
X151508369Y-57958562D01*
X151512327Y-57958500D01*
X151541432Y-57958500D01*
X151545832Y-57957944D01*
X151557664Y-57957012D01*
X151603831Y-57955562D01*
X151624421Y-57949580D01*
X151643782Y-57945570D01*
X151650770Y-57944688D01*
X151657204Y-57943875D01*
X151657205Y-57943875D01*
X151665064Y-57942882D01*
X151672429Y-57939966D01*
X151672433Y-57939965D01*
X151708021Y-57925874D01*
X151719231Y-57922035D01*
X151763600Y-57909145D01*
X151782065Y-57898225D01*
X151799805Y-57889534D01*
X151819756Y-57881635D01*
X151857129Y-57854482D01*
X151867048Y-57847967D01*
X151899977Y-57828493D01*
X151899981Y-57828490D01*
X151906807Y-57824453D01*
X151921971Y-57809289D01*
X151937005Y-57796448D01*
X151947943Y-57788501D01*
X151954357Y-57783841D01*
X151983803Y-57748247D01*
X151991792Y-57739468D01*
X153507605Y-56223655D01*
X153516385Y-56215665D01*
X153516387Y-56215663D01*
X153523080Y-56211416D01*
X153571605Y-56159742D01*
X153574359Y-56156901D01*
X153594927Y-56136333D01*
X153597647Y-56132826D01*
X153605353Y-56123804D01*
X153631544Y-56095913D01*
X153636972Y-56090133D01*
X153640794Y-56083181D01*
X153647303Y-56071342D01*
X153658157Y-56054818D01*
X153666445Y-56044132D01*
X153671304Y-56037868D01*
X153676035Y-56026935D01*
X153689654Y-55995465D01*
X153694875Y-55984807D01*
X153696934Y-55981062D01*
X153705085Y-55966235D01*
X153755428Y-55916177D01*
X153824845Y-55901282D01*
X153891295Y-55926281D01*
G37*
%TD.AperFunction*%
%TA.AperFunction,Conductor*%
G36*
X153143171Y-46478502D02*
G01*
X153164145Y-46495405D01*
X153757030Y-47088290D01*
X153791056Y-47150602D01*
X153793245Y-47164214D01*
X153804966Y-47275728D01*
X153806458Y-47289928D01*
X153808498Y-47296205D01*
X153808498Y-47296207D01*
X153824812Y-47346416D01*
X153865473Y-47471556D01*
X153868776Y-47477278D01*
X153868777Y-47477279D01*
X153955661Y-47627766D01*
X153972399Y-47696761D01*
X153949179Y-47763853D01*
X153940190Y-47775062D01*
X153860960Y-47863056D01*
X153765473Y-48028444D01*
X153706458Y-48210072D01*
X153686496Y-48400000D01*
X153706458Y-48589928D01*
X153708497Y-48596203D01*
X153727501Y-48654690D01*
X153729529Y-48725658D01*
X153692866Y-48786456D01*
X153629154Y-48817782D01*
X153556420Y-48808734D01*
X153382288Y-48731206D01*
X153288887Y-48711353D01*
X153201944Y-48692872D01*
X153201939Y-48692872D01*
X153195487Y-48691500D01*
X153004513Y-48691500D01*
X152998061Y-48692872D01*
X152998056Y-48692872D01*
X152911113Y-48711353D01*
X152817712Y-48731206D01*
X152811682Y-48733891D01*
X152811681Y-48733891D01*
X152649278Y-48806197D01*
X152649276Y-48806198D01*
X152643248Y-48808882D01*
X152488747Y-48921134D01*
X152484326Y-48926044D01*
X152484325Y-48926045D01*
X152426336Y-48990449D01*
X152360960Y-49063056D01*
X152265473Y-49228444D01*
X152206458Y-49410072D01*
X152186496Y-49600000D01*
X152206458Y-49789928D01*
X152208498Y-49796206D01*
X152248575Y-49919551D01*
X152250602Y-49990519D01*
X152213940Y-50051316D01*
X152150228Y-50082642D01*
X152077493Y-50073594D01*
X151988319Y-50033891D01*
X151988318Y-50033891D01*
X151982288Y-50031206D01*
X151888887Y-50011353D01*
X151801944Y-49992872D01*
X151801939Y-49992872D01*
X151795487Y-49991500D01*
X151604513Y-49991500D01*
X151598061Y-49992872D01*
X151598056Y-49992872D01*
X151511113Y-50011353D01*
X151417712Y-50031206D01*
X151411682Y-50033891D01*
X151411681Y-50033891D01*
X151249278Y-50106197D01*
X151249276Y-50106198D01*
X151243248Y-50108882D01*
X151088747Y-50221134D01*
X150960960Y-50363056D01*
X150865473Y-50528444D01*
X150806458Y-50710072D01*
X150786496Y-50900000D01*
X150806458Y-51089928D01*
X150865473Y-51271556D01*
X150960960Y-51436944D01*
X150965378Y-51441851D01*
X150965379Y-51441852D01*
X151009136Y-51490449D01*
X151039854Y-51554456D01*
X151041500Y-51574759D01*
X151041500Y-55175050D01*
X151021498Y-55243171D01*
X151004595Y-55264146D01*
X150564144Y-55704596D01*
X150501832Y-55738621D01*
X150475049Y-55741500D01*
X148482059Y-55741500D01*
X148470203Y-55740941D01*
X148462463Y-55739211D01*
X148454537Y-55739460D01*
X148454536Y-55739460D01*
X148391611Y-55741438D01*
X148387653Y-55741500D01*
X148358568Y-55741500D01*
X148354637Y-55741997D01*
X148354630Y-55741997D01*
X148354179Y-55742054D01*
X148342343Y-55742986D01*
X148296169Y-55744438D01*
X148275579Y-55750420D01*
X148256218Y-55754430D01*
X148249230Y-55755312D01*
X148242796Y-55756125D01*
X148242795Y-55756125D01*
X148234936Y-55757118D01*
X148227571Y-55760034D01*
X148227567Y-55760035D01*
X148191979Y-55774126D01*
X148180769Y-55777965D01*
X148136400Y-55790855D01*
X148117935Y-55801775D01*
X148100195Y-55810466D01*
X148080244Y-55818365D01*
X148059165Y-55833680D01*
X148042874Y-55845516D01*
X148032952Y-55852033D01*
X148000023Y-55871507D01*
X148000019Y-55871510D01*
X147993193Y-55875547D01*
X147978029Y-55890711D01*
X147962996Y-55903551D01*
X147945643Y-55916159D01*
X147922332Y-55944337D01*
X147916198Y-55951752D01*
X147908208Y-55960532D01*
X146892395Y-56976345D01*
X146883615Y-56984335D01*
X146883613Y-56984337D01*
X146876920Y-56988584D01*
X146871494Y-56994362D01*
X146871493Y-56994363D01*
X146828396Y-57040257D01*
X146825641Y-57043099D01*
X146805073Y-57063667D01*
X146802356Y-57067170D01*
X146794648Y-57076195D01*
X146763028Y-57109867D01*
X146759207Y-57116818D01*
X146759206Y-57116819D01*
X146752697Y-57128658D01*
X146741843Y-57145182D01*
X146734018Y-57155271D01*
X146728696Y-57162132D01*
X146725549Y-57169404D01*
X146725548Y-57169406D01*
X146710346Y-57204535D01*
X146705124Y-57215195D01*
X146682876Y-57255663D01*
X146677541Y-57276441D01*
X146671142Y-57295131D01*
X146662620Y-57314824D01*
X146661380Y-57322655D01*
X146655394Y-57360448D01*
X146652987Y-57372071D01*
X146641500Y-57416812D01*
X146641500Y-57438259D01*
X146639949Y-57457969D01*
X146636594Y-57479152D01*
X146637340Y-57487043D01*
X146640941Y-57525138D01*
X146641500Y-57536996D01*
X146641500Y-64075050D01*
X146621498Y-64143171D01*
X146604595Y-64164146D01*
X146160391Y-64608349D01*
X146151612Y-64616337D01*
X146144920Y-64620584D01*
X146139495Y-64626361D01*
X146096395Y-64672258D01*
X146093640Y-64675100D01*
X146073073Y-64695667D01*
X146070356Y-64699170D01*
X146062648Y-64708195D01*
X146031028Y-64741867D01*
X146027207Y-64748818D01*
X146027206Y-64748819D01*
X146020697Y-64760658D01*
X146009843Y-64777182D01*
X146002018Y-64787271D01*
X145996696Y-64794132D01*
X145993549Y-64801404D01*
X145993548Y-64801406D01*
X145978346Y-64836535D01*
X145973124Y-64847195D01*
X145950876Y-64887663D01*
X145945541Y-64908441D01*
X145939142Y-64927131D01*
X145930620Y-64946824D01*
X145926307Y-64974055D01*
X145923394Y-64992448D01*
X145920987Y-65004071D01*
X145909500Y-65048812D01*
X145909500Y-65070259D01*
X145907949Y-65089969D01*
X145904594Y-65111152D01*
X145905340Y-65119043D01*
X145908941Y-65157138D01*
X145909500Y-65168996D01*
X145909500Y-66044705D01*
X145889498Y-66112826D01*
X145849441Y-66149572D01*
X145850570Y-66151364D01*
X145846200Y-66154116D01*
X145841607Y-66156507D01*
X145662965Y-66290635D01*
X145606537Y-66349684D01*
X145582283Y-66375064D01*
X145520759Y-66410494D01*
X145449846Y-66407037D01*
X145392060Y-66365791D01*
X145373207Y-66332243D01*
X145331767Y-66221703D01*
X145328615Y-66213295D01*
X145241261Y-66096739D01*
X145124705Y-66009385D01*
X144988316Y-65958255D01*
X144926134Y-65951500D01*
X144912500Y-65951500D01*
X144844379Y-65931498D01*
X144797886Y-65877842D01*
X144786500Y-65825500D01*
X144786500Y-47679173D01*
X144806502Y-47611052D01*
X144817120Y-47596841D01*
X144824049Y-47588814D01*
X144824054Y-47588807D01*
X144828078Y-47584145D01*
X144925769Y-47412179D01*
X144988197Y-47224513D01*
X145012985Y-47028295D01*
X145013380Y-47000000D01*
X144994080Y-46803167D01*
X144992298Y-46797264D01*
X144939056Y-46620918D01*
X144938515Y-46549923D01*
X144976443Y-46489907D01*
X145040797Y-46459923D01*
X145059678Y-46458500D01*
X153075050Y-46458500D01*
X153143171Y-46478502D01*
G37*
%TD.AperFunction*%
M02*
