%FSLAX45Y45*%
G04 Gerber Fmt 4.5, Leading zero omitted, Abs format (unit mm)*
G04 Created by KiCad (PCBNEW (6.0.2)) date 2022-02-19 19:12:01*
%MOMM*%
%LPD*%
G01*
G04 APERTURE LIST*
%TA.AperFunction,Profile*%
%ADD10C,0.050000*%
%TD*%
%ADD11C,0.200000*%
G04 APERTURE END LIST*
D10*
X13779500Y-4394200D02*
X15875000Y-4394200D01*
X15875000Y-4394200D02*
X15875000Y-12509500D01*
X15875000Y-12509500D02*
X13779500Y-12509500D01*
X13779500Y-12509500D02*
X13779500Y-4394200D01*
D11*
X14034619Y-12822476D02*
X14034619Y-12622476D01*
X14082238Y-12622476D01*
X14110809Y-12632000D01*
X14129857Y-12651048D01*
X14139381Y-12670095D01*
X14148905Y-12708190D01*
X14148905Y-12736762D01*
X14139381Y-12774857D01*
X14129857Y-12793905D01*
X14110809Y-12812952D01*
X14082238Y-12822476D01*
X14034619Y-12822476D01*
X14234619Y-12822476D02*
X14234619Y-12689143D01*
X14234619Y-12727238D02*
X14244143Y-12708190D01*
X14253667Y-12698667D01*
X14272714Y-12689143D01*
X14291762Y-12689143D01*
X14358428Y-12822476D02*
X14358428Y-12689143D01*
X14358428Y-12622476D02*
X14348905Y-12632000D01*
X14358428Y-12641524D01*
X14367952Y-12632000D01*
X14358428Y-12622476D01*
X14358428Y-12641524D01*
X14482238Y-12822476D02*
X14463190Y-12812952D01*
X14453667Y-12793905D01*
X14453667Y-12622476D01*
X14587000Y-12822476D02*
X14567952Y-12812952D01*
X14558428Y-12793905D01*
X14558428Y-12622476D01*
X14815571Y-12822476D02*
X14815571Y-12622476D01*
X14882238Y-12765333D01*
X14948905Y-12622476D01*
X14948905Y-12822476D01*
X15129857Y-12822476D02*
X15129857Y-12717714D01*
X15120333Y-12698667D01*
X15101286Y-12689143D01*
X15063190Y-12689143D01*
X15044143Y-12698667D01*
X15129857Y-12812952D02*
X15110809Y-12822476D01*
X15063190Y-12822476D01*
X15044143Y-12812952D01*
X15034619Y-12793905D01*
X15034619Y-12774857D01*
X15044143Y-12755809D01*
X15063190Y-12746286D01*
X15110809Y-12746286D01*
X15129857Y-12736762D01*
X15225095Y-12689143D02*
X15225095Y-12889143D01*
X15225095Y-12698667D02*
X15244143Y-12689143D01*
X15282238Y-12689143D01*
X15301286Y-12698667D01*
X15310809Y-12708190D01*
X15320333Y-12727238D01*
X15320333Y-12784381D01*
X15310809Y-12803428D01*
X15301286Y-12812952D01*
X15282238Y-12822476D01*
X15244143Y-12822476D01*
X15225095Y-12812952D01*
X15406048Y-12803428D02*
X15415571Y-12812952D01*
X15406048Y-12822476D01*
X15396524Y-12812952D01*
X15406048Y-12803428D01*
X15406048Y-12822476D01*
X15406048Y-12698667D02*
X15415571Y-12708190D01*
X15406048Y-12717714D01*
X15396524Y-12708190D01*
X15406048Y-12698667D01*
X15406048Y-12717714D01*
M02*
