%TF.GenerationSoftware,KiCad,Pcbnew,(6.0.2)*%
%TF.CreationDate,2022-02-19T19:11:57+01:00*%
%TF.ProjectId,hexalight,68657861-6c69-4676-9874-2e6b69636164,rev?*%
%TF.SameCoordinates,Original*%
%TF.FileFunction,Legend,Top*%
%TF.FilePolarity,Positive*%
%FSLAX46Y46*%
G04 Gerber Fmt 4.6, Leading zero omitted, Abs format (unit mm)*
G04 Created by KiCad (PCBNEW (6.0.2)) date 2022-02-19 19:11:57*
%MOMM*%
%LPD*%
G01*
G04 APERTURE LIST*
G04 Aperture macros list*
%AMRoundRect*
0 Rectangle with rounded corners*
0 $1 Rounding radius*
0 $2 $3 $4 $5 $6 $7 $8 $9 X,Y pos of 4 corners*
0 Add a 4 corners polygon primitive as box body*
4,1,4,$2,$3,$4,$5,$6,$7,$8,$9,$2,$3,0*
0 Add four circle primitives for the rounded corners*
1,1,$1+$1,$2,$3*
1,1,$1+$1,$4,$5*
1,1,$1+$1,$6,$7*
1,1,$1+$1,$8,$9*
0 Add four rect primitives between the rounded corners*
20,1,$1+$1,$2,$3,$4,$5,0*
20,1,$1+$1,$4,$5,$6,$7,0*
20,1,$1+$1,$6,$7,$8,$9,0*
20,1,$1+$1,$8,$9,$2,$3,0*%
G04 Aperture macros list end*
%ADD10C,0.120000*%
%ADD11C,0.150000*%
%ADD12C,0.254000*%
%ADD13RoundRect,0.250000X0.450000X-0.350000X0.450000X0.350000X-0.450000X0.350000X-0.450000X-0.350000X0*%
%ADD14R,1.700000X0.900000*%
%ADD15R,1.500000X2.000000*%
%ADD16R,3.800000X2.000000*%
%ADD17R,1.500000X0.900000*%
%ADD18R,0.900000X1.500000*%
%ADD19R,1.050000X1.050000*%
%ADD20RoundRect,0.250000X0.412500X1.100000X-0.412500X1.100000X-0.412500X-1.100000X0.412500X-1.100000X0*%
%ADD21RoundRect,0.250000X-0.475000X0.337500X-0.475000X-0.337500X0.475000X-0.337500X0.475000X0.337500X0*%
%ADD22R,7.100000X2.000000*%
%ADD23RoundRect,0.250000X0.475000X-0.337500X0.475000X0.337500X-0.475000X0.337500X-0.475000X-0.337500X0*%
%ADD24R,1.700000X1.700000*%
%ADD25O,1.700000X1.700000*%
%ADD26R,3.500000X3.500000*%
%ADD27RoundRect,0.750000X1.000000X-0.750000X1.000000X0.750000X-1.000000X0.750000X-1.000000X-0.750000X0*%
%ADD28RoundRect,0.875000X0.875000X-0.875000X0.875000X0.875000X-0.875000X0.875000X-0.875000X-0.875000X0*%
G04 APERTURE END LIST*
D10*
X139700000Y-105156000D02*
X140462000Y-105664000D01*
X140462000Y-106426000D02*
X139700000Y-106934000D01*
X138938000Y-105664000D02*
X139700000Y-105156000D01*
X140462000Y-105664000D02*
X140462000Y-106426000D01*
D11*
X142525904Y-69048380D02*
X143144952Y-69048380D01*
X142811619Y-69429333D01*
X142954476Y-69429333D01*
X143049714Y-69476952D01*
X143097333Y-69524571D01*
X143144952Y-69619809D01*
X143144952Y-69857904D01*
X143097333Y-69953142D01*
X143049714Y-70000761D01*
X142954476Y-70048380D01*
X142668761Y-70048380D01*
X142573523Y-70000761D01*
X142525904Y-69953142D01*
X143430666Y-69048380D02*
X143764000Y-70048380D01*
X144097333Y-69048380D01*
X144335428Y-69048380D02*
X144954476Y-69048380D01*
X144621142Y-69429333D01*
X144764000Y-69429333D01*
X144859238Y-69476952D01*
X144906857Y-69524571D01*
X144954476Y-69619809D01*
X144954476Y-69857904D01*
X144906857Y-69953142D01*
X144859238Y-70000761D01*
X144764000Y-70048380D01*
X144478285Y-70048380D01*
X144383047Y-70000761D01*
X144335428Y-69953142D01*
X139485619Y-114506952D02*
X138771333Y-114506952D01*
X138628476Y-114459333D01*
X138533238Y-114364095D01*
X138485619Y-114221238D01*
X138485619Y-114126000D01*
X138485619Y-115459333D02*
X138485619Y-114983142D01*
X139485619Y-114983142D01*
X138580857Y-116364095D02*
X138533238Y-116316476D01*
X138485619Y-116173619D01*
X138485619Y-116078380D01*
X138533238Y-115935523D01*
X138628476Y-115840285D01*
X138723714Y-115792666D01*
X138914190Y-115745047D01*
X139057047Y-115745047D01*
X139247523Y-115792666D01*
X139342761Y-115840285D01*
X139438000Y-115935523D01*
X139485619Y-116078380D01*
X139485619Y-116173619D01*
X139438000Y-116316476D01*
X139390380Y-116364095D01*
X139485619Y-117078380D02*
X138771333Y-117078380D01*
X138628476Y-117030761D01*
X138533238Y-116935523D01*
X138485619Y-116792666D01*
X138485619Y-116697428D01*
X138485619Y-118030761D02*
X138485619Y-117554571D01*
X139485619Y-117554571D01*
X138580857Y-118935523D02*
X138533238Y-118887904D01*
X138485619Y-118745047D01*
X138485619Y-118649809D01*
X138533238Y-118506952D01*
X138628476Y-118411714D01*
X138723714Y-118364095D01*
X138914190Y-118316476D01*
X139057047Y-118316476D01*
X139247523Y-118364095D01*
X139342761Y-118411714D01*
X139438000Y-118506952D01*
X139485619Y-118649809D01*
X139485619Y-118745047D01*
X139438000Y-118887904D01*
X139390380Y-118935523D01*
X139485619Y-119649809D02*
X138771333Y-119649809D01*
X138628476Y-119602190D01*
X138533238Y-119506952D01*
X138485619Y-119364095D01*
X138485619Y-119268857D01*
X138485619Y-120602190D02*
X138485619Y-120126000D01*
X139485619Y-120126000D01*
X138580857Y-121506952D02*
X138533238Y-121459333D01*
X138485619Y-121316476D01*
X138485619Y-121221238D01*
X138533238Y-121078380D01*
X138628476Y-120983142D01*
X138723714Y-120935523D01*
X138914190Y-120887904D01*
X139057047Y-120887904D01*
X139247523Y-120935523D01*
X139342761Y-120983142D01*
X139438000Y-121078380D01*
X139485619Y-121221238D01*
X139485619Y-121316476D01*
X139438000Y-121459333D01*
X139390380Y-121506952D01*
X139485619Y-122221238D02*
X138771333Y-122221238D01*
X138628476Y-122173619D01*
X138533238Y-122078380D01*
X138485619Y-121935523D01*
X138485619Y-121840285D01*
X138485619Y-123173619D02*
X138485619Y-122697428D01*
X139485619Y-122697428D01*
X138580857Y-124078380D02*
X138533238Y-124030761D01*
X138485619Y-123887904D01*
X138485619Y-123792666D01*
X138533238Y-123649809D01*
X138628476Y-123554571D01*
X138723714Y-123506952D01*
X138914190Y-123459333D01*
X139057047Y-123459333D01*
X139247523Y-123506952D01*
X139342761Y-123554571D01*
X139438000Y-123649809D01*
X139485619Y-123792666D01*
X139485619Y-123887904D01*
X139438000Y-124030761D01*
X139390380Y-124078380D01*
X143748285Y-124277428D02*
X144510190Y-124277428D01*
X144129238Y-124658380D02*
X144129238Y-123896476D01*
X145462571Y-123658380D02*
X144986380Y-123658380D01*
X144938761Y-124134571D01*
X144986380Y-124086952D01*
X145081619Y-124039333D01*
X145319714Y-124039333D01*
X145414952Y-124086952D01*
X145462571Y-124134571D01*
X145510190Y-124229809D01*
X145510190Y-124467904D01*
X145462571Y-124563142D01*
X145414952Y-124610761D01*
X145319714Y-124658380D01*
X145081619Y-124658380D01*
X144986380Y-124610761D01*
X144938761Y-124563142D01*
X145795904Y-123658380D02*
X146129238Y-124658380D01*
X146462571Y-123658380D01*
X155471952Y-73545571D02*
X155614809Y-73593190D01*
X155662428Y-73640809D01*
X155710047Y-73736047D01*
X155710047Y-73878904D01*
X155662428Y-73974142D01*
X155614809Y-74021761D01*
X155519571Y-74069380D01*
X155138619Y-74069380D01*
X155138619Y-73069380D01*
X155471952Y-73069380D01*
X155567190Y-73117000D01*
X155614809Y-73164619D01*
X155662428Y-73259857D01*
X155662428Y-73355095D01*
X155614809Y-73450333D01*
X155567190Y-73497952D01*
X155471952Y-73545571D01*
X155138619Y-73545571D01*
X156281476Y-74069380D02*
X156186238Y-74021761D01*
X156138619Y-73974142D01*
X156091000Y-73878904D01*
X156091000Y-73593190D01*
X156138619Y-73497952D01*
X156186238Y-73450333D01*
X156281476Y-73402714D01*
X156424333Y-73402714D01*
X156519571Y-73450333D01*
X156567190Y-73497952D01*
X156614809Y-73593190D01*
X156614809Y-73878904D01*
X156567190Y-73974142D01*
X156519571Y-74021761D01*
X156424333Y-74069380D01*
X156281476Y-74069380D01*
X157186238Y-74069380D02*
X157091000Y-74021761D01*
X157043380Y-73974142D01*
X156995761Y-73878904D01*
X156995761Y-73593190D01*
X157043380Y-73497952D01*
X157091000Y-73450333D01*
X157186238Y-73402714D01*
X157329095Y-73402714D01*
X157424333Y-73450333D01*
X157471952Y-73497952D01*
X157519571Y-73593190D01*
X157519571Y-73878904D01*
X157471952Y-73974142D01*
X157424333Y-74021761D01*
X157329095Y-74069380D01*
X157186238Y-74069380D01*
X157805285Y-73402714D02*
X158186238Y-73402714D01*
X157948142Y-73069380D02*
X157948142Y-73926523D01*
X157995761Y-74021761D01*
X158091000Y-74069380D01*
X158186238Y-74069380D01*
X155614809Y-75631761D02*
X155757666Y-75679380D01*
X155995761Y-75679380D01*
X156091000Y-75631761D01*
X156138619Y-75584142D01*
X156186238Y-75488904D01*
X156186238Y-75393666D01*
X156138619Y-75298428D01*
X156091000Y-75250809D01*
X155995761Y-75203190D01*
X155805285Y-75155571D01*
X155710047Y-75107952D01*
X155662428Y-75060333D01*
X155614809Y-74965095D01*
X155614809Y-74869857D01*
X155662428Y-74774619D01*
X155710047Y-74727000D01*
X155805285Y-74679380D01*
X156043380Y-74679380D01*
X156186238Y-74727000D01*
X156995761Y-75631761D02*
X156900523Y-75679380D01*
X156710047Y-75679380D01*
X156614809Y-75631761D01*
X156567190Y-75536523D01*
X156567190Y-75155571D01*
X156614809Y-75060333D01*
X156710047Y-75012714D01*
X156900523Y-75012714D01*
X156995761Y-75060333D01*
X157043380Y-75155571D01*
X157043380Y-75250809D01*
X156567190Y-75346047D01*
X157614809Y-75679380D02*
X157519571Y-75631761D01*
X157471952Y-75536523D01*
X157471952Y-74679380D01*
X151384095Y-69096000D02*
X151288857Y-69048380D01*
X151146000Y-69048380D01*
X151003142Y-69096000D01*
X150907904Y-69191238D01*
X150860285Y-69286476D01*
X150812666Y-69476952D01*
X150812666Y-69619809D01*
X150860285Y-69810285D01*
X150907904Y-69905523D01*
X151003142Y-70000761D01*
X151146000Y-70048380D01*
X151241238Y-70048380D01*
X151384095Y-70000761D01*
X151431714Y-69953142D01*
X151431714Y-69619809D01*
X151241238Y-69619809D01*
X151860285Y-70048380D02*
X151860285Y-69048380D01*
X152431714Y-70048380D01*
X152431714Y-69048380D01*
X152907904Y-70048380D02*
X152907904Y-69048380D01*
X153146000Y-69048380D01*
X153288857Y-69096000D01*
X153384095Y-69191238D01*
X153431714Y-69286476D01*
X153479333Y-69476952D01*
X153479333Y-69619809D01*
X153431714Y-69810285D01*
X153384095Y-69905523D01*
X153288857Y-70000761D01*
X153146000Y-70048380D01*
X152907904Y-70048380D01*
X146462761Y-70048380D02*
X146129428Y-69572190D01*
X145891333Y-70048380D02*
X145891333Y-69048380D01*
X146272285Y-69048380D01*
X146367523Y-69096000D01*
X146415142Y-69143619D01*
X146462761Y-69238857D01*
X146462761Y-69381714D01*
X146415142Y-69476952D01*
X146367523Y-69524571D01*
X146272285Y-69572190D01*
X145891333Y-69572190D01*
X146796095Y-70048380D02*
X147319904Y-69381714D01*
X146796095Y-69381714D02*
X147319904Y-70048380D01*
X139319047Y-74112380D02*
X138985714Y-73636190D01*
X138747619Y-74112380D02*
X138747619Y-73112380D01*
X139128571Y-73112380D01*
X139223809Y-73160000D01*
X139271428Y-73207619D01*
X139319047Y-73302857D01*
X139319047Y-73445714D01*
X139271428Y-73540952D01*
X139223809Y-73588571D01*
X139128571Y-73636190D01*
X138747619Y-73636190D01*
X139700000Y-74064761D02*
X139795238Y-74112380D01*
X139985714Y-74112380D01*
X140080952Y-74064761D01*
X140128571Y-73969523D01*
X140128571Y-73921904D01*
X140080952Y-73826666D01*
X139985714Y-73779047D01*
X139842857Y-73779047D01*
X139747619Y-73731428D01*
X139700000Y-73636190D01*
X139700000Y-73588571D01*
X139747619Y-73493333D01*
X139842857Y-73445714D01*
X139985714Y-73445714D01*
X140080952Y-73493333D01*
X140414285Y-73445714D02*
X140795238Y-73445714D01*
X140557142Y-73112380D02*
X140557142Y-73969523D01*
X140604761Y-74064761D01*
X140700000Y-74112380D01*
X140795238Y-74112380D01*
X138739619Y-105958095D02*
X139739619Y-105958095D01*
X139263428Y-105958095D02*
X139263428Y-106529523D01*
X138739619Y-106529523D02*
X139739619Y-106529523D01*
X138787238Y-107386666D02*
X138739619Y-107291428D01*
X138739619Y-107100952D01*
X138787238Y-107005714D01*
X138882476Y-106958095D01*
X139263428Y-106958095D01*
X139358666Y-107005714D01*
X139406285Y-107100952D01*
X139406285Y-107291428D01*
X139358666Y-107386666D01*
X139263428Y-107434285D01*
X139168190Y-107434285D01*
X139072952Y-106958095D01*
X138739619Y-107767619D02*
X139406285Y-108291428D01*
X139406285Y-107767619D02*
X138739619Y-108291428D01*
X138739619Y-109100952D02*
X139263428Y-109100952D01*
X139358666Y-109053333D01*
X139406285Y-108958095D01*
X139406285Y-108767619D01*
X139358666Y-108672380D01*
X138787238Y-109100952D02*
X138739619Y-109005714D01*
X138739619Y-108767619D01*
X138787238Y-108672380D01*
X138882476Y-108624761D01*
X138977714Y-108624761D01*
X139072952Y-108672380D01*
X139120571Y-108767619D01*
X139120571Y-109005714D01*
X139168190Y-109100952D01*
X138739619Y-109720000D02*
X138787238Y-109624761D01*
X138882476Y-109577142D01*
X139739619Y-109577142D01*
X138739619Y-110100952D02*
X139406285Y-110100952D01*
X139739619Y-110100952D02*
X139692000Y-110053333D01*
X139644380Y-110100952D01*
X139692000Y-110148571D01*
X139739619Y-110100952D01*
X139644380Y-110100952D01*
X139406285Y-111005714D02*
X138596761Y-111005714D01*
X138501523Y-110958095D01*
X138453904Y-110910476D01*
X138406285Y-110815238D01*
X138406285Y-110672380D01*
X138453904Y-110577142D01*
X138787238Y-111005714D02*
X138739619Y-110910476D01*
X138739619Y-110720000D01*
X138787238Y-110624761D01*
X138834857Y-110577142D01*
X138930095Y-110529523D01*
X139215809Y-110529523D01*
X139311047Y-110577142D01*
X139358666Y-110624761D01*
X139406285Y-110720000D01*
X139406285Y-110910476D01*
X139358666Y-111005714D01*
X138739619Y-111481904D02*
X139739619Y-111481904D01*
X138739619Y-111910476D02*
X139263428Y-111910476D01*
X139358666Y-111862857D01*
X139406285Y-111767619D01*
X139406285Y-111624761D01*
X139358666Y-111529523D01*
X139311047Y-111481904D01*
X139406285Y-112243809D02*
X139406285Y-112624761D01*
X139739619Y-112386666D02*
X138882476Y-112386666D01*
X138787238Y-112434285D01*
X138739619Y-112529523D01*
X138739619Y-112624761D01*
X146542285Y-89987428D02*
X147304190Y-89987428D01*
X146923238Y-90368380D02*
X146923238Y-89606476D01*
X148256571Y-89368380D02*
X147780380Y-89368380D01*
X147732761Y-89844571D01*
X147780380Y-89796952D01*
X147875619Y-89749333D01*
X148113714Y-89749333D01*
X148208952Y-89796952D01*
X148256571Y-89844571D01*
X148304190Y-89939809D01*
X148304190Y-90177904D01*
X148256571Y-90273142D01*
X148208952Y-90320761D01*
X148113714Y-90368380D01*
X147875619Y-90368380D01*
X147780380Y-90320761D01*
X147732761Y-90273142D01*
X148589904Y-89368380D02*
X148923238Y-90368380D01*
X149256571Y-89368380D01*
X146796285Y-82621428D02*
X147558190Y-82621428D01*
X147177238Y-83002380D02*
X147177238Y-82240476D01*
X148510571Y-82002380D02*
X148034380Y-82002380D01*
X147986761Y-82478571D01*
X148034380Y-82430952D01*
X148129619Y-82383333D01*
X148367714Y-82383333D01*
X148462952Y-82430952D01*
X148510571Y-82478571D01*
X148558190Y-82573809D01*
X148558190Y-82811904D01*
X148510571Y-82907142D01*
X148462952Y-82954761D01*
X148367714Y-83002380D01*
X148129619Y-83002380D01*
X148034380Y-82954761D01*
X147986761Y-82907142D01*
X148843904Y-82002380D02*
X149177238Y-83002380D01*
X149510571Y-82002380D01*
X148407523Y-69048380D02*
X148978952Y-69048380D01*
X148693238Y-70048380D02*
X148693238Y-69048380D01*
X149217047Y-70048380D02*
X149740857Y-69381714D01*
X149217047Y-69381714D02*
X149740857Y-70048380D01*
X148550333Y-76271380D02*
X148217000Y-75795190D01*
X147978904Y-76271380D02*
X147978904Y-75271380D01*
X148359857Y-75271380D01*
X148455095Y-75319000D01*
X148502714Y-75366619D01*
X148550333Y-75461857D01*
X148550333Y-75604714D01*
X148502714Y-75699952D01*
X148455095Y-75747571D01*
X148359857Y-75795190D01*
X147978904Y-75795190D01*
X149502714Y-76271380D02*
X148931285Y-76271380D01*
X149217000Y-76271380D02*
X149217000Y-75271380D01*
X149121761Y-75414238D01*
X149026523Y-75509476D01*
X148931285Y-75557095D01*
X138620666Y-67714761D02*
X138763523Y-67762380D01*
X139001619Y-67762380D01*
X139096857Y-67714761D01*
X139144476Y-67667142D01*
X139192095Y-67571904D01*
X139192095Y-67476666D01*
X139144476Y-67381428D01*
X139096857Y-67333809D01*
X139001619Y-67286190D01*
X138811142Y-67238571D01*
X138715904Y-67190952D01*
X138668285Y-67143333D01*
X138620666Y-67048095D01*
X138620666Y-66952857D01*
X138668285Y-66857619D01*
X138715904Y-66810000D01*
X138811142Y-66762380D01*
X139049238Y-66762380D01*
X139192095Y-66810000D01*
X139525428Y-66762380D02*
X139763523Y-67762380D01*
X139954000Y-67048095D01*
X140144476Y-67762380D01*
X140382571Y-66762380D01*
X141287333Y-67762380D02*
X140715904Y-67762380D01*
X141001619Y-67762380D02*
X141001619Y-66762380D01*
X140906380Y-66905238D01*
X140811142Y-67000476D01*
X140715904Y-67048095D01*
X150114095Y-98258380D02*
X150114095Y-99067904D01*
X150161714Y-99163142D01*
X150209333Y-99210761D01*
X150304571Y-99258380D01*
X150495047Y-99258380D01*
X150590285Y-99210761D01*
X150637904Y-99163142D01*
X150685523Y-99067904D01*
X150685523Y-98258380D01*
X151685523Y-99258380D02*
X151114095Y-99258380D01*
X151399809Y-99258380D02*
X151399809Y-98258380D01*
X151304571Y-98401238D01*
X151209333Y-98496476D01*
X151114095Y-98544095D01*
X155575095Y-63968380D02*
X155575095Y-64777904D01*
X155622714Y-64873142D01*
X155670333Y-64920761D01*
X155765571Y-64968380D01*
X155956047Y-64968380D01*
X156051285Y-64920761D01*
X156098904Y-64873142D01*
X156146523Y-64777904D01*
X156146523Y-63968380D01*
X156575095Y-64063619D02*
X156622714Y-64016000D01*
X156717952Y-63968380D01*
X156956047Y-63968380D01*
X157051285Y-64016000D01*
X157098904Y-64063619D01*
X157146523Y-64158857D01*
X157146523Y-64254095D01*
X157098904Y-64396952D01*
X156527476Y-64968380D01*
X157146523Y-64968380D01*
X143574095Y-41371666D02*
X144050285Y-41371666D01*
X143478857Y-41657380D02*
X143812190Y-40657380D01*
X144145523Y-41657380D01*
X144478857Y-40990714D02*
X144478857Y-41657380D01*
X144478857Y-41085952D02*
X144526476Y-41038333D01*
X144621714Y-40990714D01*
X144764571Y-40990714D01*
X144859809Y-41038333D01*
X144907428Y-41133571D01*
X144907428Y-41657380D01*
X145240761Y-40990714D02*
X145621714Y-40990714D01*
X145383619Y-40657380D02*
X145383619Y-41514523D01*
X145431238Y-41609761D01*
X145526476Y-41657380D01*
X145621714Y-41657380D01*
X146336000Y-41609761D02*
X146240761Y-41657380D01*
X146050285Y-41657380D01*
X145955047Y-41609761D01*
X145907428Y-41514523D01*
X145907428Y-41133571D01*
X145955047Y-41038333D01*
X146050285Y-40990714D01*
X146240761Y-40990714D01*
X146336000Y-41038333D01*
X146383619Y-41133571D01*
X146383619Y-41228809D01*
X145907428Y-41324047D01*
X146812190Y-40990714D02*
X146812190Y-41657380D01*
X146812190Y-41085952D02*
X146859809Y-41038333D01*
X146955047Y-40990714D01*
X147097904Y-40990714D01*
X147193142Y-41038333D01*
X147240761Y-41133571D01*
X147240761Y-41657380D01*
X147716952Y-40990714D02*
X147716952Y-41657380D01*
X147716952Y-41085952D02*
X147764571Y-41038333D01*
X147859809Y-40990714D01*
X148002666Y-40990714D01*
X148097904Y-41038333D01*
X148145523Y-41133571D01*
X148145523Y-41657380D01*
X149050285Y-41657380D02*
X149050285Y-41133571D01*
X149002666Y-41038333D01*
X148907428Y-40990714D01*
X148716952Y-40990714D01*
X148621714Y-41038333D01*
X149050285Y-41609761D02*
X148955047Y-41657380D01*
X148716952Y-41657380D01*
X148621714Y-41609761D01*
X148574095Y-41514523D01*
X148574095Y-41419285D01*
X148621714Y-41324047D01*
X148716952Y-41276428D01*
X148955047Y-41276428D01*
X149050285Y-41228809D01*
X150240761Y-41371666D02*
X150716952Y-41371666D01*
X150145523Y-41657380D02*
X150478857Y-40657380D01*
X150812190Y-41657380D01*
X151145523Y-41657380D02*
X151145523Y-40990714D01*
X151145523Y-41181190D02*
X151193142Y-41085952D01*
X151240761Y-41038333D01*
X151336000Y-40990714D01*
X151431238Y-40990714D01*
X152145523Y-41609761D02*
X152050285Y-41657380D01*
X151859809Y-41657380D01*
X151764571Y-41609761D01*
X151716952Y-41514523D01*
X151716952Y-41133571D01*
X151764571Y-41038333D01*
X151859809Y-40990714D01*
X152050285Y-40990714D01*
X152145523Y-41038333D01*
X152193142Y-41133571D01*
X152193142Y-41228809D01*
X151716952Y-41324047D01*
X153050285Y-41657380D02*
X153050285Y-41133571D01*
X153002666Y-41038333D01*
X152907428Y-40990714D01*
X152716952Y-40990714D01*
X152621714Y-41038333D01*
X153050285Y-41609761D02*
X152955047Y-41657380D01*
X152716952Y-41657380D01*
X152621714Y-41609761D01*
X152574095Y-41514523D01*
X152574095Y-41419285D01*
X152621714Y-41324047D01*
X152716952Y-41276428D01*
X152955047Y-41276428D01*
X153050285Y-41228809D01*
X155130666Y-67587761D02*
X155273523Y-67635380D01*
X155511619Y-67635380D01*
X155606857Y-67587761D01*
X155654476Y-67540142D01*
X155702095Y-67444904D01*
X155702095Y-67349666D01*
X155654476Y-67254428D01*
X155606857Y-67206809D01*
X155511619Y-67159190D01*
X155321142Y-67111571D01*
X155225904Y-67063952D01*
X155178285Y-67016333D01*
X155130666Y-66921095D01*
X155130666Y-66825857D01*
X155178285Y-66730619D01*
X155225904Y-66683000D01*
X155321142Y-66635380D01*
X155559238Y-66635380D01*
X155702095Y-66683000D01*
X156035428Y-66635380D02*
X156273523Y-67635380D01*
X156464000Y-66921095D01*
X156654476Y-67635380D01*
X156892571Y-66635380D01*
X157225904Y-66730619D02*
X157273523Y-66683000D01*
X157368761Y-66635380D01*
X157606857Y-66635380D01*
X157702095Y-66683000D01*
X157749714Y-66730619D01*
X157797333Y-66825857D01*
X157797333Y-66921095D01*
X157749714Y-67063952D01*
X157178285Y-67635380D01*
X157797333Y-67635380D01*
X142122333Y-112498142D02*
X142074714Y-112545761D01*
X141931857Y-112593380D01*
X141836619Y-112593380D01*
X141693761Y-112545761D01*
X141598523Y-112450523D01*
X141550904Y-112355285D01*
X141503285Y-112164809D01*
X141503285Y-112021952D01*
X141550904Y-111831476D01*
X141598523Y-111736238D01*
X141693761Y-111641000D01*
X141836619Y-111593380D01*
X141931857Y-111593380D01*
X142074714Y-111641000D01*
X142122333Y-111688619D01*
X142979476Y-111926714D02*
X142979476Y-112593380D01*
X142741380Y-111545761D02*
X142503285Y-112260047D01*
X143122333Y-112260047D01*
X142327333Y-100052142D02*
X142279714Y-100099761D01*
X142136857Y-100147380D01*
X142041619Y-100147380D01*
X141898761Y-100099761D01*
X141803523Y-100004523D01*
X141755904Y-99909285D01*
X141708285Y-99718809D01*
X141708285Y-99575952D01*
X141755904Y-99385476D01*
X141803523Y-99290238D01*
X141898761Y-99195000D01*
X142041619Y-99147380D01*
X142136857Y-99147380D01*
X142279714Y-99195000D01*
X142327333Y-99242619D01*
X143184476Y-99147380D02*
X142994000Y-99147380D01*
X142898761Y-99195000D01*
X142851142Y-99242619D01*
X142755904Y-99385476D01*
X142708285Y-99575952D01*
X142708285Y-99956904D01*
X142755904Y-100052142D01*
X142803523Y-100099761D01*
X142898761Y-100147380D01*
X143089238Y-100147380D01*
X143184476Y-100099761D01*
X143232095Y-100052142D01*
X143279714Y-99956904D01*
X143279714Y-99718809D01*
X143232095Y-99623571D01*
X143184476Y-99575952D01*
X143089238Y-99528333D01*
X142898761Y-99528333D01*
X142803523Y-99575952D01*
X142755904Y-99623571D01*
X142708285Y-99718809D01*
D12*
X150960666Y-94554523D02*
X150960666Y-95461666D01*
X150900190Y-95643095D01*
X150779238Y-95764047D01*
X150597809Y-95824523D01*
X150476857Y-95824523D01*
X151444476Y-94554523D02*
X152230666Y-94554523D01*
X151807333Y-95038333D01*
X151988761Y-95038333D01*
X152109714Y-95098809D01*
X152170190Y-95159285D01*
X152230666Y-95280238D01*
X152230666Y-95582619D01*
X152170190Y-95703571D01*
X152109714Y-95764047D01*
X151988761Y-95824523D01*
X151625904Y-95824523D01*
X151504952Y-95764047D01*
X151444476Y-95703571D01*
X144864666Y-94554523D02*
X144864666Y-95461666D01*
X144804190Y-95643095D01*
X144683238Y-95764047D01*
X144501809Y-95824523D01*
X144380857Y-95824523D01*
X146013714Y-94977857D02*
X146013714Y-95824523D01*
X145711333Y-94494047D02*
X145408952Y-95401190D01*
X146195142Y-95401190D01*
D11*
X146010333Y-76176142D02*
X145962714Y-76223761D01*
X145819857Y-76271380D01*
X145724619Y-76271380D01*
X145581761Y-76223761D01*
X145486523Y-76128523D01*
X145438904Y-76033285D01*
X145391285Y-75842809D01*
X145391285Y-75699952D01*
X145438904Y-75509476D01*
X145486523Y-75414238D01*
X145581761Y-75319000D01*
X145724619Y-75271380D01*
X145819857Y-75271380D01*
X145962714Y-75319000D01*
X146010333Y-75366619D01*
X146391285Y-75366619D02*
X146438904Y-75319000D01*
X146534142Y-75271380D01*
X146772238Y-75271380D01*
X146867476Y-75319000D01*
X146915095Y-75366619D01*
X146962714Y-75461857D01*
X146962714Y-75557095D01*
X146915095Y-75699952D01*
X146343666Y-76271380D01*
X146962714Y-76271380D01*
X143597333Y-76176142D02*
X143549714Y-76223761D01*
X143406857Y-76271380D01*
X143311619Y-76271380D01*
X143168761Y-76223761D01*
X143073523Y-76128523D01*
X143025904Y-76033285D01*
X142978285Y-75842809D01*
X142978285Y-75699952D01*
X143025904Y-75509476D01*
X143073523Y-75414238D01*
X143168761Y-75319000D01*
X143311619Y-75271380D01*
X143406857Y-75271380D01*
X143549714Y-75319000D01*
X143597333Y-75366619D01*
X144549714Y-76271380D02*
X143978285Y-76271380D01*
X144264000Y-76271380D02*
X144264000Y-75271380D01*
X144168761Y-75414238D01*
X144073523Y-75509476D01*
X143978285Y-75557095D01*
X139279333Y-100052142D02*
X139231714Y-100099761D01*
X139088857Y-100147380D01*
X138993619Y-100147380D01*
X138850761Y-100099761D01*
X138755523Y-100004523D01*
X138707904Y-99909285D01*
X138660285Y-99718809D01*
X138660285Y-99575952D01*
X138707904Y-99385476D01*
X138755523Y-99290238D01*
X138850761Y-99195000D01*
X138993619Y-99147380D01*
X139088857Y-99147380D01*
X139231714Y-99195000D01*
X139279333Y-99242619D01*
X140184095Y-99147380D02*
X139707904Y-99147380D01*
X139660285Y-99623571D01*
X139707904Y-99575952D01*
X139803142Y-99528333D01*
X140041238Y-99528333D01*
X140136476Y-99575952D01*
X140184095Y-99623571D01*
X140231714Y-99718809D01*
X140231714Y-99956904D01*
X140184095Y-100052142D01*
X140136476Y-100099761D01*
X140041238Y-100147380D01*
X139803142Y-100147380D01*
X139707904Y-100099761D01*
X139660285Y-100052142D01*
X142122333Y-122545142D02*
X142074714Y-122592761D01*
X141931857Y-122640380D01*
X141836619Y-122640380D01*
X141693761Y-122592761D01*
X141598523Y-122497523D01*
X141550904Y-122402285D01*
X141503285Y-122211809D01*
X141503285Y-122068952D01*
X141550904Y-121878476D01*
X141598523Y-121783238D01*
X141693761Y-121688000D01*
X141836619Y-121640380D01*
X141931857Y-121640380D01*
X142074714Y-121688000D01*
X142122333Y-121735619D01*
X142455666Y-121640380D02*
X143074714Y-121640380D01*
X142741380Y-122021333D01*
X142884238Y-122021333D01*
X142979476Y-122068952D01*
X143027095Y-122116571D01*
X143074714Y-122211809D01*
X143074714Y-122449904D01*
X143027095Y-122545142D01*
X142979476Y-122592761D01*
X142884238Y-122640380D01*
X142598523Y-122640380D01*
X142503285Y-122592761D01*
X142455666Y-122545142D01*
X142668666Y-64730380D02*
X142668666Y-65444666D01*
X142621047Y-65587523D01*
X142525809Y-65682761D01*
X142382952Y-65730380D01*
X142287714Y-65730380D01*
X143097238Y-64825619D02*
X143144857Y-64778000D01*
X143240095Y-64730380D01*
X143478190Y-64730380D01*
X143573428Y-64778000D01*
X143621047Y-64825619D01*
X143668666Y-64920857D01*
X143668666Y-65016095D01*
X143621047Y-65158952D01*
X143049619Y-65730380D01*
X143668666Y-65730380D01*
X155114666Y-112482380D02*
X155114666Y-113196666D01*
X155067047Y-113339523D01*
X154971809Y-113434761D01*
X154828952Y-113482380D01*
X154733714Y-113482380D01*
X156114666Y-113482380D02*
X155543238Y-113482380D01*
X155828952Y-113482380D02*
X155828952Y-112482380D01*
X155733714Y-112625238D01*
X155638476Y-112720476D01*
X155543238Y-112768095D01*
X148169333Y-100052142D02*
X148121714Y-100099761D01*
X147978857Y-100147380D01*
X147883619Y-100147380D01*
X147740761Y-100099761D01*
X147645523Y-100004523D01*
X147597904Y-99909285D01*
X147550285Y-99718809D01*
X147550285Y-99575952D01*
X147597904Y-99385476D01*
X147645523Y-99290238D01*
X147740761Y-99195000D01*
X147883619Y-99147380D01*
X147978857Y-99147380D01*
X148121714Y-99195000D01*
X148169333Y-99242619D01*
X148740761Y-99575952D02*
X148645523Y-99528333D01*
X148597904Y-99480714D01*
X148550285Y-99385476D01*
X148550285Y-99337857D01*
X148597904Y-99242619D01*
X148645523Y-99195000D01*
X148740761Y-99147380D01*
X148931238Y-99147380D01*
X149026476Y-99195000D01*
X149074095Y-99242619D01*
X149121714Y-99337857D01*
X149121714Y-99385476D01*
X149074095Y-99480714D01*
X149026476Y-99528333D01*
X148931238Y-99575952D01*
X148740761Y-99575952D01*
X148645523Y-99623571D01*
X148597904Y-99671190D01*
X148550285Y-99766428D01*
X148550285Y-99956904D01*
X148597904Y-100052142D01*
X148645523Y-100099761D01*
X148740761Y-100147380D01*
X148931238Y-100147380D01*
X149026476Y-100099761D01*
X149074095Y-100052142D01*
X149121714Y-99956904D01*
X149121714Y-99766428D01*
X149074095Y-99671190D01*
X149026476Y-99623571D01*
X148931238Y-99575952D01*
X145121333Y-100052142D02*
X145073714Y-100099761D01*
X144930857Y-100147380D01*
X144835619Y-100147380D01*
X144692761Y-100099761D01*
X144597523Y-100004523D01*
X144549904Y-99909285D01*
X144502285Y-99718809D01*
X144502285Y-99575952D01*
X144549904Y-99385476D01*
X144597523Y-99290238D01*
X144692761Y-99195000D01*
X144835619Y-99147380D01*
X144930857Y-99147380D01*
X145073714Y-99195000D01*
X145121333Y-99242619D01*
X145454666Y-99147380D02*
X146121333Y-99147380D01*
X145692761Y-100147380D01*
D10*
X149325000Y-73125064D02*
X149325000Y-72670936D01*
X147855000Y-73125064D02*
X147855000Y-72670936D01*
X141354000Y-68708000D02*
X141054000Y-68708000D01*
X141354000Y-72008000D02*
X141354000Y-68708000D01*
X141054000Y-72008000D02*
X141354000Y-72008000D01*
X138554000Y-72008000D02*
X138554000Y-68708000D01*
X138554000Y-68708000D02*
X138854000Y-68708000D01*
X138854000Y-72008000D02*
X138554000Y-72008000D01*
X157080000Y-105990000D02*
X157080000Y-102230000D01*
X157080000Y-102230000D02*
X155820000Y-102230000D01*
X150260000Y-102230000D02*
X151520000Y-102230000D01*
X150260000Y-108240000D02*
X150260000Y-102230000D01*
X157336000Y-63705000D02*
X156586000Y-63705000D01*
X140086000Y-63705000D02*
X141836000Y-63705000D01*
X139336000Y-38205000D02*
X157336000Y-38205000D01*
X156586000Y-63705000D02*
X154836000Y-63705000D01*
X139336000Y-62955000D02*
X139336000Y-63705000D01*
X157336000Y-38205000D02*
X157336000Y-44955000D01*
X157336000Y-44145000D02*
X139336000Y-44145000D01*
X139336000Y-63705000D02*
X140086000Y-63705000D01*
X139336000Y-38205000D02*
X139336000Y-44955000D01*
X157336000Y-62955000D02*
X157336000Y-63705000D01*
X155191000Y-68708000D02*
X155491000Y-68708000D01*
X157691000Y-72008000D02*
X157991000Y-72008000D01*
X157991000Y-72008000D02*
X157991000Y-68708000D01*
X157991000Y-68708000D02*
X157691000Y-68708000D01*
X155491000Y-72008000D02*
X155191000Y-72008000D01*
X155191000Y-72008000D02*
X155191000Y-68708000D01*
X143000252Y-115914000D02*
X141577748Y-115914000D01*
X143000252Y-113194000D02*
X141577748Y-113194000D01*
X141759000Y-102227748D02*
X141759000Y-102750252D01*
X143229000Y-102227748D02*
X143229000Y-102750252D01*
X150661000Y-78074000D02*
X158661000Y-78074000D01*
X158661000Y-78074000D02*
X158661000Y-94074000D01*
X158661000Y-94074000D02*
X150661000Y-94074000D01*
X150661000Y-94074000D02*
X150661000Y-78074000D01*
X145838000Y-94070000D02*
X137838000Y-94070000D01*
X137838000Y-94070000D02*
X137838000Y-78070000D01*
X137838000Y-78070000D02*
X145838000Y-78070000D01*
X145838000Y-78070000D02*
X145838000Y-94070000D01*
X147039000Y-73159252D02*
X147039000Y-72636748D01*
X145569000Y-73159252D02*
X145569000Y-72636748D01*
X143029000Y-73159252D02*
X143029000Y-72636748D01*
X144499000Y-73159252D02*
X144499000Y-72636748D01*
X140205000Y-102750252D02*
X140205000Y-102227748D01*
X138735000Y-102750252D02*
X138735000Y-102227748D01*
X143000252Y-121248000D02*
X141577748Y-121248000D01*
X143000252Y-118528000D02*
X141577748Y-118528000D01*
X145298000Y-68640000D02*
X145298000Y-65980000D01*
X144028000Y-68640000D02*
X142698000Y-68640000D01*
X145298000Y-65980000D02*
X152978000Y-65980000D01*
X145298000Y-68640000D02*
X152978000Y-68640000D01*
X152978000Y-68640000D02*
X152978000Y-65980000D01*
X142698000Y-68640000D02*
X142698000Y-67310000D01*
X156042500Y-113750000D02*
X156042500Y-115650000D01*
X146842500Y-113750000D02*
X149442500Y-113750000D01*
X156042500Y-119650000D02*
X156042500Y-128450000D01*
X147692500Y-113550000D02*
X146642500Y-113550000D01*
X146642500Y-114600000D02*
X146642500Y-113550000D01*
X153342500Y-113750000D02*
X156042500Y-113750000D01*
X146842500Y-128450000D02*
X146842500Y-113750000D01*
X156042500Y-128450000D02*
X146842500Y-128450000D01*
X148944000Y-102227748D02*
X148944000Y-102750252D01*
X147474000Y-102227748D02*
X147474000Y-102750252D01*
X146023000Y-102748252D02*
X146023000Y-102225748D01*
X144553000Y-102748252D02*
X144553000Y-102225748D01*
%LPC*%
D13*
X148590000Y-73898000D03*
X148590000Y-71898000D03*
D14*
X139954000Y-72058000D03*
X139954000Y-68658000D03*
D15*
X151370000Y-107290000D03*
D16*
X153670000Y-100990000D03*
D15*
X153670000Y-107290000D03*
X155970000Y-107290000D03*
D17*
X139586000Y-45695000D03*
X139586000Y-46965000D03*
X139586000Y-48235000D03*
X139586000Y-49505000D03*
X139586000Y-50775000D03*
X139586000Y-52045000D03*
X139586000Y-53315000D03*
X139586000Y-54585000D03*
X139586000Y-55855000D03*
X139586000Y-57125000D03*
X139586000Y-58395000D03*
X139586000Y-59665000D03*
X139586000Y-60935000D03*
X139586000Y-62205000D03*
D18*
X142616000Y-63455000D03*
X143886000Y-63455000D03*
X145156000Y-63455000D03*
X146426000Y-63455000D03*
X147696000Y-63455000D03*
X148966000Y-63455000D03*
X150236000Y-63455000D03*
X151506000Y-63455000D03*
X152776000Y-63455000D03*
X154046000Y-63455000D03*
D17*
X157086000Y-62205000D03*
X157086000Y-60935000D03*
X157086000Y-59665000D03*
X157086000Y-58395000D03*
X157086000Y-57125000D03*
X157086000Y-55855000D03*
X157086000Y-54585000D03*
X157086000Y-53315000D03*
X157086000Y-52045000D03*
X157086000Y-50775000D03*
X157086000Y-49505000D03*
X157086000Y-48235000D03*
X157086000Y-46965000D03*
X157086000Y-45695000D03*
D19*
X149181000Y-53035000D03*
X149181000Y-51510000D03*
X146131000Y-53035000D03*
X146131000Y-51510000D03*
X147656000Y-51510000D03*
X149181000Y-54560000D03*
X146131000Y-54560000D03*
X147656000Y-54560000D03*
X147656000Y-53035000D03*
D14*
X156591000Y-72058000D03*
X156591000Y-68658000D03*
D20*
X143851500Y-114554000D03*
X140726500Y-114554000D03*
D21*
X142494000Y-101451500D03*
X142494000Y-103526500D03*
D22*
X154686000Y-80074000D03*
X154686000Y-84074000D03*
X154686000Y-88074000D03*
X154686000Y-92074000D03*
X141813000Y-92070000D03*
X141813000Y-88070000D03*
X141813000Y-84070000D03*
X141813000Y-80070000D03*
D23*
X146304000Y-73935500D03*
X146304000Y-71860500D03*
X143764000Y-73935500D03*
X143764000Y-71860500D03*
X139470000Y-103526500D03*
X139470000Y-101451500D03*
D20*
X143851500Y-119888000D03*
X140726500Y-119888000D03*
D24*
X144028000Y-67310000D03*
D25*
X146568000Y-67310000D03*
X149108000Y-67310000D03*
X151648000Y-67310000D03*
D26*
X151442500Y-114650000D03*
D27*
X151442500Y-120650000D03*
D28*
X156142500Y-117650000D03*
D21*
X148209000Y-101451500D03*
X148209000Y-103526500D03*
D23*
X145288000Y-103524500D03*
X145288000Y-101449500D03*
M02*
